SplineFontDB: 3.1
FontName: Anaheim-Regular
FullName: Anaheim Regular
FamilyName: Anaheim
Weight: Book
Copyright: Copyright (c) 2010-12 by vernon adams. All rights reserved.
Version: 1.000
ItalicAngle: 0
UnderlinePosition: 0
UnderlineWidth: 0
Ascent: 1638
Descent: 410
sfntRevision: 0x00010000
LayerCount: 2
Layer: 0 1 "Back"  1 0
Layer: 1 1 "Fore"  0 0
XUID: [1021 14 500265001 6299559]
FSType: 0
OS2Version: 1
OS2_WeightWidthSlopeOnly: 0
OS2_UseTypoMetrics: 1
CreationTime: 1344552789
ModificationTime: 1351189130
PfmFamily: 17
TTFWeight: 400
TTFWidth: 5
LineGap: 0
VLineGap: 0
Panose: 2 0 5 3 0 0 0 0 0 0
OS2TypoAscent: 1968
OS2TypoAOffset: 0
OS2TypoDescent: -672
OS2TypoDOffset: 0
OS2TypoLinegap: 0
OS2WinAscent: 1968
OS2WinAOffset: 0
OS2WinDescent: 672
OS2WinDOffset: 0
HheadAscent: 1968
HheadAOffset: 0
HheadDescent: -672
HheadDOffset: 0
OS2SubXSize: 1331
OS2SubYSize: 1433
OS2SubXOff: 0
OS2SubYOff: 286
OS2SupXSize: 1331
OS2SupYSize: 1433
OS2SupXOff: 0
OS2SupYOff: 983
OS2StrikeYSize: 102
OS2StrikeYPos: 530
OS2Vendor: 'newt'
OS2CodePages: 20000093.00000000
OS2UnicodeRanges: a00000ef.4000204a.00000000.00000000
Lookup: 258 0 0 "'kern' Horizontal Kerning in Latin lookup 0"  {"'kern' Horizontal Kerning in Latin lookup 0 subtable"  } ['kern' ('latn' <'dflt' > ) ]
DEI: 91125
ShortTable: maxp 16
  1
  0
  433
  82
  7
  88
  4
  2
  0
  1
  1
  0
  64
  0
  3
  2
EndShort

StartChar: A
Encoding: 65 65 3
Width: 1081
Flags: W
LayerCount: 2
UndoRedoHistory
Layer: 1
Undoes
UndoOperation
Index: 0
Type: 1
WasModified: 0
WasOrder2: 1
Width: 1081
VWidth: 2048
LBearingChange: 0
UnicodeEnc: 0
InstructionsLength: 0
SplineSet
769 420 m 1,0,-1
 550 1174 l 1,1,-1
 323 420 l 1,2,-1
 769 420 l 1,0,-1
897 0 m 1,3,-1
 800 328 l 1,4,-1
 293 328 l 1,5,-1
 193 0 l 1,6,-1
 54 0 l 1,7,-1
 454 1284 l 1,8,-1
 645 1284 l 1,9,-1
 1027 0 l 1,10,-1
 897 0 l 1,3,-1
EndSplineSet
EndUndoOperation
UndoOperation
Index: 1
Type: 1
WasModified: 0
WasOrder2: 1
Width: 1081
VWidth: 2048
LBearingChange: 0
UnicodeEnc: 0
InstructionsLength: 0
SplineSet
897 0 m 1,0,-1
 800 328 l 1,1,-1
 293 328 l 1,2,-1
 193 0 l 1,3,-1
 54 0 l 1,4,-1
 454 1284 l 1,5,-1
 645 1284 l 1,6,-1
 1027 0 l 1,7,-1
 897 0 l 1,0,-1
769 420 m 1,8,-1
 550 1174 l 1,9,-1
 323 420 l 1,10,-1
 769 420 l 1,8,-1
EndSplineSet
EndUndoOperation
UndoOperation
Index: 2
Type: 1
WasModified: 0
WasOrder2: 1
Width: 1081
VWidth: 2048
LBearingChange: 0
UnicodeEnc: 0
InstructionsLength: 0
SplineSet
897 0 m 1,0,-1
 800 328 l 1,1,-1
 293 328 l 1,2,-1
 193 0 l 1,3,-1
 54 0 l 1,4,-1
 454 1284 l 1,5,-1
 645 1284 l 1,6,-1
 1027 0 l 1,7,-1
 897 0 l 1,0,-1
769 420 m 1,8,-1
 550 1174 l 1,9,-1
 323 420 l 1,10,-1
 769 420 l 1,8,-1
EndSplineSet
EndUndoOperation
EndUndoes
Redoes
EndRedoes
EndUndoRedoHistory
Fore
SplineSet
769 420 m 1,0,-1
 550 1174 l 1,1,-1
 323 420 l 1,2,-1
 769 420 l 1,0,-1
897 0 m 1,3,-1
 800 328 l 1,4,-1
 293 328 l 1,5,-1
 193 0 l 1,6,-1
 54 0 l 1,7,-1
 454 1284 l 1,8,-1
 645 1284 l 1,9,-1
 1027 0 l 1,10,-1
 897 0 l 1,3,-1
EndSplineSet
EndChar

StartChar: AE
Encoding: 198 198 4
Width: 1381
Flags: W
LayerCount: 2
UndoRedoHistory
Layer: 1
Undoes
UndoOperation
Index: 0
Type: 1
WasModified: 0
WasOrder2: 1
Width: 1381
VWidth: 2048
LBearingChange: 0
UnicodeEnc: 0
InstructionsLength: 0
SplineSet
817 626 m 1,0,-1
 817 100 l 1,1,-1
 1282 100 l 1,2,-1
 1298 0 l 1,3,-1
 689 0 l 1,4,-1
 689 328 l 1,5,-1
 278 328 l 1,6,-1
 114 0 l 1,7,-1
 -26 0 l 1,8,-1
 616 1284 l 1,9,-1
 1294 1284 l 1,10,-1
 1272 1184 l 1,11,-1
 817 1184 l 1,12,-1
 817 722 l 1,13,-1
 1238 722 l 1,14,-1
 1238 626 l 1,15,-1
 817 626 l 1,0,-1
689 1194 m 1,16,-1
 316 420 l 1,17,-1
 689 420 l 1,18,-1
 689 1194 l 1,16,-1
EndSplineSet
EndUndoOperation
UndoOperation
Index: 1
Type: 1
WasModified: 0
WasOrder2: 1
Width: 1381
VWidth: 2048
LBearingChange: 0
UnicodeEnc: 0
InstructionsLength: 0
SplineSet
689 1194 m 1,0,-1
 316 420 l 1,1,-1
 689 420 l 1,2,-1
 689 1194 l 1,0,-1
817 626 m 1,3,-1
 817 100 l 1,4,-1
 1282 100 l 1,5,-1
 1298 0 l 1,6,-1
 689 0 l 1,7,-1
 689 328 l 1,8,-1
 278 328 l 1,9,-1
 114 0 l 1,10,-1
 -26 0 l 1,11,-1
 616 1284 l 1,12,-1
 1294 1284 l 1,13,-1
 1272 1184 l 1,14,-1
 817 1184 l 1,15,-1
 817 722 l 1,16,-1
 1238 722 l 1,17,-1
 1238 626 l 1,18,-1
 817 626 l 1,3,-1
EndSplineSet
EndUndoOperation
UndoOperation
Index: 2
Type: 1
WasModified: 0
WasOrder2: 1
Width: 1381
VWidth: 2048
LBearingChange: 0
UnicodeEnc: 0
InstructionsLength: 0
SplineSet
689 1194 m 1,0,-1
 316 420 l 1,1,-1
 689 420 l 1,2,-1
 689 1194 l 1,0,-1
817 626 m 1,3,-1
 817 100 l 1,4,-1
 1282 100 l 1,5,-1
 1298 0 l 1,6,-1
 689 0 l 1,7,-1
 689 328 l 1,8,-1
 278 328 l 1,9,-1
 114 0 l 1,10,-1
 -26 0 l 1,11,-1
 616 1284 l 1,12,-1
 1294 1284 l 1,13,-1
 1272 1184 l 1,14,-1
 817 1184 l 1,15,-1
 817 722 l 1,16,-1
 1238 722 l 1,17,-1
 1238 626 l 1,18,-1
 817 626 l 1,3,-1
EndSplineSet
EndUndoOperation
EndUndoes
Redoes
EndRedoes
EndUndoRedoHistory
Fore
SplineSet
817 626 m 1,0,-1
 817 100 l 1,1,-1
 1282 100 l 1,2,-1
 1298 0 l 1,3,-1
 689 0 l 1,4,-1
 689 328 l 1,5,-1
 278 328 l 1,6,-1
 114 0 l 1,7,-1
 -26 0 l 1,8,-1
 616 1284 l 1,9,-1
 1294 1284 l 1,10,-1
 1272 1184 l 1,11,-1
 817 1184 l 1,12,-1
 817 722 l 1,13,-1
 1238 722 l 1,14,-1
 1238 626 l 1,15,-1
 817 626 l 1,0,-1
689 1194 m 1,16,-1
 316 420 l 1,17,-1
 689 420 l 1,18,-1
 689 1194 l 1,16,-1
EndSplineSet
EndChar

StartChar: B
Encoding: 66 66 11
Width: 1041
Flags: W
LayerCount: 2
UndoRedoHistory
Layer: 1
Undoes
UndoOperation
Index: 0
Type: 1
WasModified: 0
WasOrder2: 1
Width: 1041
VWidth: 2048
LBearingChange: 0
UnicodeEnc: 0
InstructionsLength: 0
SplineSet
709 687 m 1,0,1
 821 661 821 661 885 583.5 c 128,-1,2
 949 506 949 506 949 377 c 0,3,4
 949 284 949 284 928 218 c 128,-1,5
 907 152 907 152 870 109.5 c 128,-1,6
 833 67 833 67 771 42.5 c 128,-1,7
 709 18 709 18 638 9 c 128,-1,8
 567 0 567 0 467 0 c 2,9,-1
 149 0 l 1,10,-1
 149 1284 l 1,11,-1
 470 1284 l 2,12,13
 586 1284 586 1284 663 1270.5 c 128,-1,14
 740 1257 740 1257 796 1222 c 128,-1,15
 852 1187 852 1187 877.5 1125.5 c 128,-1,16
 903 1064 903 1064 903 971 c 0,17,18
 903 847 903 847 859 780 c 128,-1,19
 815 713 815 713 709 687 c 1,0,1
821 375 m 0,20,21
 821 507 821 507 743 568 c 128,-1,22
 665 629 665 629 511 629 c 2,23,-1
 277 629 l 1,24,-1
 277 100 l 1,25,-1
 474 100 l 2,26,27
 545 100 545 100 595 106 c 128,-1,28
 645 112 645 112 690.5 129 c 128,-1,29
 736 146 736 146 763 176 c 128,-1,30
 790 206 790 206 805.5 255.5 c 128,-1,31
 821 305 821 305 821 375 c 0,20,21
510 723 m 2,32,33
 658 723 658 723 724.5 778 c 128,-1,34
 791 833 791 833 791 971 c 0,35,36
 791 1089 791 1089 722 1136.5 c 128,-1,37
 653 1184 653 1184 494 1184 c 2,38,-1
 277 1184 l 1,39,-1
 277 723 l 1,40,-1
 510 723 l 2,32,33
EndSplineSet
EndUndoOperation
UndoOperation
Index: 1
Type: 1
WasModified: 0
WasOrder2: 1
Width: 1041
VWidth: 2048
LBearingChange: 0
UnicodeEnc: 0
InstructionsLength: 0
SplineSet
510 723 m 2,0,1
 658 723 658 723 724.5 778 c 128,-1,2
 791 833 791 833 791 971 c 0,3,4
 791 1089 791 1089 722 1136.5 c 128,-1,5
 653 1184 653 1184 494 1184 c 2,6,-1
 277 1184 l 1,7,-1
 277 723 l 1,8,-1
 510 723 l 2,0,1
821 375 m 0,9,10
 821 507 821 507 743 568 c 128,-1,11
 665 629 665 629 511 629 c 2,12,-1
 277 629 l 1,13,-1
 277 100 l 1,14,-1
 474 100 l 2,15,16
 545 100 545 100 595 106 c 128,-1,17
 645 112 645 112 690.5 129 c 128,-1,18
 736 146 736 146 763 176 c 128,-1,19
 790 206 790 206 805.5 255.5 c 128,-1,20
 821 305 821 305 821 375 c 0,9,10
709 687 m 1,21,22
 821 661 821 661 885 583.5 c 128,-1,23
 949 506 949 506 949 377 c 0,24,25
 949 284 949 284 928 218 c 128,-1,26
 907 152 907 152 870 109.5 c 128,-1,27
 833 67 833 67 771 42.5 c 128,-1,28
 709 18 709 18 638 9 c 128,-1,29
 567 0 567 0 467 0 c 2,30,-1
 149 0 l 1,31,-1
 149 1284 l 1,32,-1
 470 1284 l 2,33,34
 586 1284 586 1284 663 1270.5 c 128,-1,35
 740 1257 740 1257 796 1222 c 128,-1,36
 852 1187 852 1187 877.5 1125.5 c 128,-1,37
 903 1064 903 1064 903 971 c 0,38,39
 903 847 903 847 859 780 c 128,-1,40
 815 713 815 713 709 687 c 1,21,22
EndSplineSet
EndUndoOperation
UndoOperation
Index: 2
Type: 1
WasModified: 0
WasOrder2: 1
Width: 1041
VWidth: 2048
LBearingChange: 0
UnicodeEnc: 0
InstructionsLength: 0
SplineSet
510 723 m 2,0,1
 658 723 658 723 724.5 778 c 128,-1,2
 791 833 791 833 791 971 c 0,3,4
 791 1089 791 1089 722 1136.5 c 128,-1,5
 653 1184 653 1184 494 1184 c 2,6,-1
 277 1184 l 1,7,-1
 277 723 l 1,8,-1
 510 723 l 2,0,1
821 375 m 0,9,10
 821 507 821 507 743 568 c 128,-1,11
 665 629 665 629 511 629 c 2,12,-1
 277 629 l 1,13,-1
 277 100 l 1,14,-1
 474 100 l 2,15,16
 545 100 545 100 595 106 c 128,-1,17
 645 112 645 112 690.5 129 c 128,-1,18
 736 146 736 146 763 176 c 128,-1,19
 790 206 790 206 805.5 255.5 c 128,-1,20
 821 305 821 305 821 375 c 0,9,10
709 687 m 1,21,22
 821 661 821 661 885 583.5 c 128,-1,23
 949 506 949 506 949 377 c 0,24,25
 949 284 949 284 928 218 c 128,-1,26
 907 152 907 152 870 109.5 c 128,-1,27
 833 67 833 67 771 42.5 c 128,-1,28
 709 18 709 18 638 9 c 128,-1,29
 567 0 567 0 467 0 c 2,30,-1
 149 0 l 1,31,-1
 149 1284 l 1,32,-1
 470 1284 l 2,33,34
 586 1284 586 1284 663 1270.5 c 128,-1,35
 740 1257 740 1257 796 1222 c 128,-1,36
 852 1187 852 1187 877.5 1125.5 c 128,-1,37
 903 1064 903 1064 903 971 c 0,38,39
 903 847 903 847 859 780 c 128,-1,40
 815 713 815 713 709 687 c 1,21,22
EndSplineSet
EndUndoOperation
EndUndoes
Redoes
EndRedoes
EndUndoRedoHistory
Fore
SplineSet
709 687 m 1,0,1
 821 661 821 661 885 583.5 c 128,-1,2
 949 506 949 506 949 377 c 0,3,4
 949 284 949 284 928 218 c 128,-1,5
 907 152 907 152 870 109.5 c 128,-1,6
 833 67 833 67 771 42.5 c 128,-1,7
 709 18 709 18 638 9 c 128,-1,8
 567 0 567 0 467 0 c 2,9,-1
 149 0 l 1,10,-1
 149 1284 l 1,11,-1
 470 1284 l 2,12,13
 586 1284 586 1284 663 1270.5 c 128,-1,14
 740 1257 740 1257 796 1222 c 128,-1,15
 852 1187 852 1187 877.5 1125.5 c 128,-1,16
 903 1064 903 1064 903 971 c 0,17,18
 903 847 903 847 859 780 c 128,-1,19
 815 713 815 713 709 687 c 1,0,1
821 375 m 0,20,21
 821 507 821 507 743 568 c 128,-1,22
 665 629 665 629 511 629 c 2,23,-1
 277 629 l 1,24,-1
 277 100 l 1,25,-1
 474 100 l 2,26,27
 545 100 545 100 595 106 c 128,-1,28
 645 112 645 112 690.5 129 c 128,-1,29
 736 146 736 146 763 176 c 128,-1,30
 790 206 790 206 805.5 255.5 c 128,-1,31
 821 305 821 305 821 375 c 0,20,21
510 723 m 2,32,33
 658 723 658 723 724.5 778 c 128,-1,34
 791 833 791 833 791 971 c 0,35,36
 791 1089 791 1089 722 1136.5 c 128,-1,37
 653 1184 653 1184 494 1184 c 2,38,-1
 277 1184 l 1,39,-1
 277 723 l 1,40,-1
 510 723 l 2,32,33
EndSplineSet
EndChar

StartChar: C
Encoding: 67 67 12
Width: 1014
Flags: W
LayerCount: 2
UndoRedoHistory
Layer: 1
Undoes
UndoOperation
Index: 0
Type: 1
WasModified: 0
WasOrder2: 1
Width: 1014
VWidth: 2048
LBearingChange: 0
UnicodeEnc: 0
InstructionsLength: 0
SplineSet
246 638 m 0,0,1
 246 362 246 362 344 229 c 128,-1,2
 442 96 442 96 606 96 c 0,3,4
 746 96 746 96 883 161 c 1,5,-1
 923 64 l 1,6,7
 768 -10 768 -10 598 -10 c 0,8,9
 495 -10 495 -10 409 29 c 128,-1,10
 323 68 323 68 257.5 145.5 c 128,-1,11
 192 223 192 223 155 349.5 c 128,-1,12
 118 476 118 476 118 641 c 0,13,14
 118 991 118 991 231.5 1146 c 128,-1,15
 345 1301 345 1301 586 1301 c 0,16,17
 743 1301 743 1301 896 1226 c 1,18,-1
 896 984 l 1,19,-1
 787 984 l 1,20,-1
 787 1157 l 1,21,22
 701 1195 701 1195 597 1195 c 0,23,24
 507 1195 507 1195 446 1171.5 c 128,-1,25
 385 1148 385 1148 337.5 1087.5 c 128,-1,26
 290 1027 290 1027 268 916 c 128,-1,27
 246 805 246 805 246 638 c 0,0,1
EndSplineSet
EndUndoOperation
UndoOperation
Index: 1
Type: 1
WasModified: 0
WasOrder2: 1
Width: 1014
VWidth: 2048
LBearingChange: 0
UnicodeEnc: 0
InstructionsLength: 0
SplineSet
246 638 m 0,0,1
 246 362 246 362 344 229 c 128,-1,2
 442 96 442 96 606 96 c 0,3,4
 746 96 746 96 883 161 c 1,5,-1
 923 64 l 1,6,7
 768 -10 768 -10 598 -10 c 0,8,9
 495 -10 495 -10 409 29 c 128,-1,10
 323 68 323 68 257.5 145.5 c 128,-1,11
 192 223 192 223 155 349.5 c 128,-1,12
 118 476 118 476 118 641 c 0,13,14
 118 991 118 991 231.5 1146 c 128,-1,15
 345 1301 345 1301 586 1301 c 0,16,17
 743 1301 743 1301 896 1226 c 1,18,-1
 896 984 l 1,19,-1
 787 984 l 1,20,-1
 787 1157 l 1,21,22
 701 1195 701 1195 597 1195 c 0,23,24
 507 1195 507 1195 446 1171.5 c 128,-1,25
 385 1148 385 1148 337.5 1087.5 c 128,-1,26
 290 1027 290 1027 268 916 c 128,-1,27
 246 805 246 805 246 638 c 0,0,1
EndSplineSet
EndUndoOperation
UndoOperation
Index: 2
Type: 1
WasModified: 0
WasOrder2: 1
Width: 1014
VWidth: 2048
LBearingChange: 0
UnicodeEnc: 0
InstructionsLength: 0
SplineSet
246 638 m 0,0,1
 246 362 246 362 344 229 c 128,-1,2
 442 96 442 96 606 96 c 0,3,4
 746 96 746 96 883 161 c 1,5,-1
 923 64 l 1,6,7
 768 -10 768 -10 598 -10 c 0,8,9
 495 -10 495 -10 409 29 c 128,-1,10
 323 68 323 68 257.5 145.5 c 128,-1,11
 192 223 192 223 155 349.5 c 128,-1,12
 118 476 118 476 118 641 c 0,13,14
 118 991 118 991 231.5 1146 c 128,-1,15
 345 1301 345 1301 586 1301 c 0,16,17
 743 1301 743 1301 896 1226 c 1,18,-1
 896 984 l 1,19,-1
 787 984 l 1,20,-1
 787 1157 l 1,21,22
 701 1195 701 1195 597 1195 c 0,23,24
 507 1195 507 1195 446 1171.5 c 128,-1,25
 385 1148 385 1148 337.5 1087.5 c 128,-1,26
 290 1027 290 1027 268 916 c 128,-1,27
 246 805 246 805 246 638 c 0,0,1
EndSplineSet
EndUndoOperation
EndUndoes
Redoes
EndRedoes
EndUndoRedoHistory
Fore
SplineSet
246 638 m 0,0,1
 246 362 246 362 344 229 c 128,-1,2
 442 96 442 96 606 96 c 0,3,4
 746 96 746 96 883 161 c 1,5,-1
 923 64 l 1,6,7
 768 -10 768 -10 598 -10 c 0,8,9
 495 -10 495 -10 409 29 c 128,-1,10
 323 68 323 68 257.5 145.5 c 128,-1,11
 192 223 192 223 155 349.5 c 128,-1,12
 118 476 118 476 118 641 c 0,13,14
 118 991 118 991 231.5 1146 c 128,-1,15
 345 1301 345 1301 586 1301 c 0,16,17
 743 1301 743 1301 896 1226 c 1,18,-1
 896 984 l 1,19,-1
 787 984 l 1,20,-1
 787 1157 l 1,21,22
 701 1195 701 1195 597 1195 c 0,23,24
 507 1195 507 1195 446 1171.5 c 128,-1,25
 385 1148 385 1148 337.5 1087.5 c 128,-1,26
 290 1027 290 1027 268 916 c 128,-1,27
 246 805 246 805 246 638 c 0,0,1
EndSplineSet
EndChar

StartChar: D
Encoding: 68 68 14
Width: 1099
Flags: W
LayerCount: 2
UndoRedoHistory
Layer: 1
Undoes
UndoOperation
Index: 0
Type: 1
WasModified: 0
WasOrder2: 1
Width: 1099
VWidth: 2048
LBearingChange: 0
UnicodeEnc: 0
InstructionsLength: 0
SplineSet
433 0 m 2,0,-1
 149 0 l 1,1,-1
 149 1284 l 1,2,-1
 422 1284 l 2,3,4
 536 1284 536 1284 621 1269 c 128,-1,5
 706 1254 706 1254 768.5 1219 c 128,-1,6
 831 1184 831 1184 871.5 1135 c 128,-1,7
 912 1086 912 1086 936.5 1010.5 c 128,-1,8
 961 935 961 935 971 846 c 128,-1,9
 981 757 981 757 981 636 c 0,10,11
 981 543 981 543 975.5 472 c 128,-1,12
 970 401 970 401 955 332 c 128,-1,13
 940 263 940 263 914 214 c 128,-1,14
 888 165 888 165 847 122.5 c 128,-1,15
 806 80 806 80 748.5 54.5 c 128,-1,16
 691 29 691 29 612 14.5 c 128,-1,17
 533 0 533 0 433 0 c 2,0,-1
422 1184 m 2,18,-1
 277 1184 l 1,19,-1
 277 100 l 1,20,-1
 433 100 l 2,21,22
 497 100 497 100 548.5 106.5 c 128,-1,23
 600 113 600 113 641 124.5 c 128,-1,24
 682 136 682 136 713 157 c 128,-1,25
 744 178 744 178 766.5 201.5 c 128,-1,26
 789 225 789 225 804.5 261 c 128,-1,27
 820 297 820 297 829.5 332.5 c 128,-1,28
 839 368 839 368 844 419.5 c 128,-1,29
 849 471 849 471 851 519.5 c 128,-1,30
 853 568 853 568 853 636 c 0,31,32
 853 742 853 742 847 814.5 c 128,-1,33
 841 887 841 887 824.5 952.5 c 128,-1,34
 808 1018 808 1018 778.5 1058.5 c 128,-1,35
 749 1099 749 1099 700.5 1129 c 128,-1,36
 652 1159 652 1159 584 1171.5 c 128,-1,37
 516 1184 516 1184 422 1184 c 2,18,-1
EndSplineSet
EndUndoOperation
UndoOperation
Index: 1
Type: 1
WasModified: 0
WasOrder2: 1
Width: 1099
VWidth: 2048
LBearingChange: 0
UnicodeEnc: 0
InstructionsLength: 0
SplineSet
422 1184 m 2,0,-1
 277 1184 l 1,1,-1
 277 100 l 1,2,-1
 433 100 l 2,3,4
 497 100 497 100 548.5 106.5 c 128,-1,5
 600 113 600 113 641 124.5 c 128,-1,6
 682 136 682 136 713 157 c 128,-1,7
 744 178 744 178 766.5 201.5 c 128,-1,8
 789 225 789 225 804.5 261 c 128,-1,9
 820 297 820 297 829.5 332.5 c 128,-1,10
 839 368 839 368 844 419.5 c 128,-1,11
 849 471 849 471 851 519.5 c 128,-1,12
 853 568 853 568 853 636 c 0,13,14
 853 742 853 742 847 814.5 c 128,-1,15
 841 887 841 887 824.5 952.5 c 128,-1,16
 808 1018 808 1018 778.5 1058.5 c 128,-1,17
 749 1099 749 1099 700.5 1129 c 128,-1,18
 652 1159 652 1159 584 1171.5 c 128,-1,19
 516 1184 516 1184 422 1184 c 2,0,-1
433 0 m 2,20,-1
 149 0 l 1,21,-1
 149 1284 l 1,22,-1
 422 1284 l 2,23,24
 536 1284 536 1284 621 1269 c 128,-1,25
 706 1254 706 1254 768.5 1219 c 128,-1,26
 831 1184 831 1184 871.5 1135 c 128,-1,27
 912 1086 912 1086 936.5 1010.5 c 128,-1,28
 961 935 961 935 971 846 c 128,-1,29
 981 757 981 757 981 636 c 0,30,31
 981 543 981 543 975.5 472 c 128,-1,32
 970 401 970 401 955 332 c 128,-1,33
 940 263 940 263 914 214 c 128,-1,34
 888 165 888 165 847 122.5 c 128,-1,35
 806 80 806 80 748.5 54.5 c 128,-1,36
 691 29 691 29 612 14.5 c 128,-1,37
 533 0 533 0 433 0 c 2,20,-1
EndSplineSet
EndUndoOperation
UndoOperation
Index: 2
Type: 1
WasModified: 0
WasOrder2: 1
Width: 1099
VWidth: 2048
LBearingChange: 0
UnicodeEnc: 0
InstructionsLength: 0
SplineSet
422 1184 m 2,0,-1
 277 1184 l 1,1,-1
 277 100 l 1,2,-1
 433 100 l 2,3,4
 497 100 497 100 548.5 106.5 c 128,-1,5
 600 113 600 113 641 124.5 c 128,-1,6
 682 136 682 136 713 157 c 128,-1,7
 744 178 744 178 766.5 201.5 c 128,-1,8
 789 225 789 225 804.5 261 c 128,-1,9
 820 297 820 297 829.5 332.5 c 128,-1,10
 839 368 839 368 844 419.5 c 128,-1,11
 849 471 849 471 851 519.5 c 128,-1,12
 853 568 853 568 853 636 c 0,13,14
 853 742 853 742 847 814.5 c 128,-1,15
 841 887 841 887 824.5 952.5 c 128,-1,16
 808 1018 808 1018 778.5 1058.5 c 128,-1,17
 749 1099 749 1099 700.5 1129 c 128,-1,18
 652 1159 652 1159 584 1171.5 c 128,-1,19
 516 1184 516 1184 422 1184 c 2,0,-1
433 0 m 2,20,-1
 149 0 l 1,21,-1
 149 1284 l 1,22,-1
 422 1284 l 2,23,24
 536 1284 536 1284 621 1269 c 128,-1,25
 706 1254 706 1254 768.5 1219 c 128,-1,26
 831 1184 831 1184 871.5 1135 c 128,-1,27
 912 1086 912 1086 936.5 1010.5 c 128,-1,28
 961 935 961 935 971 846 c 128,-1,29
 981 757 981 757 981 636 c 0,30,31
 981 543 981 543 975.5 472 c 128,-1,32
 970 401 970 401 955 332 c 128,-1,33
 940 263 940 263 914 214 c 128,-1,34
 888 165 888 165 847 122.5 c 128,-1,35
 806 80 806 80 748.5 54.5 c 128,-1,36
 691 29 691 29 612 14.5 c 128,-1,37
 533 0 533 0 433 0 c 2,20,-1
EndSplineSet
EndUndoOperation
EndUndoes
Redoes
EndRedoes
EndUndoRedoHistory
Fore
SplineSet
433 0 m 2,0,-1
 149 0 l 1,1,-1
 149 1284 l 1,2,-1
 422 1284 l 2,3,4
 536 1284 536 1284 621 1269 c 128,-1,5
 706 1254 706 1254 768.5 1219 c 128,-1,6
 831 1184 831 1184 871.5 1135 c 128,-1,7
 912 1086 912 1086 936.5 1010.5 c 128,-1,8
 961 935 961 935 971 846 c 128,-1,9
 981 757 981 757 981 636 c 0,10,11
 981 543 981 543 975.5 472 c 128,-1,12
 970 401 970 401 955 332 c 128,-1,13
 940 263 940 263 914 214 c 128,-1,14
 888 165 888 165 847 122.5 c 128,-1,15
 806 80 806 80 748.5 54.5 c 128,-1,16
 691 29 691 29 612 14.5 c 128,-1,17
 533 0 533 0 433 0 c 2,0,-1
422 1184 m 2,18,-1
 277 1184 l 1,19,-1
 277 100 l 1,20,-1
 433 100 l 2,21,22
 497 100 497 100 548.5 106.5 c 128,-1,23
 600 113 600 113 641 124.5 c 128,-1,24
 682 136 682 136 713 157 c 128,-1,25
 744 178 744 178 766.5 201.5 c 128,-1,26
 789 225 789 225 804.5 261 c 128,-1,27
 820 297 820 297 829.5 332.5 c 128,-1,28
 839 368 839 368 844 419.5 c 128,-1,29
 849 471 849 471 851 519.5 c 128,-1,30
 853 568 853 568 853 636 c 0,31,32
 853 742 853 742 847 814.5 c 128,-1,33
 841 887 841 887 824.5 952.5 c 128,-1,34
 808 1018 808 1018 778.5 1058.5 c 128,-1,35
 749 1099 749 1099 700.5 1129 c 128,-1,36
 652 1159 652 1159 584 1171.5 c 128,-1,37
 516 1184 516 1184 422 1184 c 2,18,-1
EndSplineSet
EndChar

StartChar: uni0394
Encoding: 916 916 15
Width: 1082
Flags: W
LayerCount: 2
UndoRedoHistory
Layer: 1
Undoes
UndoOperation
Index: 0
Type: 1
WasModified: 0
WasOrder2: 1
Width: 1082
VWidth: 2048
LBearingChange: 0
UnicodeEnc: 0
InstructionsLength: 0
SplineSet
246 102 m 1,0,-1
 838 102 l 1,1,-1
 563 1245 l 1,2,-1
 539 1245 l 1,3,-1
 246 102 l 1,0,-1
970 0 m 1,4,-1
 113 0 l 1,5,-1
 464 1339 l 1,6,-1
 640 1339 l 1,7,-1
 970 0 l 1,4,-1
EndSplineSet
EndUndoOperation
UndoOperation
Index: 1
Type: 1
WasModified: 0
WasOrder2: 1
Width: 1082
VWidth: 2048
LBearingChange: 0
UnicodeEnc: 0
InstructionsLength: 0
SplineSet
970 0 m 1,0,-1
 113 0 l 1,1,-1
 464 1339 l 1,2,-1
 640 1339 l 1,3,-1
 970 0 l 1,0,-1
246 102 m 1,4,-1
 838 102 l 1,5,-1
 563 1245 l 1,6,-1
 539 1245 l 1,7,-1
 246 102 l 1,4,-1
EndSplineSet
EndUndoOperation
UndoOperation
Index: 2
Type: 1
WasModified: 0
WasOrder2: 1
Width: 1082
VWidth: 2048
LBearingChange: 0
UnicodeEnc: 0
InstructionsLength: 0
SplineSet
970 0 m 1,0,-1
 113 0 l 1,1,-1
 464 1339 l 1,2,-1
 640 1339 l 1,3,-1
 970 0 l 1,0,-1
246 102 m 1,4,-1
 838 102 l 1,5,-1
 563 1245 l 1,6,-1
 539 1245 l 1,7,-1
 246 102 l 1,4,-1
EndSplineSet
EndUndoOperation
EndUndoes
Redoes
EndRedoes
EndUndoRedoHistory
Fore
SplineSet
246 102 m 1,0,-1
 838 102 l 1,1,-1
 563 1245 l 1,2,-1
 539 1245 l 1,3,-1
 246 102 l 1,0,-1
970 0 m 1,4,-1
 113 0 l 1,5,-1
 464 1339 l 1,6,-1
 640 1339 l 1,7,-1
 970 0 l 1,4,-1
EndSplineSet
EndChar

StartChar: E
Encoding: 69 69 16
Width: 921
Flags: W
LayerCount: 2
UndoRedoHistory
Layer: 1
Undoes
UndoOperation
Index: 0
Type: 1
WasModified: 0
WasOrder2: 1
Width: 921
VWidth: 2048
LBearingChange: 0
UnicodeEnc: 0
InstructionsLength: 0
SplineSet
277 626 m 1,0,-1
 277 100 l 1,1,-1
 822 100 l 1,2,-1
 838 0 l 1,3,-1
 149 0 l 1,4,-1
 149 1284 l 1,5,-1
 834 1284 l 1,6,-1
 812 1184 l 1,7,-1
 277 1184 l 1,8,-1
 277 722 l 1,9,-1
 778 722 l 1,10,-1
 778 626 l 1,11,-1
 277 626 l 1,0,-1
EndSplineSet
EndUndoOperation
UndoOperation
Index: 1
Type: 1
WasModified: 0
WasOrder2: 1
Width: 921
VWidth: 2048
LBearingChange: 0
UnicodeEnc: 0
InstructionsLength: 0
SplineSet
277 626 m 1,0,-1
 277 100 l 1,1,-1
 822 100 l 1,2,-1
 838 0 l 1,3,-1
 149 0 l 1,4,-1
 149 1284 l 1,5,-1
 834 1284 l 1,6,-1
 812 1184 l 1,7,-1
 277 1184 l 1,8,-1
 277 722 l 1,9,-1
 778 722 l 1,10,-1
 778 626 l 1,11,-1
 277 626 l 1,0,-1
EndSplineSet
EndUndoOperation
UndoOperation
Index: 2
Type: 1
WasModified: 0
WasOrder2: 1
Width: 921
VWidth: 2048
LBearingChange: 0
UnicodeEnc: 0
InstructionsLength: 0
SplineSet
277 626 m 1,0,-1
 277 100 l 1,1,-1
 822 100 l 1,2,-1
 838 0 l 1,3,-1
 149 0 l 1,4,-1
 149 1284 l 1,5,-1
 834 1284 l 1,6,-1
 812 1184 l 1,7,-1
 277 1184 l 1,8,-1
 277 722 l 1,9,-1
 778 722 l 1,10,-1
 778 626 l 1,11,-1
 277 626 l 1,0,-1
EndSplineSet
EndUndoOperation
EndUndoes
Redoes
EndRedoes
EndUndoRedoHistory
Fore
SplineSet
277 626 m 1,0,-1
 277 100 l 1,1,-1
 822 100 l 1,2,-1
 838 0 l 1,3,-1
 149 0 l 1,4,-1
 149 1284 l 1,5,-1
 834 1284 l 1,6,-1
 812 1184 l 1,7,-1
 277 1184 l 1,8,-1
 277 722 l 1,9,-1
 778 722 l 1,10,-1
 778 626 l 1,11,-1
 277 626 l 1,0,-1
EndSplineSet
EndChar

StartChar: Euro
Encoding: 8364 8364 22
Width: 1059
Flags: W
LayerCount: 2
UndoRedoHistory
Layer: 1
Undoes
UndoOperation
Index: 0
Type: 1
WasModified: 0
WasOrder2: 1
Width: 1059
VWidth: 2048
LBearingChange: 0
UnicodeEnc: 0
InstructionsLength: 0
SplineSet
71 749 m 1,0,-1
 71 840 l 1,1,-1
 200 840 l 1,2,3
 230 1082 230 1082 341.5 1191.5 c 128,-1,4
 453 1301 453 1301 657 1301 c 0,5,6
 814 1301 814 1301 967 1226 c 1,7,-1
 967 984 l 1,8,-1
 858 984 l 1,9,-1
 858 1157 l 1,10,11
 772 1195 772 1195 668 1195 c 0,12,13
 594 1195 594 1195 540 1179 c 128,-1,14
 486 1163 486 1163 441.5 1124 c 128,-1,15
 397 1085 397 1085 369 1015 c 128,-1,16
 341 945 341 945 328 840 c 1,17,-1
 717 840 l 1,18,-1
 717 749 l 1,19,-1
 320 749 l 1,20,21
 317 701 317 701 317 646 c 1,22,-1
 717 646 l 1,23,-1
 717 555 l 1,24,-1
 320 555 l 1,25,26
 335 321 335 321 430.5 208.5 c 128,-1,27
 526 96 526 96 677 96 c 0,28,29
 817 96 817 96 954 161 c 1,30,-1
 994 64 l 1,31,32
 839 -10 839 -10 669 -10 c 0,33,34
 573 -10 573 -10 491.5 24 c 128,-1,35
 410 58 410 58 346 125.5 c 128,-1,36
 282 193 282 193 241.5 302.5 c 128,-1,37
 201 412 201 412 192 555 c 1,38,-1
 71 555 l 1,39,-1
 71 646 l 1,40,-1
 189 646 l 1,41,42
 189 700 189 700 192 749 c 1,43,-1
 71 749 l 1,0,-1
EndSplineSet
EndUndoOperation
UndoOperation
Index: 1
Type: 1
WasModified: 0
WasOrder2: 1
Width: 1059
VWidth: 2048
LBearingChange: 0
UnicodeEnc: 0
InstructionsLength: 0
SplineSet
71 749 m 1,0,-1
 71 840 l 1,1,-1
 200 840 l 1,2,3
 230 1082 230 1082 341.5 1191.5 c 128,-1,4
 453 1301 453 1301 657 1301 c 0,5,6
 814 1301 814 1301 967 1226 c 1,7,-1
 967 984 l 1,8,-1
 858 984 l 1,9,-1
 858 1157 l 1,10,11
 772 1195 772 1195 668 1195 c 0,12,13
 594 1195 594 1195 540 1179 c 128,-1,14
 486 1163 486 1163 441.5 1124 c 128,-1,15
 397 1085 397 1085 369 1015 c 128,-1,16
 341 945 341 945 328 840 c 1,17,-1
 717 840 l 1,18,-1
 717 749 l 1,19,-1
 320 749 l 1,20,21
 317 701 317 701 317 646 c 1,22,-1
 717 646 l 1,23,-1
 717 555 l 1,24,-1
 320 555 l 1,25,26
 335 321 335 321 430.5 208.5 c 128,-1,27
 526 96 526 96 677 96 c 0,28,29
 817 96 817 96 954 161 c 1,30,-1
 994 64 l 1,31,32
 839 -10 839 -10 669 -10 c 0,33,34
 573 -10 573 -10 491.5 24 c 128,-1,35
 410 58 410 58 346 125.5 c 128,-1,36
 282 193 282 193 241.5 302.5 c 128,-1,37
 201 412 201 412 192 555 c 1,38,-1
 71 555 l 1,39,-1
 71 646 l 1,40,-1
 189 646 l 1,41,42
 189 700 189 700 192 749 c 1,43,-1
 71 749 l 1,0,-1
EndSplineSet
EndUndoOperation
UndoOperation
Index: 2
Type: 1
WasModified: 0
WasOrder2: 1
Width: 1059
VWidth: 2048
LBearingChange: 0
UnicodeEnc: 0
InstructionsLength: 0
SplineSet
71 749 m 1,0,-1
 71 840 l 1,1,-1
 200 840 l 1,2,3
 230 1082 230 1082 341.5 1191.5 c 128,-1,4
 453 1301 453 1301 657 1301 c 0,5,6
 814 1301 814 1301 967 1226 c 1,7,-1
 967 984 l 1,8,-1
 858 984 l 1,9,-1
 858 1157 l 1,10,11
 772 1195 772 1195 668 1195 c 0,12,13
 594 1195 594 1195 540 1179 c 128,-1,14
 486 1163 486 1163 441.5 1124 c 128,-1,15
 397 1085 397 1085 369 1015 c 128,-1,16
 341 945 341 945 328 840 c 1,17,-1
 717 840 l 1,18,-1
 717 749 l 1,19,-1
 320 749 l 1,20,21
 317 701 317 701 317 646 c 1,22,-1
 717 646 l 1,23,-1
 717 555 l 1,24,-1
 320 555 l 1,25,26
 335 321 335 321 430.5 208.5 c 128,-1,27
 526 96 526 96 677 96 c 0,28,29
 817 96 817 96 954 161 c 1,30,-1
 994 64 l 1,31,32
 839 -10 839 -10 669 -10 c 0,33,34
 573 -10 573 -10 491.5 24 c 128,-1,35
 410 58 410 58 346 125.5 c 128,-1,36
 282 193 282 193 241.5 302.5 c 128,-1,37
 201 412 201 412 192 555 c 1,38,-1
 71 555 l 1,39,-1
 71 646 l 1,40,-1
 189 646 l 1,41,42
 189 700 189 700 192 749 c 1,43,-1
 71 749 l 1,0,-1
EndSplineSet
EndUndoOperation
EndUndoes
Redoes
EndRedoes
EndUndoRedoHistory
Fore
SplineSet
71 749 m 1,0,-1
 71 840 l 1,1,-1
 200 840 l 1,2,3
 230 1082 230 1082 341.5 1191.5 c 128,-1,4
 453 1301 453 1301 657 1301 c 0,5,6
 814 1301 814 1301 967 1226 c 1,7,-1
 967 984 l 1,8,-1
 858 984 l 1,9,-1
 858 1157 l 1,10,11
 772 1195 772 1195 668 1195 c 0,12,13
 594 1195 594 1195 540 1179 c 128,-1,14
 486 1163 486 1163 441.5 1124 c 128,-1,15
 397 1085 397 1085 369 1015 c 128,-1,16
 341 945 341 945 328 840 c 1,17,-1
 717 840 l 1,18,-1
 717 749 l 1,19,-1
 320 749 l 1,20,21
 317 701 317 701 317 646 c 1,22,-1
 717 646 l 1,23,-1
 717 555 l 1,24,-1
 320 555 l 1,25,26
 335 321 335 321 430.5 208.5 c 128,-1,27
 526 96 526 96 677 96 c 0,28,29
 817 96 817 96 954 161 c 1,30,-1
 994 64 l 1,31,32
 839 -10 839 -10 669 -10 c 0,33,34
 573 -10 573 -10 491.5 24 c 128,-1,35
 410 58 410 58 346 125.5 c 128,-1,36
 282 193 282 193 241.5 302.5 c 128,-1,37
 201 412 201 412 192 555 c 1,38,-1
 71 555 l 1,39,-1
 71 646 l 1,40,-1
 189 646 l 1,41,42
 189 700 189 700 192 749 c 1,43,-1
 71 749 l 1,0,-1
EndSplineSet
EndChar

StartChar: F
Encoding: 70 70 23
Width: 852
Flags: W
LayerCount: 2
UndoRedoHistory
Layer: 1
Undoes
UndoOperation
Index: 0
Type: 1
WasModified: 0
WasOrder2: 1
Width: 852
VWidth: 2048
LBearingChange: 0
UnicodeEnc: 0
InstructionsLength: 0
SplineSet
277 697 m 1,0,-1
 733 697 l 1,1,-1
 733 603 l 1,2,-1
 277 603 l 1,3,-1
 277 0 l 1,4,-1
 149 0 l 1,5,-1
 149 1284 l 1,6,-1
 816 1284 l 1,7,-1
 797 1184 l 1,8,-1
 277 1184 l 1,9,-1
 277 697 l 1,0,-1
EndSplineSet
EndUndoOperation
UndoOperation
Index: 1
Type: 1
WasModified: 0
WasOrder2: 1
Width: 852
VWidth: 2048
LBearingChange: 0
UnicodeEnc: 0
InstructionsLength: 0
SplineSet
277 697 m 1,0,-1
 733 697 l 1,1,-1
 733 603 l 1,2,-1
 277 603 l 1,3,-1
 277 0 l 1,4,-1
 149 0 l 1,5,-1
 149 1284 l 1,6,-1
 816 1284 l 1,7,-1
 797 1184 l 1,8,-1
 277 1184 l 1,9,-1
 277 697 l 1,0,-1
EndSplineSet
EndUndoOperation
UndoOperation
Index: 2
Type: 1
WasModified: 0
WasOrder2: 1
Width: 852
VWidth: 2048
LBearingChange: 0
UnicodeEnc: 0
InstructionsLength: 0
SplineSet
277 697 m 1,0,-1
 733 697 l 1,1,-1
 733 603 l 1,2,-1
 277 603 l 1,3,-1
 277 0 l 1,4,-1
 149 0 l 1,5,-1
 149 1284 l 1,6,-1
 816 1284 l 1,7,-1
 797 1184 l 1,8,-1
 277 1184 l 1,9,-1
 277 697 l 1,0,-1
EndSplineSet
EndUndoOperation
EndUndoes
Redoes
EndRedoes
EndUndoRedoHistory
Fore
SplineSet
277 697 m 1,0,-1
 733 697 l 1,1,-1
 733 603 l 1,2,-1
 277 603 l 1,3,-1
 277 0 l 1,4,-1
 149 0 l 1,5,-1
 149 1284 l 1,6,-1
 816 1284 l 1,7,-1
 797 1184 l 1,8,-1
 277 1184 l 1,9,-1
 277 697 l 1,0,-1
EndSplineSet
EndChar

StartChar: G
Encoding: 71 71 24
Width: 1094
Flags: W
LayerCount: 2
UndoRedoHistory
Layer: 1
Undoes
UndoOperation
Index: 0
Type: 1
WasModified: 0
WasOrder2: 1
Width: 1094
VWidth: 2048
LBearingChange: 0
UnicodeEnc: 0
InstructionsLength: 0
SplineSet
964 92 m 1,0,1
 927 72 927 72 902.5 60.5 c 128,-1,2
 878 49 878 49 826.5 29.5 c 128,-1,3
 775 10 775 10 713.5 0 c 128,-1,4
 652 -10 652 -10 584 -10 c 0,5,6
 325 -10 325 -10 217.5 146.5 c 128,-1,7
 110 303 110 303 110 650 c 0,8,9
 110 995 110 995 232 1148 c 128,-1,10
 354 1301 354 1301 599 1301 c 0,11,12
 776 1301 776 1301 929 1226 c 1,13,-1
 929 984 l 1,14,-1
 820 984 l 1,15,-1
 820 1157 l 1,16,17
 734 1195 734 1195 610 1195 c 0,18,19
 538 1195 538 1195 484.5 1182 c 128,-1,20
 431 1169 431 1169 382 1134 c 128,-1,21
 333 1099 333 1099 302.5 1040 c 128,-1,22
 272 981 272 981 253.5 885 c 128,-1,23
 235 789 235 789 235 659 c 0,24,25
 235 355 235 355 313 225.5 c 128,-1,26
 391 96 391 96 590 96 c 0,27,28
 746 96 746 96 848 145 c 1,29,-1
 848 567 l 1,30,-1
 612 567 l 1,31,-1
 612 665 l 1,32,-1
 964 665 l 1,33,-1
 964 92 l 1,0,1
EndSplineSet
EndUndoOperation
UndoOperation
Index: 1
Type: 1
WasModified: 0
WasOrder2: 1
Width: 1094
VWidth: 2048
LBearingChange: 0
UnicodeEnc: 0
InstructionsLength: 0
SplineSet
964 92 m 1,0,1
 927 72 927 72 902.5 60.5 c 128,-1,2
 878 49 878 49 826.5 29.5 c 128,-1,3
 775 10 775 10 713.5 0 c 128,-1,4
 652 -10 652 -10 584 -10 c 0,5,6
 325 -10 325 -10 217.5 146.5 c 128,-1,7
 110 303 110 303 110 650 c 0,8,9
 110 995 110 995 232 1148 c 128,-1,10
 354 1301 354 1301 599 1301 c 0,11,12
 776 1301 776 1301 929 1226 c 1,13,-1
 929 984 l 1,14,-1
 820 984 l 1,15,-1
 820 1157 l 1,16,17
 734 1195 734 1195 610 1195 c 0,18,19
 538 1195 538 1195 484.5 1182 c 128,-1,20
 431 1169 431 1169 382 1134 c 128,-1,21
 333 1099 333 1099 302.5 1040 c 128,-1,22
 272 981 272 981 253.5 885 c 128,-1,23
 235 789 235 789 235 659 c 0,24,25
 235 355 235 355 313 225.5 c 128,-1,26
 391 96 391 96 590 96 c 0,27,28
 746 96 746 96 848 145 c 1,29,-1
 848 567 l 1,30,-1
 612 567 l 1,31,-1
 612 665 l 1,32,-1
 964 665 l 1,33,-1
 964 92 l 1,0,1
EndSplineSet
EndUndoOperation
UndoOperation
Index: 2
Type: 1
WasModified: 0
WasOrder2: 1
Width: 1094
VWidth: 2048
LBearingChange: 0
UnicodeEnc: 0
InstructionsLength: 0
SplineSet
964 92 m 1,0,1
 927 72 927 72 902.5 60.5 c 128,-1,2
 878 49 878 49 826.5 29.5 c 128,-1,3
 775 10 775 10 713.5 0 c 128,-1,4
 652 -10 652 -10 584 -10 c 0,5,6
 325 -10 325 -10 217.5 146.5 c 128,-1,7
 110 303 110 303 110 650 c 0,8,9
 110 995 110 995 232 1148 c 128,-1,10
 354 1301 354 1301 599 1301 c 0,11,12
 776 1301 776 1301 929 1226 c 1,13,-1
 929 984 l 1,14,-1
 820 984 l 1,15,-1
 820 1157 l 1,16,17
 734 1195 734 1195 610 1195 c 0,18,19
 538 1195 538 1195 484.5 1182 c 128,-1,20
 431 1169 431 1169 382 1134 c 128,-1,21
 333 1099 333 1099 302.5 1040 c 128,-1,22
 272 981 272 981 253.5 885 c 128,-1,23
 235 789 235 789 235 659 c 0,24,25
 235 355 235 355 313 225.5 c 128,-1,26
 391 96 391 96 590 96 c 0,27,28
 746 96 746 96 848 145 c 1,29,-1
 848 567 l 1,30,-1
 612 567 l 1,31,-1
 612 665 l 1,32,-1
 964 665 l 1,33,-1
 964 92 l 1,0,1
EndSplineSet
EndUndoOperation
EndUndoes
Redoes
EndRedoes
EndUndoRedoHistory
Fore
SplineSet
964 92 m 1,0,1
 927 72 927 72 902.5 60.5 c 128,-1,2
 878 49 878 49 826.5 29.5 c 128,-1,3
 775 10 775 10 713.5 0 c 128,-1,4
 652 -10 652 -10 584 -10 c 0,5,6
 325 -10 325 -10 217.5 146.5 c 128,-1,7
 110 303 110 303 110 650 c 0,8,9
 110 995 110 995 232 1148 c 128,-1,10
 354 1301 354 1301 599 1301 c 0,11,12
 776 1301 776 1301 929 1226 c 1,13,-1
 929 984 l 1,14,-1
 820 984 l 1,15,-1
 820 1157 l 1,16,17
 734 1195 734 1195 610 1195 c 0,18,19
 538 1195 538 1195 484.5 1182 c 128,-1,20
 431 1169 431 1169 382 1134 c 128,-1,21
 333 1099 333 1099 302.5 1040 c 128,-1,22
 272 981 272 981 253.5 885 c 128,-1,23
 235 789 235 789 235 659 c 0,24,25
 235 355 235 355 313 225.5 c 128,-1,26
 391 96 391 96 590 96 c 0,27,28
 746 96 746 96 848 145 c 1,29,-1
 848 567 l 1,30,-1
 612 567 l 1,31,-1
 612 665 l 1,32,-1
 964 665 l 1,33,-1
 964 92 l 1,0,1
EndSplineSet
EndChar

StartChar: H
Encoding: 72 72 25
Width: 1134
Flags: W
LayerCount: 2
UndoRedoHistory
Layer: 1
Undoes
UndoOperation
Index: 0
Type: 1
WasModified: 0
WasOrder2: 1
Width: 1134
VWidth: 2048
LBearingChange: 0
UnicodeEnc: 0
InstructionsLength: 0
SplineSet
857 1284 m 1,0,-1
 985 1284 l 1,1,-1
 985 0 l 1,2,-1
 857 0 l 1,3,-1
 857 602 l 1,4,-1
 277 602 l 1,5,-1
 277 0 l 1,6,-1
 149 0 l 1,7,-1
 149 1284 l 1,8,-1
 277 1284 l 1,9,-1
 277 703 l 1,10,-1
 857 703 l 1,11,-1
 857 1284 l 1,0,-1
EndSplineSet
EndUndoOperation
UndoOperation
Index: 1
Type: 1
WasModified: 0
WasOrder2: 1
Width: 1134
VWidth: 2048
LBearingChange: 0
UnicodeEnc: 0
InstructionsLength: 0
SplineSet
857 1284 m 1,0,-1
 985 1284 l 1,1,-1
 985 0 l 1,2,-1
 857 0 l 1,3,-1
 857 602 l 1,4,-1
 277 602 l 1,5,-1
 277 0 l 1,6,-1
 149 0 l 1,7,-1
 149 1284 l 1,8,-1
 277 1284 l 1,9,-1
 277 703 l 1,10,-1
 857 703 l 1,11,-1
 857 1284 l 1,0,-1
EndSplineSet
EndUndoOperation
UndoOperation
Index: 2
Type: 1
WasModified: 0
WasOrder2: 1
Width: 1134
VWidth: 2048
LBearingChange: 0
UnicodeEnc: 0
InstructionsLength: 0
SplineSet
857 1284 m 1,0,-1
 985 1284 l 1,1,-1
 985 0 l 1,2,-1
 857 0 l 1,3,-1
 857 602 l 1,4,-1
 277 602 l 1,5,-1
 277 0 l 1,6,-1
 149 0 l 1,7,-1
 149 1284 l 1,8,-1
 277 1284 l 1,9,-1
 277 703 l 1,10,-1
 857 703 l 1,11,-1
 857 1284 l 1,0,-1
EndSplineSet
EndUndoOperation
EndUndoes
Redoes
EndRedoes
EndUndoRedoHistory
Fore
SplineSet
857 1284 m 1,0,-1
 985 1284 l 1,1,-1
 985 0 l 1,2,-1
 857 0 l 1,3,-1
 857 602 l 1,4,-1
 277 602 l 1,5,-1
 277 0 l 1,6,-1
 149 0 l 1,7,-1
 149 1284 l 1,8,-1
 277 1284 l 1,9,-1
 277 703 l 1,10,-1
 857 703 l 1,11,-1
 857 1284 l 1,0,-1
EndSplineSet
EndChar

StartChar: I
Encoding: 73 73 26
Width: 730
Flags: W
LayerCount: 2
UndoRedoHistory
Layer: 1
Undoes
UndoOperation
Index: 0
Type: 1
WasModified: 0
WasOrder2: 1
Width: 730
VWidth: 2048
LBearingChange: 0
UnicodeEnc: 0
InstructionsLength: 0
SplineSet
432 1184 m 1,0,-1
 432 100 l 1,1,-1
 620 100 l 1,2,-1
 620 0 l 1,3,-1
 110 0 l 1,4,-1
 110 100 l 1,5,-1
 304 100 l 1,6,-1
 304 1184 l 1,7,-1
 110 1184 l 1,8,-1
 110 1284 l 1,9,-1
 616 1284 l 1,10,-1
 616 1184 l 1,11,-1
 432 1184 l 1,0,-1
EndSplineSet
EndUndoOperation
UndoOperation
Index: 1
Type: 1
WasModified: 0
WasOrder2: 1
Width: 730
VWidth: 2048
LBearingChange: 0
UnicodeEnc: 0
InstructionsLength: 0
SplineSet
432 1184 m 1,0,-1
 432 100 l 1,1,-1
 620 100 l 1,2,-1
 620 0 l 1,3,-1
 110 0 l 1,4,-1
 110 100 l 1,5,-1
 304 100 l 1,6,-1
 304 1184 l 1,7,-1
 110 1184 l 1,8,-1
 110 1284 l 1,9,-1
 616 1284 l 1,10,-1
 616 1184 l 1,11,-1
 432 1184 l 1,0,-1
EndSplineSet
EndUndoOperation
UndoOperation
Index: 2
Type: 1
WasModified: 0
WasOrder2: 1
Width: 730
VWidth: 2048
LBearingChange: 0
UnicodeEnc: 0
InstructionsLength: 0
SplineSet
432 1184 m 1,0,-1
 432 100 l 1,1,-1
 620 100 l 1,2,-1
 620 0 l 1,3,-1
 110 0 l 1,4,-1
 110 100 l 1,5,-1
 304 100 l 1,6,-1
 304 1184 l 1,7,-1
 110 1184 l 1,8,-1
 110 1284 l 1,9,-1
 616 1284 l 1,10,-1
 616 1184 l 1,11,-1
 432 1184 l 1,0,-1
EndSplineSet
EndUndoOperation
EndUndoes
Redoes
EndRedoes
EndUndoRedoHistory
Fore
SplineSet
432 1184 m 1,0,-1
 432 100 l 1,1,-1
 620 100 l 1,2,-1
 620 0 l 1,3,-1
 110 0 l 1,4,-1
 110 100 l 1,5,-1
 304 100 l 1,6,-1
 304 1184 l 1,7,-1
 110 1184 l 1,8,-1
 110 1284 l 1,9,-1
 616 1284 l 1,10,-1
 616 1184 l 1,11,-1
 432 1184 l 1,0,-1
EndSplineSet
EndChar

StartChar: J
Encoding: 74 74 31
Width: 643
Flags: W
LayerCount: 2
UndoRedoHistory
Layer: 1
Undoes
UndoOperation
Index: 0
Type: 1
WasModified: 0
WasOrder2: 1
Width: 643
VWidth: 2048
LBearingChange: 0
UnicodeEnc: 0
InstructionsLength: 0
SplineSet
494 1284 m 1,0,-1
 494 91 l 2,1,2
 494 -86 494 -86 426.5 -159 c 128,-1,3
 359 -232 359 -232 223 -232 c 0,4,5
 131 -232 131 -232 47 -200 c 1,6,-1
 62 -99 l 1,7,8
 141 -127 141 -127 214 -127 c 0,9,10
 298 -127 298 -127 332 -76.5 c 128,-1,11
 366 -26 366 -26 366 91 c 2,12,-1
 366 1184 l 1,13,-1
 105 1184 l 1,14,-1
 105 1284 l 1,15,-1
 494 1284 l 1,0,-1
EndSplineSet
EndUndoOperation
UndoOperation
Index: 1
Type: 1
WasModified: 0
WasOrder2: 1
Width: 643
VWidth: 2048
LBearingChange: 0
UnicodeEnc: 0
InstructionsLength: 0
SplineSet
494 1284 m 1,0,-1
 494 91 l 2,1,2
 494 -86 494 -86 426.5 -159 c 128,-1,3
 359 -232 359 -232 223 -232 c 0,4,5
 131 -232 131 -232 47 -200 c 1,6,-1
 62 -99 l 1,7,8
 141 -127 141 -127 214 -127 c 0,9,10
 298 -127 298 -127 332 -76.5 c 128,-1,11
 366 -26 366 -26 366 91 c 2,12,-1
 366 1184 l 1,13,-1
 105 1184 l 1,14,-1
 105 1284 l 1,15,-1
 494 1284 l 1,0,-1
EndSplineSet
EndUndoOperation
UndoOperation
Index: 2
Type: 1
WasModified: 0
WasOrder2: 1
Width: 643
VWidth: 2048
LBearingChange: 0
UnicodeEnc: 0
InstructionsLength: 0
SplineSet
494 1284 m 1,0,-1
 494 91 l 2,1,2
 494 -86 494 -86 426.5 -159 c 128,-1,3
 359 -232 359 -232 223 -232 c 0,4,5
 131 -232 131 -232 47 -200 c 1,6,-1
 62 -99 l 1,7,8
 141 -127 141 -127 214 -127 c 0,9,10
 298 -127 298 -127 332 -76.5 c 128,-1,11
 366 -26 366 -26 366 91 c 2,12,-1
 366 1184 l 1,13,-1
 105 1184 l 1,14,-1
 105 1284 l 1,15,-1
 494 1284 l 1,0,-1
EndSplineSet
EndUndoOperation
EndUndoes
Redoes
EndRedoes
EndUndoRedoHistory
Fore
SplineSet
494 1284 m 1,0,-1
 494 91 l 2,1,2
 494 -86 494 -86 426.5 -159 c 128,-1,3
 359 -232 359 -232 223 -232 c 0,4,5
 131 -232 131 -232 47 -200 c 1,6,-1
 62 -99 l 1,7,8
 141 -127 141 -127 214 -127 c 0,9,10
 298 -127 298 -127 332 -76.5 c 128,-1,11
 366 -26 366 -26 366 91 c 2,12,-1
 366 1184 l 1,13,-1
 105 1184 l 1,14,-1
 105 1284 l 1,15,-1
 494 1284 l 1,0,-1
EndSplineSet
EndChar

StartChar: K
Encoding: 75 75 32
Width: 1032
Flags: W
LayerCount: 2
UndoRedoHistory
Layer: 1
Undoes
UndoOperation
Index: 0
Type: 1
WasModified: 0
WasOrder2: 1
Width: 1032
VWidth: 2048
LBearingChange: 0
UnicodeEnc: 0
InstructionsLength: 0
SplineSet
277 0 m 1,0,-1
 149 0 l 1,1,-1
 149 1284 l 1,2,-1
 277 1284 l 1,3,-1
 277 609 l 1,4,-1
 432 778 l 1,5,-1
 825 1284 l 1,6,-1
 975 1284 l 1,7,-1
 550 721 l 1,8,-1
 1001 0 l 1,9,-1
 860 0 l 1,10,-1
 453 652 l 1,11,-1
 277 480 l 1,12,-1
 277 0 l 1,0,-1
EndSplineSet
EndUndoOperation
UndoOperation
Index: 1
Type: 1
WasModified: 0
WasOrder2: 1
Width: 1032
VWidth: 2048
LBearingChange: 0
UnicodeEnc: 0
InstructionsLength: 0
SplineSet
277 0 m 1,0,-1
 149 0 l 1,1,-1
 149 1284 l 1,2,-1
 277 1284 l 1,3,-1
 277 609 l 1,4,-1
 432 778 l 1,5,-1
 825 1284 l 1,6,-1
 975 1284 l 1,7,-1
 550 721 l 1,8,-1
 1001 0 l 1,9,-1
 860 0 l 1,10,-1
 453 652 l 1,11,-1
 277 480 l 1,12,-1
 277 0 l 1,0,-1
EndSplineSet
EndUndoOperation
UndoOperation
Index: 2
Type: 1
WasModified: 0
WasOrder2: 1
Width: 1032
VWidth: 2048
LBearingChange: 0
UnicodeEnc: 0
InstructionsLength: 0
SplineSet
277 0 m 1,0,-1
 149 0 l 1,1,-1
 149 1284 l 1,2,-1
 277 1284 l 1,3,-1
 277 609 l 1,4,-1
 432 778 l 1,5,-1
 825 1284 l 1,6,-1
 975 1284 l 1,7,-1
 550 721 l 1,8,-1
 1001 0 l 1,9,-1
 860 0 l 1,10,-1
 453 652 l 1,11,-1
 277 480 l 1,12,-1
 277 0 l 1,0,-1
EndSplineSet
EndUndoOperation
EndUndoes
Redoes
EndRedoes
EndUndoRedoHistory
Fore
SplineSet
277 0 m 1,0,-1
 149 0 l 1,1,-1
 149 1284 l 1,2,-1
 277 1284 l 1,3,-1
 277 609 l 1,4,-1
 432 778 l 1,5,-1
 825 1284 l 1,6,-1
 975 1284 l 1,7,-1
 550 721 l 1,8,-1
 1001 0 l 1,9,-1
 860 0 l 1,10,-1
 453 652 l 1,11,-1
 277 480 l 1,12,-1
 277 0 l 1,0,-1
EndSplineSet
EndChar

StartChar: L
Encoding: 76 76 33
Width: 825
Flags: W
LayerCount: 2
UndoRedoHistory
Layer: 1
Undoes
UndoOperation
Index: 0
Type: 1
WasModified: 0
WasOrder2: 1
Width: 825
VWidth: 2048
LBearingChange: 0
UnicodeEnc: 0
InstructionsLength: 0
SplineSet
277 1284 m 1,0,-1
 277 100 l 1,1,-1
 769 100 l 1,2,-1
 786 0 l 1,3,-1
 149 0 l 1,4,-1
 149 1284 l 1,5,-1
 277 1284 l 1,0,-1
EndSplineSet
EndUndoOperation
UndoOperation
Index: 1
Type: 1
WasModified: 0
WasOrder2: 1
Width: 825
VWidth: 2048
LBearingChange: 0
UnicodeEnc: 0
InstructionsLength: 0
SplineSet
277 1284 m 1,0,-1
 277 100 l 1,1,-1
 769 100 l 1,2,-1
 786 0 l 1,3,-1
 149 0 l 1,4,-1
 149 1284 l 1,5,-1
 277 1284 l 1,0,-1
EndSplineSet
EndUndoOperation
UndoOperation
Index: 2
Type: 1
WasModified: 0
WasOrder2: 1
Width: 825
VWidth: 2048
LBearingChange: 0
UnicodeEnc: 0
InstructionsLength: 0
SplineSet
277 1284 m 1,0,-1
 277 100 l 1,1,-1
 769 100 l 1,2,-1
 786 0 l 1,3,-1
 149 0 l 1,4,-1
 149 1284 l 1,5,-1
 277 1284 l 1,0,-1
EndSplineSet
EndUndoOperation
EndUndoes
Redoes
EndRedoes
EndUndoRedoHistory
Fore
SplineSet
277 1284 m 1,0,-1
 277 100 l 1,1,-1
 769 100 l 1,2,-1
 786 0 l 1,3,-1
 149 0 l 1,4,-1
 149 1284 l 1,5,-1
 277 1284 l 1,0,-1
EndSplineSet
EndChar

StartChar: M
Encoding: 77 77 34
Width: 1362
Flags: W
LayerCount: 2
UndoRedoHistory
Layer: 1
Undoes
UndoOperation
Index: 0
Type: 1
WasModified: 0
WasOrder2: 1
Width: 1362
VWidth: 2048
LBearingChange: 0
UnicodeEnc: 0
InstructionsLength: 0
SplineSet
1012 1099 m 1,0,-1
 739 438 l 1,1,-1
 624 438 l 1,2,-1
 341 1101 l 1,3,-1
 255 0 l 1,4,-1
 137 0 l 1,5,-1
 237 1284 l 1,6,-1
 379 1284 l 1,7,-1
 681 582 l 1,8,-1
 975 1284 l 1,9,-1
 1116 1284 l 1,10,-1
 1225 0 l 1,11,-1
 1107 0 l 1,12,-1
 1012 1099 l 1,0,-1
EndSplineSet
EndUndoOperation
UndoOperation
Index: 1
Type: 1
WasModified: 0
WasOrder2: 1
Width: 1362
VWidth: 2048
LBearingChange: 0
UnicodeEnc: 0
InstructionsLength: 0
SplineSet
1012 1099 m 1,0,-1
 739 438 l 1,1,-1
 624 438 l 1,2,-1
 341 1101 l 1,3,-1
 255 0 l 1,4,-1
 137 0 l 1,5,-1
 237 1284 l 1,6,-1
 379 1284 l 1,7,-1
 681 582 l 1,8,-1
 975 1284 l 1,9,-1
 1116 1284 l 1,10,-1
 1225 0 l 1,11,-1
 1107 0 l 1,12,-1
 1012 1099 l 1,0,-1
EndSplineSet
EndUndoOperation
UndoOperation
Index: 2
Type: 1
WasModified: 0
WasOrder2: 1
Width: 1362
VWidth: 2048
LBearingChange: 0
UnicodeEnc: 0
InstructionsLength: 0
SplineSet
1012 1099 m 1,0,-1
 739 438 l 1,1,-1
 624 438 l 1,2,-1
 341 1101 l 1,3,-1
 255 0 l 1,4,-1
 137 0 l 1,5,-1
 237 1284 l 1,6,-1
 379 1284 l 1,7,-1
 681 582 l 1,8,-1
 975 1284 l 1,9,-1
 1116 1284 l 1,10,-1
 1225 0 l 1,11,-1
 1107 0 l 1,12,-1
 1012 1099 l 1,0,-1
EndSplineSet
EndUndoOperation
EndUndoes
Redoes
EndRedoes
EndUndoRedoHistory
Fore
SplineSet
1012 1099 m 1,0,-1
 739 438 l 1,1,-1
 624 438 l 1,2,-1
 341 1101 l 1,3,-1
 255 0 l 1,4,-1
 137 0 l 1,5,-1
 237 1284 l 1,6,-1
 379 1284 l 1,7,-1
 681 582 l 1,8,-1
 975 1284 l 1,9,-1
 1116 1284 l 1,10,-1
 1225 0 l 1,11,-1
 1107 0 l 1,12,-1
 1012 1099 l 1,0,-1
EndSplineSet
EndChar

StartChar: N
Encoding: 78 78 35
Width: 1193
Flags: W
LayerCount: 2
UndoRedoHistory
Layer: 1
Undoes
UndoOperation
Index: 0
Type: 1
WasModified: 0
WasOrder2: 1
Width: 1193
VWidth: 2048
LBearingChange: 0
UnicodeEnc: 0
InstructionsLength: 0
SplineSet
928 1284 m 1,0,-1
 1044 1284 l 1,1,-1
 1044 0 l 1,2,-1
 918 0 l 1,3,-1
 271 1081 l 1,4,-1
 271 0 l 1,5,-1
 149 0 l 1,6,-1
 149 1284 l 1,7,-1
 285 1284 l 1,8,-1
 928 219 l 1,9,-1
 928 1284 l 1,0,-1
EndSplineSet
EndUndoOperation
UndoOperation
Index: 1
Type: 1
WasModified: 0
WasOrder2: 1
Width: 1193
VWidth: 2048
LBearingChange: 0
UnicodeEnc: 0
InstructionsLength: 0
SplineSet
928 1284 m 1,0,-1
 1044 1284 l 1,1,-1
 1044 0 l 1,2,-1
 918 0 l 1,3,-1
 271 1081 l 1,4,-1
 271 0 l 1,5,-1
 149 0 l 1,6,-1
 149 1284 l 1,7,-1
 285 1284 l 1,8,-1
 928 219 l 1,9,-1
 928 1284 l 1,0,-1
EndSplineSet
EndUndoOperation
UndoOperation
Index: 2
Type: 1
WasModified: 0
WasOrder2: 1
Width: 1193
VWidth: 2048
LBearingChange: 0
UnicodeEnc: 0
InstructionsLength: 0
SplineSet
928 1284 m 1,0,-1
 1044 1284 l 1,1,-1
 1044 0 l 1,2,-1
 918 0 l 1,3,-1
 271 1081 l 1,4,-1
 271 0 l 1,5,-1
 149 0 l 1,6,-1
 149 1284 l 1,7,-1
 285 1284 l 1,8,-1
 928 219 l 1,9,-1
 928 1284 l 1,0,-1
EndSplineSet
EndUndoOperation
EndUndoes
Redoes
EndRedoes
EndUndoRedoHistory
Fore
SplineSet
928 1284 m 1,0,-1
 1044 1284 l 1,1,-1
 1044 0 l 1,2,-1
 918 0 l 1,3,-1
 271 1081 l 1,4,-1
 271 0 l 1,5,-1
 149 0 l 1,6,-1
 149 1284 l 1,7,-1
 285 1284 l 1,8,-1
 928 219 l 1,9,-1
 928 1284 l 1,0,-1
EndSplineSet
EndChar

StartChar: O
Encoding: 79 79 37
Width: 1128
Flags: W
LayerCount: 2
UndoRedoHistory
Layer: 1
Undoes
UndoOperation
Index: 0
Type: 1
WasModified: 0
WasOrder2: 1
Width: 1128
VWidth: 2048
LBearingChange: 0
UnicodeEnc: 0
InstructionsLength: 0
SplineSet
564 1301 m 128,-1,1
 667 1301 667 1301 744.5 1272.5 c 128,-1,2
 822 1244 822 1244 873 1192 c 128,-1,3
 924 1140 924 1140 955 1057.5 c 128,-1,4
 986 975 986 975 999 876.5 c 128,-1,5
 1012 778 1012 778 1012 648 c 0,6,7
 1012 517 1012 517 1000 419 c 128,-1,8
 988 321 988 321 958 237.5 c 128,-1,9
 928 154 928 154 877.5 101.5 c 128,-1,10
 827 49 827 49 749 19.5 c 128,-1,11
 671 -10 671 -10 564 -10 c 128,-1,12
 457 -10 457 -10 379 19.5 c 128,-1,13
 301 49 301 49 250.5 101.5 c 128,-1,14
 200 154 200 154 170 237.5 c 128,-1,15
 140 321 140 321 128 419 c 128,-1,16
 116 517 116 517 116 648 c 0,17,18
 116 778 116 778 129 876.5 c 128,-1,19
 142 975 142 975 173 1057.5 c 128,-1,20
 204 1140 204 1140 255 1192 c 128,-1,21
 306 1244 306 1244 383.5 1272.5 c 128,-1,0
 461 1301 461 1301 564 1301 c 128,-1,1
564 96 m 128,-1,23
 746 96 746 96 815 222.5 c 128,-1,24
 884 349 884 349 884 645 c 0,25,26
 884 942 884 942 814.5 1068.5 c 128,-1,27
 745 1195 745 1195 564 1195 c 128,-1,28
 383 1195 383 1195 313.5 1068.5 c 128,-1,29
 244 942 244 942 244 645 c 0,30,31
 244 349 244 349 313 222.5 c 128,-1,22
 382 96 382 96 564 96 c 128,-1,23
EndSplineSet
EndUndoOperation
UndoOperation
Index: 1
Type: 1
WasModified: 0
WasOrder2: 1
Width: 1128
VWidth: 2048
LBearingChange: 0
UnicodeEnc: 0
InstructionsLength: 0
SplineSet
564 96 m 128,-1,1
 746 96 746 96 815 222.5 c 128,-1,2
 884 349 884 349 884 645 c 0,3,4
 884 942 884 942 814.5 1068.5 c 128,-1,5
 745 1195 745 1195 564 1195 c 128,-1,6
 383 1195 383 1195 313.5 1068.5 c 128,-1,7
 244 942 244 942 244 645 c 0,8,9
 244 349 244 349 313 222.5 c 128,-1,0
 382 96 382 96 564 96 c 128,-1,1
564 1301 m 128,-1,11
 667 1301 667 1301 744.5 1272.5 c 128,-1,12
 822 1244 822 1244 873 1192 c 128,-1,13
 924 1140 924 1140 955 1057.5 c 128,-1,14
 986 975 986 975 999 876.5 c 128,-1,15
 1012 778 1012 778 1012 648 c 0,16,17
 1012 517 1012 517 1000 419 c 128,-1,18
 988 321 988 321 958 237.5 c 128,-1,19
 928 154 928 154 877.5 101.5 c 128,-1,20
 827 49 827 49 749 19.5 c 128,-1,21
 671 -10 671 -10 564 -10 c 128,-1,22
 457 -10 457 -10 379 19.5 c 128,-1,23
 301 49 301 49 250.5 101.5 c 128,-1,24
 200 154 200 154 170 237.5 c 128,-1,25
 140 321 140 321 128 419 c 128,-1,26
 116 517 116 517 116 648 c 0,27,28
 116 778 116 778 129 876.5 c 128,-1,29
 142 975 142 975 173 1057.5 c 128,-1,30
 204 1140 204 1140 255 1192 c 128,-1,31
 306 1244 306 1244 383.5 1272.5 c 128,-1,10
 461 1301 461 1301 564 1301 c 128,-1,11
EndSplineSet
EndUndoOperation
UndoOperation
Index: 2
Type: 1
WasModified: 0
WasOrder2: 1
Width: 1128
VWidth: 2048
LBearingChange: 0
UnicodeEnc: 0
InstructionsLength: 0
SplineSet
564 96 m 128,-1,1
 746 96 746 96 815 222.5 c 128,-1,2
 884 349 884 349 884 645 c 0,3,4
 884 942 884 942 814.5 1068.5 c 128,-1,5
 745 1195 745 1195 564 1195 c 128,-1,6
 383 1195 383 1195 313.5 1068.5 c 128,-1,7
 244 942 244 942 244 645 c 0,8,9
 244 349 244 349 313 222.5 c 128,-1,0
 382 96 382 96 564 96 c 128,-1,1
564 1301 m 128,-1,11
 667 1301 667 1301 744.5 1272.5 c 128,-1,12
 822 1244 822 1244 873 1192 c 128,-1,13
 924 1140 924 1140 955 1057.5 c 128,-1,14
 986 975 986 975 999 876.5 c 128,-1,15
 1012 778 1012 778 1012 648 c 0,16,17
 1012 517 1012 517 1000 419 c 128,-1,18
 988 321 988 321 958 237.5 c 128,-1,19
 928 154 928 154 877.5 101.5 c 128,-1,20
 827 49 827 49 749 19.5 c 128,-1,21
 671 -10 671 -10 564 -10 c 128,-1,22
 457 -10 457 -10 379 19.5 c 128,-1,23
 301 49 301 49 250.5 101.5 c 128,-1,24
 200 154 200 154 170 237.5 c 128,-1,25
 140 321 140 321 128 419 c 128,-1,26
 116 517 116 517 116 648 c 0,27,28
 116 778 116 778 129 876.5 c 128,-1,29
 142 975 142 975 173 1057.5 c 128,-1,30
 204 1140 204 1140 255 1192 c 128,-1,31
 306 1244 306 1244 383.5 1272.5 c 128,-1,10
 461 1301 461 1301 564 1301 c 128,-1,11
EndSplineSet
EndUndoOperation
EndUndoes
Redoes
EndRedoes
EndUndoRedoHistory
Fore
SplineSet
564 1301 m 128,-1,1
 667 1301 667 1301 744.5 1272.5 c 128,-1,2
 822 1244 822 1244 873 1192 c 128,-1,3
 924 1140 924 1140 955 1057.5 c 128,-1,4
 986 975 986 975 999 876.5 c 128,-1,5
 1012 778 1012 778 1012 648 c 0,6,7
 1012 517 1012 517 1000 419 c 128,-1,8
 988 321 988 321 958 237.5 c 128,-1,9
 928 154 928 154 877.5 101.5 c 128,-1,10
 827 49 827 49 749 19.5 c 128,-1,11
 671 -10 671 -10 564 -10 c 128,-1,12
 457 -10 457 -10 379 19.5 c 128,-1,13
 301 49 301 49 250.5 101.5 c 128,-1,14
 200 154 200 154 170 237.5 c 128,-1,15
 140 321 140 321 128 419 c 128,-1,16
 116 517 116 517 116 648 c 0,17,18
 116 778 116 778 129 876.5 c 128,-1,19
 142 975 142 975 173 1057.5 c 128,-1,20
 204 1140 204 1140 255 1192 c 128,-1,21
 306 1244 306 1244 383.5 1272.5 c 128,-1,0
 461 1301 461 1301 564 1301 c 128,-1,1
564 96 m 128,-1,23
 746 96 746 96 815 222.5 c 128,-1,24
 884 349 884 349 884 645 c 0,25,26
 884 942 884 942 814.5 1068.5 c 128,-1,27
 745 1195 745 1195 564 1195 c 128,-1,28
 383 1195 383 1195 313.5 1068.5 c 128,-1,29
 244 942 244 942 244 645 c 0,30,31
 244 349 244 349 313 222.5 c 128,-1,22
 382 96 382 96 564 96 c 128,-1,23
EndSplineSet
EndChar

StartChar: OE
Encoding: 338 338 38
Width: 1656
Flags: W
LayerCount: 2
UndoRedoHistory
Layer: 1
Undoes
UndoOperation
Index: 0
Type: 1
WasModified: 0
WasOrder2: 1
Width: 1656
VWidth: 2048
LBearingChange: 0
UnicodeEnc: 0
InstructionsLength: 0
SplineSet
1012 626 m 1,0,-1
 1012 104 l 1,1,-1
 1557 104 l 1,2,-1
 1573 0 l 1,3,-1
 564 0 l 2,4,5
 457 0 457 0 379 28 c 128,-1,6
 301 56 301 56 250.5 107.5 c 128,-1,7
 200 159 200 159 170 241 c 128,-1,8
 140 323 140 323 128 420 c 128,-1,9
 116 517 116 517 116 648 c 0,10,11
 116 778 116 778 129 875 c 128,-1,12
 142 972 142 972 173 1051.5 c 128,-1,13
 204 1131 204 1131 255.5 1181 c 128,-1,14
 307 1231 307 1231 383.5 1257.5 c 128,-1,15
 460 1284 460 1284 564 1284 c 2,16,-1
 1569 1284 l 1,17,-1
 1547 1184 l 1,18,-1
 1012 1184 l 1,19,-1
 1012 722 l 1,20,-1
 1513 722 l 1,21,-1
 1513 626 l 1,22,-1
 1012 626 l 1,0,-1
885 1185 m 1,23,-1
 564 1184 l 2,24,25
 382 1184 382 1184 313 1062 c 128,-1,26
 244 940 244 940 244 645 c 0,27,28
 244 351 244 351 312.5 227.5 c 128,-1,29
 381 104 381 104 564 104 c 2,30,-1
 884 105 l 1,31,-1
 885 1185 l 1,23,-1
EndSplineSet
EndUndoOperation
UndoOperation
Index: 1
Type: 1
WasModified: 0
WasOrder2: 1
Width: 1656
VWidth: 2048
LBearingChange: 0
UnicodeEnc: 0
InstructionsLength: 0
SplineSet
885 1185 m 1,0,-1
 564 1184 l 2,1,2
 382 1184 382 1184 313 1062 c 128,-1,3
 244 940 244 940 244 645 c 0,4,5
 244 351 244 351 312.5 227.5 c 128,-1,6
 381 104 381 104 564 104 c 2,7,-1
 884 105 l 1,8,-1
 885 1185 l 1,0,-1
1012 626 m 1,9,-1
 1012 104 l 1,10,-1
 1557 104 l 1,11,-1
 1573 0 l 1,12,-1
 564 0 l 2,13,14
 457 0 457 0 379 28 c 128,-1,15
 301 56 301 56 250.5 107.5 c 128,-1,16
 200 159 200 159 170 241 c 128,-1,17
 140 323 140 323 128 420 c 128,-1,18
 116 517 116 517 116 648 c 0,19,20
 116 778 116 778 129 875 c 128,-1,21
 142 972 142 972 173 1051.5 c 128,-1,22
 204 1131 204 1131 255.5 1181 c 128,-1,23
 307 1231 307 1231 383.5 1257.5 c 128,-1,24
 460 1284 460 1284 564 1284 c 2,25,-1
 1569 1284 l 1,26,-1
 1547 1184 l 1,27,-1
 1012 1184 l 1,28,-1
 1012 722 l 1,29,-1
 1513 722 l 1,30,-1
 1513 626 l 1,31,-1
 1012 626 l 1,9,-1
EndSplineSet
EndUndoOperation
UndoOperation
Index: 2
Type: 1
WasModified: 0
WasOrder2: 1
Width: 1656
VWidth: 2048
LBearingChange: 0
UnicodeEnc: 0
InstructionsLength: 0
SplineSet
885 1185 m 1,0,-1
 564 1184 l 2,1,2
 382 1184 382 1184 313 1062 c 128,-1,3
 244 940 244 940 244 645 c 0,4,5
 244 351 244 351 312.5 227.5 c 128,-1,6
 381 104 381 104 564 104 c 2,7,-1
 884 105 l 1,8,-1
 885 1185 l 1,0,-1
1012 626 m 1,9,-1
 1012 104 l 1,10,-1
 1557 104 l 1,11,-1
 1573 0 l 1,12,-1
 564 0 l 2,13,14
 457 0 457 0 379 28 c 128,-1,15
 301 56 301 56 250.5 107.5 c 128,-1,16
 200 159 200 159 170 241 c 128,-1,17
 140 323 140 323 128 420 c 128,-1,18
 116 517 116 517 116 648 c 0,19,20
 116 778 116 778 129 875 c 128,-1,21
 142 972 142 972 173 1051.5 c 128,-1,22
 204 1131 204 1131 255.5 1181 c 128,-1,23
 307 1231 307 1231 383.5 1257.5 c 128,-1,24
 460 1284 460 1284 564 1284 c 2,25,-1
 1569 1284 l 1,26,-1
 1547 1184 l 1,27,-1
 1012 1184 l 1,28,-1
 1012 722 l 1,29,-1
 1513 722 l 1,30,-1
 1513 626 l 1,31,-1
 1012 626 l 1,9,-1
EndSplineSet
EndUndoOperation
EndUndoes
Redoes
EndRedoes
EndUndoRedoHistory
Fore
SplineSet
1012 626 m 1,0,-1
 1012 104 l 1,1,-1
 1557 104 l 1,2,-1
 1573 0 l 1,3,-1
 564 0 l 2,4,5
 457 0 457 0 379 28 c 128,-1,6
 301 56 301 56 250.5 107.5 c 128,-1,7
 200 159 200 159 170 241 c 128,-1,8
 140 323 140 323 128 420 c 128,-1,9
 116 517 116 517 116 648 c 0,10,11
 116 778 116 778 129 875 c 128,-1,12
 142 972 142 972 173 1051.5 c 128,-1,13
 204 1131 204 1131 255.5 1181 c 128,-1,14
 307 1231 307 1231 383.5 1257.5 c 128,-1,15
 460 1284 460 1284 564 1284 c 2,16,-1
 1569 1284 l 1,17,-1
 1547 1184 l 1,18,-1
 1012 1184 l 1,19,-1
 1012 722 l 1,20,-1
 1513 722 l 1,21,-1
 1513 626 l 1,22,-1
 1012 626 l 1,0,-1
885 1185 m 1,23,-1
 564 1184 l 2,24,25
 382 1184 382 1184 313 1062 c 128,-1,26
 244 940 244 940 244 645 c 0,27,28
 244 351 244 351 312.5 227.5 c 128,-1,29
 381 104 381 104 564 104 c 2,30,-1
 884 105 l 1,31,-1
 885 1185 l 1,23,-1
EndSplineSet
EndChar

StartChar: uni03A9
Encoding: 937 937 43
Width: 1055
Flags: W
LayerCount: 2
UndoRedoHistory
Layer: 1
Undoes
UndoOperation
Index: 0
Type: 1
WasModified: 0
WasOrder2: 1
Width: 1055
VWidth: 2048
LBearingChange: 0
UnicodeEnc: 0
InstructionsLength: 0
SplineSet
804 660 m 1,0,1
 804 760 804 760 800.5 831 c 128,-1,2
 797 902 797 902 787 973.5 c 128,-1,3
 777 1045 777 1045 757.5 1091.5 c 128,-1,4
 738 1138 738 1138 707.5 1176.5 c 128,-1,5
 677 1215 677 1215 632 1234 c 128,-1,6
 587 1253 587 1253 526 1256 c 1,7,8
 443 1253 443 1253 386 1214.5 c 128,-1,9
 329 1176 329 1176 299.5 1105 c 128,-1,10
 270 1034 270 1034 258 952.5 c 128,-1,11
 246 871 246 871 246 763 c 1,12,-1
 251 570 l 1,13,14
 289 174 289 174 473 103 c 1,15,-1
 473 1 l 1,16,-1
 165 1 l 1,17,-1
 165 93 l 1,18,-1
 336 93 l 1,19,-1
 336 103 l 1,20,21
 231 182 231 182 185 319.5 c 128,-1,22
 139 457 139 457 139 675 c 0,23,24
 139 782 139 782 145 864.5 c 128,-1,25
 151 947 151 947 165.5 1029 c 128,-1,26
 180 1111 180 1111 208 1168.5 c 128,-1,27
 236 1226 236 1226 278 1272 c 128,-1,28
 320 1318 320 1318 382.5 1340.5 c 128,-1,29
 445 1363 445 1363 526 1363 c 0,30,31
 620 1363 620 1363 689 1330 c 128,-1,32
 758 1297 758 1297 800.5 1242 c 128,-1,33
 843 1187 843 1187 868.5 1101 c 128,-1,34
 894 1015 894 1015 903.5 922.5 c 128,-1,35
 913 830 913 830 913 710 c 0,36,37
 913 469 913 469 868.5 326.5 c 128,-1,38
 824 184 824 184 716 102 c 1,39,-1
 899 102 l 1,40,-1
 899 0 l 1,41,-1
 580 0 l 1,42,-1
 580 102 l 1,43,44
 638 122 638 122 682.5 177.5 c 128,-1,45
 727 233 727 233 753 310 c 128,-1,46
 779 387 779 387 792 475.5 c 128,-1,47
 805 564 805 564 805 659 c 1,48,-1
 804 660 l 1,0,1
EndSplineSet
EndUndoOperation
UndoOperation
Index: 1
Type: 1
WasModified: 0
WasOrder2: 1
Width: 1055
VWidth: 2048
LBearingChange: 0
UnicodeEnc: 0
InstructionsLength: 0
SplineSet
804 660 m 1,0,1
 804 760 804 760 800.5 831 c 128,-1,2
 797 902 797 902 787 973.5 c 128,-1,3
 777 1045 777 1045 757.5 1091.5 c 128,-1,4
 738 1138 738 1138 707.5 1176.5 c 128,-1,5
 677 1215 677 1215 632 1234 c 128,-1,6
 587 1253 587 1253 526 1256 c 1,7,8
 443 1253 443 1253 386 1214.5 c 128,-1,9
 329 1176 329 1176 299.5 1105 c 128,-1,10
 270 1034 270 1034 258 952.5 c 128,-1,11
 246 871 246 871 246 763 c 1,12,-1
 251 570 l 1,13,14
 289 174 289 174 473 103 c 1,15,-1
 473 1 l 1,16,-1
 165 1 l 1,17,-1
 165 93 l 1,18,-1
 336 93 l 1,19,-1
 336 103 l 1,20,21
 231 182 231 182 185 319.5 c 128,-1,22
 139 457 139 457 139 675 c 0,23,24
 139 782 139 782 145 864.5 c 128,-1,25
 151 947 151 947 165.5 1029 c 128,-1,26
 180 1111 180 1111 208 1168.5 c 128,-1,27
 236 1226 236 1226 278 1272 c 128,-1,28
 320 1318 320 1318 382.5 1340.5 c 128,-1,29
 445 1363 445 1363 526 1363 c 0,30,31
 620 1363 620 1363 689 1330 c 128,-1,32
 758 1297 758 1297 800.5 1242 c 128,-1,33
 843 1187 843 1187 868.5 1101 c 128,-1,34
 894 1015 894 1015 903.5 922.5 c 128,-1,35
 913 830 913 830 913 710 c 0,36,37
 913 469 913 469 868.5 326.5 c 128,-1,38
 824 184 824 184 716 102 c 1,39,-1
 899 102 l 1,40,-1
 899 0 l 1,41,-1
 580 0 l 1,42,-1
 580 102 l 1,43,44
 638 122 638 122 682.5 177.5 c 128,-1,45
 727 233 727 233 753 310 c 128,-1,46
 779 387 779 387 792 475.5 c 128,-1,47
 805 564 805 564 805 659 c 1,48,-1
 804 660 l 1,0,1
EndSplineSet
EndUndoOperation
UndoOperation
Index: 2
Type: 1
WasModified: 0
WasOrder2: 1
Width: 1055
VWidth: 2048
LBearingChange: 0
UnicodeEnc: 0
InstructionsLength: 0
SplineSet
804 660 m 1,0,1
 804 760 804 760 800.5 831 c 128,-1,2
 797 902 797 902 787 973.5 c 128,-1,3
 777 1045 777 1045 757.5 1091.5 c 128,-1,4
 738 1138 738 1138 707.5 1176.5 c 128,-1,5
 677 1215 677 1215 632 1234 c 128,-1,6
 587 1253 587 1253 526 1256 c 1,7,8
 443 1253 443 1253 386 1214.5 c 128,-1,9
 329 1176 329 1176 299.5 1105 c 128,-1,10
 270 1034 270 1034 258 952.5 c 128,-1,11
 246 871 246 871 246 763 c 1,12,-1
 251 570 l 1,13,14
 289 174 289 174 473 103 c 1,15,-1
 473 1 l 1,16,-1
 165 1 l 1,17,-1
 165 93 l 1,18,-1
 336 93 l 1,19,-1
 336 103 l 1,20,21
 231 182 231 182 185 319.5 c 128,-1,22
 139 457 139 457 139 675 c 0,23,24
 139 782 139 782 145 864.5 c 128,-1,25
 151 947 151 947 165.5 1029 c 128,-1,26
 180 1111 180 1111 208 1168.5 c 128,-1,27
 236 1226 236 1226 278 1272 c 128,-1,28
 320 1318 320 1318 382.5 1340.5 c 128,-1,29
 445 1363 445 1363 526 1363 c 0,30,31
 620 1363 620 1363 689 1330 c 128,-1,32
 758 1297 758 1297 800.5 1242 c 128,-1,33
 843 1187 843 1187 868.5 1101 c 128,-1,34
 894 1015 894 1015 903.5 922.5 c 128,-1,35
 913 830 913 830 913 710 c 0,36,37
 913 469 913 469 868.5 326.5 c 128,-1,38
 824 184 824 184 716 102 c 1,39,-1
 899 102 l 1,40,-1
 899 0 l 1,41,-1
 580 0 l 1,42,-1
 580 102 l 1,43,44
 638 122 638 122 682.5 177.5 c 128,-1,45
 727 233 727 233 753 310 c 128,-1,46
 779 387 779 387 792 475.5 c 128,-1,47
 805 564 805 564 805 659 c 1,48,-1
 804 660 l 1,0,1
EndSplineSet
EndUndoOperation
EndUndoes
Redoes
EndRedoes
EndUndoRedoHistory
Fore
SplineSet
804 660 m 1,0,1
 804 760 804 760 800.5 831 c 128,-1,2
 797 902 797 902 787 973.5 c 128,-1,3
 777 1045 777 1045 757.5 1091.5 c 128,-1,4
 738 1138 738 1138 707.5 1176.5 c 128,-1,5
 677 1215 677 1215 632 1234 c 128,-1,6
 587 1253 587 1253 526 1256 c 1,7,8
 443 1253 443 1253 386 1214.5 c 128,-1,9
 329 1176 329 1176 299.5 1105 c 128,-1,10
 270 1034 270 1034 258 952.5 c 128,-1,11
 246 871 246 871 246 763 c 1,12,-1
 251 570 l 1,13,14
 289 174 289 174 473 103 c 1,15,-1
 473 1 l 1,16,-1
 165 1 l 1,17,-1
 165 93 l 1,18,-1
 336 93 l 1,19,-1
 336 103 l 1,20,21
 231 182 231 182 185 319.5 c 128,-1,22
 139 457 139 457 139 675 c 0,23,24
 139 782 139 782 145 864.5 c 128,-1,25
 151 947 151 947 165.5 1029 c 128,-1,26
 180 1111 180 1111 208 1168.5 c 128,-1,27
 236 1226 236 1226 278 1272 c 128,-1,28
 320 1318 320 1318 382.5 1340.5 c 128,-1,29
 445 1363 445 1363 526 1363 c 0,30,31
 620 1363 620 1363 689 1330 c 128,-1,32
 758 1297 758 1297 800.5 1242 c 128,-1,33
 843 1187 843 1187 868.5 1101 c 128,-1,34
 894 1015 894 1015 903.5 922.5 c 128,-1,35
 913 830 913 830 913 710 c 0,36,37
 913 469 913 469 868.5 326.5 c 128,-1,38
 824 184 824 184 716 102 c 1,39,-1
 899 102 l 1,40,-1
 899 0 l 1,41,-1
 580 0 l 1,42,-1
 580 102 l 1,43,44
 638 122 638 122 682.5 177.5 c 128,-1,45
 727 233 727 233 753 310 c 128,-1,46
 779 387 779 387 792 475.5 c 128,-1,47
 805 564 805 564 805 659 c 1,48,-1
 804 660 l 1,0,1
EndSplineSet
EndChar

StartChar: P
Encoding: 80 80 46
Width: 981
Flags: W
LayerCount: 2
UndoRedoHistory
Layer: 1
Undoes
UndoOperation
Index: 0
Type: 1
WasModified: 0
WasOrder2: 1
Width: 981
VWidth: 2048
LBearingChange: 0
UnicodeEnc: 0
InstructionsLength: 0
SplineSet
277 640 m 1,0,-1
 361 640 l 2,1,2
 466 640 466 640 519 643 c 128,-1,3
 572 646 572 646 634.5 659 c 128,-1,4
 697 672 697 672 724 700 c 128,-1,5
 751 728 751 728 770 777.5 c 128,-1,6
 789 827 789 827 789 903 c 0,7,8
 789 1064 789 1064 722 1124 c 128,-1,9
 655 1184 655 1184 506 1184 c 2,10,-1
 277 1184 l 1,11,-1
 277 640 l 1,0,-1
498 1284 m 2,12,13
 600 1284 600 1284 673.5 1266 c 128,-1,14
 747 1248 747 1248 803.5 1205.5 c 128,-1,15
 860 1163 860 1163 888.5 1088 c 128,-1,16
 917 1013 917 1013 917 905 c 0,17,18
 917 814 917 814 894 748.5 c 128,-1,19
 871 683 871 683 829.5 642 c 128,-1,20
 788 601 788 601 719.5 577.5 c 128,-1,21
 651 554 651 554 572.5 545 c 128,-1,22
 494 536 494 536 384 536 c 2,23,-1
 277 536 l 1,24,-1
 277 0 l 1,25,-1
 149 0 l 1,26,-1
 149 1284 l 1,27,-1
 498 1284 l 2,12,13
EndSplineSet
EndUndoOperation
UndoOperation
Index: 1
Type: 1
WasModified: 0
WasOrder2: 1
Width: 981
VWidth: 2048
LBearingChange: 0
UnicodeEnc: 0
InstructionsLength: 0
SplineSet
498 1284 m 2,0,1
 600 1284 600 1284 673.5 1266 c 128,-1,2
 747 1248 747 1248 803.5 1205.5 c 128,-1,3
 860 1163 860 1163 888.5 1088 c 128,-1,4
 917 1013 917 1013 917 905 c 0,5,6
 917 814 917 814 894 748.5 c 128,-1,7
 871 683 871 683 829.5 642 c 128,-1,8
 788 601 788 601 719.5 577.5 c 128,-1,9
 651 554 651 554 572.5 545 c 128,-1,10
 494 536 494 536 384 536 c 2,11,-1
 277 536 l 1,12,-1
 277 0 l 1,13,-1
 149 0 l 1,14,-1
 149 1284 l 1,15,-1
 498 1284 l 2,0,1
277 640 m 1,16,-1
 361 640 l 2,17,18
 466 640 466 640 519 643 c 128,-1,19
 572 646 572 646 634.5 659 c 128,-1,20
 697 672 697 672 724 700 c 128,-1,21
 751 728 751 728 770 777.5 c 128,-1,22
 789 827 789 827 789 903 c 0,23,24
 789 1064 789 1064 722 1124 c 128,-1,25
 655 1184 655 1184 506 1184 c 2,26,-1
 277 1184 l 1,27,-1
 277 640 l 1,16,-1
EndSplineSet
EndUndoOperation
UndoOperation
Index: 2
Type: 1
WasModified: 0
WasOrder2: 1
Width: 981
VWidth: 2048
LBearingChange: 0
UnicodeEnc: 0
InstructionsLength: 0
SplineSet
498 1284 m 2,0,1
 600 1284 600 1284 673.5 1266 c 128,-1,2
 747 1248 747 1248 803.5 1205.5 c 128,-1,3
 860 1163 860 1163 888.5 1088 c 128,-1,4
 917 1013 917 1013 917 905 c 0,5,6
 917 814 917 814 894 748.5 c 128,-1,7
 871 683 871 683 829.5 642 c 128,-1,8
 788 601 788 601 719.5 577.5 c 128,-1,9
 651 554 651 554 572.5 545 c 128,-1,10
 494 536 494 536 384 536 c 2,11,-1
 277 536 l 1,12,-1
 277 0 l 1,13,-1
 149 0 l 1,14,-1
 149 1284 l 1,15,-1
 498 1284 l 2,0,1
277 640 m 1,16,-1
 361 640 l 2,17,18
 466 640 466 640 519 643 c 128,-1,19
 572 646 572 646 634.5 659 c 128,-1,20
 697 672 697 672 724 700 c 128,-1,21
 751 728 751 728 770 777.5 c 128,-1,22
 789 827 789 827 789 903 c 0,23,24
 789 1064 789 1064 722 1124 c 128,-1,25
 655 1184 655 1184 506 1184 c 2,26,-1
 277 1184 l 1,27,-1
 277 640 l 1,16,-1
EndSplineSet
EndUndoOperation
EndUndoes
Redoes
EndRedoes
EndUndoRedoHistory
Fore
SplineSet
277 640 m 1,0,-1
 361 640 l 2,1,2
 466 640 466 640 519 643 c 128,-1,3
 572 646 572 646 634.5 659 c 128,-1,4
 697 672 697 672 724 700 c 128,-1,5
 751 728 751 728 770 777.5 c 128,-1,6
 789 827 789 827 789 903 c 0,7,8
 789 1064 789 1064 722 1124 c 128,-1,9
 655 1184 655 1184 506 1184 c 2,10,-1
 277 1184 l 1,11,-1
 277 640 l 1,0,-1
498 1284 m 2,12,13
 600 1284 600 1284 673.5 1266 c 128,-1,14
 747 1248 747 1248 803.5 1205.5 c 128,-1,15
 860 1163 860 1163 888.5 1088 c 128,-1,16
 917 1013 917 1013 917 905 c 0,17,18
 917 814 917 814 894 748.5 c 128,-1,19
 871 683 871 683 829.5 642 c 128,-1,20
 788 601 788 601 719.5 577.5 c 128,-1,21
 651 554 651 554 572.5 545 c 128,-1,22
 494 536 494 536 384 536 c 2,23,-1
 277 536 l 1,24,-1
 277 0 l 1,25,-1
 149 0 l 1,26,-1
 149 1284 l 1,27,-1
 498 1284 l 2,12,13
EndSplineSet
EndChar

StartChar: Q
Encoding: 81 81 47
Width: 1132
Flags: W
LayerCount: 2
UndoRedoHistory
Layer: 1
Undoes
UndoOperation
Index: 0
Type: 1
WasModified: 0
WasOrder2: 1
Width: 1132
VWidth: 2048
LBearingChange: 0
UnicodeEnc: 0
InstructionsLength: 0
SplineSet
566 96 m 0,0,1
 667 96 667 96 719 124 c 1,2,-1
 596 295 l 1,3,-1
 667 351 l 1,4,-1
 789 180 l 1,5,6
 841 243 841 243 863.5 356 c 128,-1,7
 886 469 886 469 886 645 c 0,8,9
 886 942 886 942 816.5 1069 c 128,-1,10
 747 1196 747 1196 566 1196 c 128,-1,11
 385 1196 385 1196 315.5 1069 c 128,-1,12
 246 942 246 942 246 645 c 0,13,14
 246 349 246 349 315 222.5 c 128,-1,15
 384 96 384 96 566 96 c 0,0,1
922 -159 m 1,16,-1
 787 29 l 1,17,18
 698 -16 698 -16 566 -16 c 0,19,20
 459 -16 459 -16 380.5 14 c 128,-1,21
 302 44 302 44 252 97.5 c 128,-1,22
 202 151 202 151 172 235.5 c 128,-1,23
 142 320 142 320 130 418.5 c 128,-1,24
 118 517 118 517 118 648 c 0,25,26
 118 811 118 811 139.5 928 c 128,-1,27
 161 1045 161 1045 211 1133 c 128,-1,28
 261 1221 261 1221 349 1264.5 c 128,-1,29
 437 1308 437 1308 566 1308 c 128,-1,30
 695 1308 695 1308 783 1264.5 c 128,-1,31
 871 1221 871 1221 921 1133 c 128,-1,32
 971 1045 971 1045 992.5 928 c 128,-1,33
 1014 811 1014 811 1014 648 c 0,34,35
 1014 437 1014 437 979.5 297 c 128,-1,36
 945 157 945 157 861 80 c 1,37,-1
 993 -104 l 1,38,-1
 922 -159 l 1,16,-1
EndSplineSet
EndUndoOperation
UndoOperation
Index: 1
Type: 1
WasModified: 0
WasOrder2: 1
Width: 1132
VWidth: 2048
LBearingChange: 0
UnicodeEnc: 0
InstructionsLength: 0
SplineSet
922 -159 m 1,0,-1
 787 29 l 1,1,2
 698 -16 698 -16 566 -16 c 0,3,4
 459 -16 459 -16 380.5 14 c 128,-1,5
 302 44 302 44 252 97.5 c 128,-1,6
 202 151 202 151 172 235.5 c 128,-1,7
 142 320 142 320 130 418.5 c 128,-1,8
 118 517 118 517 118 648 c 0,9,10
 118 811 118 811 139.5 928 c 128,-1,11
 161 1045 161 1045 211 1133 c 128,-1,12
 261 1221 261 1221 349 1264.5 c 128,-1,13
 437 1308 437 1308 566 1308 c 128,-1,14
 695 1308 695 1308 783 1264.5 c 128,-1,15
 871 1221 871 1221 921 1133 c 128,-1,16
 971 1045 971 1045 992.5 928 c 128,-1,17
 1014 811 1014 811 1014 648 c 0,18,19
 1014 437 1014 437 979.5 297 c 128,-1,20
 945 157 945 157 861 80 c 1,21,-1
 993 -104 l 1,22,-1
 922 -159 l 1,0,-1
566 96 m 0,23,24
 667 96 667 96 719 124 c 1,25,-1
 596 295 l 1,26,-1
 667 351 l 1,27,-1
 789 180 l 1,28,29
 841 243 841 243 863.5 356 c 128,-1,30
 886 469 886 469 886 645 c 0,31,32
 886 942 886 942 816.5 1069 c 128,-1,33
 747 1196 747 1196 566 1196 c 128,-1,34
 385 1196 385 1196 315.5 1069 c 128,-1,35
 246 942 246 942 246 645 c 0,36,37
 246 349 246 349 315 222.5 c 128,-1,38
 384 96 384 96 566 96 c 0,23,24
EndSplineSet
EndUndoOperation
UndoOperation
Index: 2
Type: 1
WasModified: 0
WasOrder2: 1
Width: 1132
VWidth: 2048
LBearingChange: 0
UnicodeEnc: 0
InstructionsLength: 0
SplineSet
922 -159 m 1,0,-1
 787 29 l 1,1,2
 698 -16 698 -16 566 -16 c 0,3,4
 459 -16 459 -16 380.5 14 c 128,-1,5
 302 44 302 44 252 97.5 c 128,-1,6
 202 151 202 151 172 235.5 c 128,-1,7
 142 320 142 320 130 418.5 c 128,-1,8
 118 517 118 517 118 648 c 0,9,10
 118 811 118 811 139.5 928 c 128,-1,11
 161 1045 161 1045 211 1133 c 128,-1,12
 261 1221 261 1221 349 1264.5 c 128,-1,13
 437 1308 437 1308 566 1308 c 128,-1,14
 695 1308 695 1308 783 1264.5 c 128,-1,15
 871 1221 871 1221 921 1133 c 128,-1,16
 971 1045 971 1045 992.5 928 c 128,-1,17
 1014 811 1014 811 1014 648 c 0,18,19
 1014 437 1014 437 979.5 297 c 128,-1,20
 945 157 945 157 861 80 c 1,21,-1
 993 -104 l 1,22,-1
 922 -159 l 1,0,-1
566 96 m 0,23,24
 667 96 667 96 719 124 c 1,25,-1
 596 295 l 1,26,-1
 667 351 l 1,27,-1
 789 180 l 1,28,29
 841 243 841 243 863.5 356 c 128,-1,30
 886 469 886 469 886 645 c 0,31,32
 886 942 886 942 816.5 1069 c 128,-1,33
 747 1196 747 1196 566 1196 c 128,-1,34
 385 1196 385 1196 315.5 1069 c 128,-1,35
 246 942 246 942 246 645 c 0,36,37
 246 349 246 349 315 222.5 c 128,-1,38
 384 96 384 96 566 96 c 0,23,24
EndSplineSet
EndUndoOperation
EndUndoes
Redoes
EndRedoes
EndUndoRedoHistory
Fore
SplineSet
566 96 m 0,0,1
 667 96 667 96 719 124 c 1,2,-1
 596 295 l 1,3,-1
 667 351 l 1,4,-1
 789 180 l 1,5,6
 841 243 841 243 863.5 356 c 128,-1,7
 886 469 886 469 886 645 c 0,8,9
 886 942 886 942 816.5 1069 c 128,-1,10
 747 1196 747 1196 566 1196 c 128,-1,11
 385 1196 385 1196 315.5 1069 c 128,-1,12
 246 942 246 942 246 645 c 0,13,14
 246 349 246 349 315 222.5 c 128,-1,15
 384 96 384 96 566 96 c 0,0,1
922 -159 m 1,16,-1
 787 29 l 1,17,18
 698 -16 698 -16 566 -16 c 0,19,20
 459 -16 459 -16 380.5 14 c 128,-1,21
 302 44 302 44 252 97.5 c 128,-1,22
 202 151 202 151 172 235.5 c 128,-1,23
 142 320 142 320 130 418.5 c 128,-1,24
 118 517 118 517 118 648 c 0,25,26
 118 811 118 811 139.5 928 c 128,-1,27
 161 1045 161 1045 211 1133 c 128,-1,28
 261 1221 261 1221 349 1264.5 c 128,-1,29
 437 1308 437 1308 566 1308 c 128,-1,30
 695 1308 695 1308 783 1264.5 c 128,-1,31
 871 1221 871 1221 921 1133 c 128,-1,32
 971 1045 971 1045 992.5 928 c 128,-1,33
 1014 811 1014 811 1014 648 c 0,34,35
 1014 437 1014 437 979.5 297 c 128,-1,36
 945 157 945 157 861 80 c 1,37,-1
 993 -104 l 1,38,-1
 922 -159 l 1,16,-1
EndSplineSet
EndChar

StartChar: R
Encoding: 82 82 48
Width: 1053
Flags: W
LayerCount: 2
UndoRedoHistory
Layer: 1
Undoes
UndoOperation
Index: 0
Type: 1
WasModified: 0
WasOrder2: 1
Width: 1053
VWidth: 2048
LBearingChange: 0
UnicodeEnc: 0
InstructionsLength: 0
SplineSet
789 920 m 0,0,1
 789 972 789 972 780.5 1012 c 128,-1,2
 772 1052 772 1052 757.5 1080 c 128,-1,3
 743 1108 743 1108 715.5 1127 c 128,-1,4
 688 1146 688 1146 660.5 1157.5 c 128,-1,5
 633 1169 633 1169 587 1175 c 128,-1,6
 541 1181 541 1181 500 1182.5 c 128,-1,7
 459 1184 459 1184 396 1184 c 2,8,-1
 277 1184 l 1,9,-1
 277 662 l 1,10,-1
 364 662 l 2,11,12
 451 662 451 662 509 665.5 c 128,-1,13
 567 669 567 669 618 679.5 c 128,-1,14
 669 690 669 690 699 707.5 c 128,-1,15
 729 725 729 725 750.5 754 c 128,-1,16
 772 783 772 783 780.5 823 c 128,-1,17
 789 863 789 863 789 920 c 0,0,1
975 41 m 1,18,-1
 870 -25 l 1,19,20
 663 317 663 317 550 573 c 1,21,22
 478 567 478 567 387 567 c 2,23,-1
 277 567 l 1,24,-1
 277 0 l 1,25,-1
 149 0 l 1,26,-1
 149 1284 l 1,27,-1
 402 1284 l 2,28,29
 494 1284 494 1284 559 1279 c 128,-1,30
 624 1274 624 1274 686 1260.5 c 128,-1,31
 748 1247 748 1247 788 1221.5 c 128,-1,32
 828 1196 828 1196 858.5 1156.5 c 128,-1,33
 889 1117 889 1117 903 1058.5 c 128,-1,34
 917 1000 917 1000 917 922 c 0,35,36
 917 775 917 775 856.5 697.5 c 128,-1,37
 796 620 796 620 669 591 c 1,38,39
 710 498 710 498 786.5 360.5 c 128,-1,40
 863 223 863 223 919 132 c 2,41,-1
 975 41 l 1,18,-1
EndSplineSet
EndUndoOperation
UndoOperation
Index: 1
Type: 1
WasModified: 0
WasOrder2: 1
Width: 1053
VWidth: 2048
LBearingChange: 0
UnicodeEnc: 0
InstructionsLength: 0
SplineSet
975 41 m 1,0,-1
 870 -25 l 1,1,2
 663 317 663 317 550 573 c 1,3,4
 478 567 478 567 387 567 c 2,5,-1
 277 567 l 1,6,-1
 277 0 l 1,7,-1
 149 0 l 1,8,-1
 149 1284 l 1,9,-1
 402 1284 l 2,10,11
 494 1284 494 1284 559 1279 c 128,-1,12
 624 1274 624 1274 686 1260.5 c 128,-1,13
 748 1247 748 1247 788 1221.5 c 128,-1,14
 828 1196 828 1196 858.5 1156.5 c 128,-1,15
 889 1117 889 1117 903 1058.5 c 128,-1,16
 917 1000 917 1000 917 922 c 0,17,18
 917 775 917 775 856.5 697.5 c 128,-1,19
 796 620 796 620 669 591 c 1,20,21
 710 498 710 498 786.5 360.5 c 128,-1,22
 863 223 863 223 919 132 c 2,23,-1
 975 41 l 1,0,-1
789 920 m 0,24,25
 789 972 789 972 780.5 1012 c 128,-1,26
 772 1052 772 1052 757.5 1080 c 128,-1,27
 743 1108 743 1108 715.5 1127 c 128,-1,28
 688 1146 688 1146 660.5 1157.5 c 128,-1,29
 633 1169 633 1169 587 1175 c 128,-1,30
 541 1181 541 1181 500 1182.5 c 128,-1,31
 459 1184 459 1184 396 1184 c 2,32,-1
 277 1184 l 1,33,-1
 277 662 l 1,34,-1
 364 662 l 2,35,36
 451 662 451 662 509 665.5 c 128,-1,37
 567 669 567 669 618 679.5 c 128,-1,38
 669 690 669 690 699 707.5 c 128,-1,39
 729 725 729 725 750.5 754 c 128,-1,40
 772 783 772 783 780.5 823 c 128,-1,41
 789 863 789 863 789 920 c 0,24,25
EndSplineSet
EndUndoOperation
UndoOperation
Index: 2
Type: 1
WasModified: 0
WasOrder2: 1
Width: 1053
VWidth: 2048
LBearingChange: 0
UnicodeEnc: 0
InstructionsLength: 0
SplineSet
975 41 m 1,0,-1
 870 -25 l 1,1,2
 663 317 663 317 550 573 c 1,3,4
 478 567 478 567 387 567 c 2,5,-1
 277 567 l 1,6,-1
 277 0 l 1,7,-1
 149 0 l 1,8,-1
 149 1284 l 1,9,-1
 402 1284 l 2,10,11
 494 1284 494 1284 559 1279 c 128,-1,12
 624 1274 624 1274 686 1260.5 c 128,-1,13
 748 1247 748 1247 788 1221.5 c 128,-1,14
 828 1196 828 1196 858.5 1156.5 c 128,-1,15
 889 1117 889 1117 903 1058.5 c 128,-1,16
 917 1000 917 1000 917 922 c 0,17,18
 917 775 917 775 856.5 697.5 c 128,-1,19
 796 620 796 620 669 591 c 1,20,21
 710 498 710 498 786.5 360.5 c 128,-1,22
 863 223 863 223 919 132 c 2,23,-1
 975 41 l 1,0,-1
789 920 m 0,24,25
 789 972 789 972 780.5 1012 c 128,-1,26
 772 1052 772 1052 757.5 1080 c 128,-1,27
 743 1108 743 1108 715.5 1127 c 128,-1,28
 688 1146 688 1146 660.5 1157.5 c 128,-1,29
 633 1169 633 1169 587 1175 c 128,-1,30
 541 1181 541 1181 500 1182.5 c 128,-1,31
 459 1184 459 1184 396 1184 c 2,32,-1
 277 1184 l 1,33,-1
 277 662 l 1,34,-1
 364 662 l 2,35,36
 451 662 451 662 509 665.5 c 128,-1,37
 567 669 567 669 618 679.5 c 128,-1,38
 669 690 669 690 699 707.5 c 128,-1,39
 729 725 729 725 750.5 754 c 128,-1,40
 772 783 772 783 780.5 823 c 128,-1,41
 789 863 789 863 789 920 c 0,24,25
EndSplineSet
EndUndoOperation
EndUndoes
Redoes
EndRedoes
EndUndoRedoHistory
Fore
SplineSet
789 920 m 0,0,1
 789 972 789 972 780.5 1012 c 128,-1,2
 772 1052 772 1052 757.5 1080 c 128,-1,3
 743 1108 743 1108 715.5 1127 c 128,-1,4
 688 1146 688 1146 660.5 1157.5 c 128,-1,5
 633 1169 633 1169 587 1175 c 128,-1,6
 541 1181 541 1181 500 1182.5 c 128,-1,7
 459 1184 459 1184 396 1184 c 2,8,-1
 277 1184 l 1,9,-1
 277 662 l 1,10,-1
 364 662 l 2,11,12
 451 662 451 662 509 665.5 c 128,-1,13
 567 669 567 669 618 679.5 c 128,-1,14
 669 690 669 690 699 707.5 c 128,-1,15
 729 725 729 725 750.5 754 c 128,-1,16
 772 783 772 783 780.5 823 c 128,-1,17
 789 863 789 863 789 920 c 0,0,1
975 41 m 1,18,-1
 870 -25 l 1,19,20
 663 317 663 317 550 573 c 1,21,22
 478 567 478 567 387 567 c 2,23,-1
 277 567 l 1,24,-1
 277 0 l 1,25,-1
 149 0 l 1,26,-1
 149 1284 l 1,27,-1
 402 1284 l 2,28,29
 494 1284 494 1284 559 1279 c 128,-1,30
 624 1274 624 1274 686 1260.5 c 128,-1,31
 748 1247 748 1247 788 1221.5 c 128,-1,32
 828 1196 828 1196 858.5 1156.5 c 128,-1,33
 889 1117 889 1117 903 1058.5 c 128,-1,34
 917 1000 917 1000 917 922 c 0,35,36
 917 775 917 775 856.5 697.5 c 128,-1,37
 796 620 796 620 669 591 c 1,38,39
 710 498 710 498 786.5 360.5 c 128,-1,40
 863 223 863 223 919 132 c 2,41,-1
 975 41 l 1,18,-1
EndSplineSet
EndChar

StartChar: S
Encoding: 83 83 49
Width: 947
Flags: W
LayerCount: 2
UndoRedoHistory
Layer: 1
Undoes
UndoOperation
Index: 0
Type: 1
WasModified: 0
WasOrder2: 1
Width: 947
VWidth: 2048
LBearingChange: 0
UnicodeEnc: 0
InstructionsLength: 0
SplineSet
819 1137 m 1,0,1
 665 1195 665 1195 514 1195 c 0,2,3
 233 1195 233 1195 233 972 c 0,4,5
 233 890 233 890 270 845.5 c 128,-1,6
 307 801 307 801 417 761 c 2,7,-1
 531 720 l 2,8,9
 542 716 542 716 564 708 c 0,10,11
 608 693 608 693 630.5 684.5 c 128,-1,12
 653 676 653 676 691.5 657.5 c 128,-1,13
 730 639 730 639 751 623 c 128,-1,14
 772 607 772 607 799 579.5 c 128,-1,15
 826 552 826 552 839.5 521.5 c 128,-1,16
 853 491 853 491 863 447.5 c 128,-1,17
 873 404 873 404 873 353 c 0,18,19
 873 179 873 179 767 84.5 c 128,-1,20
 661 -10 661 -10 481 -10 c 0,21,22
 250 -10 250 -10 105 68 c 1,23,-1
 133 173 l 1,24,25
 187 150 187 150 221.5 137 c 128,-1,26
 256 124 256 124 326.5 110 c 128,-1,27
 397 96 397 96 471 96 c 0,28,29
 599 96 599 96 672 160.5 c 128,-1,30
 745 225 745 225 745 355 c 0,31,32
 745 401 745 401 734 436 c 128,-1,33
 723 471 723 471 706 494 c 128,-1,34
 689 517 689 517 654 537.5 c 128,-1,35
 619 558 619 558 587 571 c 128,-1,36
 555 584 555 584 499 603 c 2,37,-1
 376 644 l 2,38,39
 242 689 242 689 173.5 764 c 128,-1,40
 105 839 105 839 105 969 c 0,41,42
 105 1058 105 1058 135.5 1123.5 c 128,-1,43
 166 1189 166 1189 221 1227 c 128,-1,44
 276 1265 276 1265 344.5 1283 c 128,-1,45
 413 1301 413 1301 497 1301 c 0,46,47
 692 1301 692 1301 842 1239 c 1,48,-1
 819 1137 l 1,0,1
EndSplineSet
EndUndoOperation
UndoOperation
Index: 1
Type: 1
WasModified: 0
WasOrder2: 1
Width: 947
VWidth: 2048
LBearingChange: 0
UnicodeEnc: 0
InstructionsLength: 0
SplineSet
819 1137 m 1,0,1
 665 1195 665 1195 514 1195 c 0,2,3
 233 1195 233 1195 233 972 c 0,4,5
 233 890 233 890 270 845.5 c 128,-1,6
 307 801 307 801 417 761 c 2,7,-1
 531 720 l 2,8,9
 542 716 542 716 564 708 c 0,10,11
 608 693 608 693 630.5 684.5 c 128,-1,12
 653 676 653 676 691.5 657.5 c 128,-1,13
 730 639 730 639 751 623 c 128,-1,14
 772 607 772 607 799 579.5 c 128,-1,15
 826 552 826 552 839.5 521.5 c 128,-1,16
 853 491 853 491 863 447.5 c 128,-1,17
 873 404 873 404 873 353 c 0,18,19
 873 179 873 179 767 84.5 c 128,-1,20
 661 -10 661 -10 481 -10 c 0,21,22
 250 -10 250 -10 105 68 c 1,23,-1
 133 173 l 1,24,25
 187 150 187 150 221.5 137 c 128,-1,26
 256 124 256 124 326.5 110 c 128,-1,27
 397 96 397 96 471 96 c 0,28,29
 599 96 599 96 672 160.5 c 128,-1,30
 745 225 745 225 745 355 c 0,31,32
 745 401 745 401 734 436 c 128,-1,33
 723 471 723 471 706 494 c 128,-1,34
 689 517 689 517 654 537.5 c 128,-1,35
 619 558 619 558 587 571 c 128,-1,36
 555 584 555 584 499 603 c 2,37,-1
 376 644 l 2,38,39
 242 689 242 689 173.5 764 c 128,-1,40
 105 839 105 839 105 969 c 0,41,42
 105 1058 105 1058 135.5 1123.5 c 128,-1,43
 166 1189 166 1189 221 1227 c 128,-1,44
 276 1265 276 1265 344.5 1283 c 128,-1,45
 413 1301 413 1301 497 1301 c 0,46,47
 692 1301 692 1301 842 1239 c 1,48,-1
 819 1137 l 1,0,1
EndSplineSet
EndUndoOperation
UndoOperation
Index: 2
Type: 1
WasModified: 0
WasOrder2: 1
Width: 947
VWidth: 2048
LBearingChange: 0
UnicodeEnc: 0
InstructionsLength: 0
SplineSet
819 1137 m 1,0,1
 665 1195 665 1195 514 1195 c 0,2,3
 233 1195 233 1195 233 972 c 0,4,5
 233 890 233 890 270 845.5 c 128,-1,6
 307 801 307 801 417 761 c 2,7,-1
 531 720 l 2,8,9
 542 716 542 716 564 708 c 0,10,11
 608 693 608 693 630.5 684.5 c 128,-1,12
 653 676 653 676 691.5 657.5 c 128,-1,13
 730 639 730 639 751 623 c 128,-1,14
 772 607 772 607 799 579.5 c 128,-1,15
 826 552 826 552 839.5 521.5 c 128,-1,16
 853 491 853 491 863 447.5 c 128,-1,17
 873 404 873 404 873 353 c 0,18,19
 873 179 873 179 767 84.5 c 128,-1,20
 661 -10 661 -10 481 -10 c 0,21,22
 250 -10 250 -10 105 68 c 1,23,-1
 133 173 l 1,24,25
 187 150 187 150 221.5 137 c 128,-1,26
 256 124 256 124 326.5 110 c 128,-1,27
 397 96 397 96 471 96 c 0,28,29
 599 96 599 96 672 160.5 c 128,-1,30
 745 225 745 225 745 355 c 0,31,32
 745 401 745 401 734 436 c 128,-1,33
 723 471 723 471 706 494 c 128,-1,34
 689 517 689 517 654 537.5 c 128,-1,35
 619 558 619 558 587 571 c 128,-1,36
 555 584 555 584 499 603 c 2,37,-1
 376 644 l 2,38,39
 242 689 242 689 173.5 764 c 128,-1,40
 105 839 105 839 105 969 c 0,41,42
 105 1058 105 1058 135.5 1123.5 c 128,-1,43
 166 1189 166 1189 221 1227 c 128,-1,44
 276 1265 276 1265 344.5 1283 c 128,-1,45
 413 1301 413 1301 497 1301 c 0,46,47
 692 1301 692 1301 842 1239 c 1,48,-1
 819 1137 l 1,0,1
EndSplineSet
EndUndoOperation
EndUndoes
Redoes
EndRedoes
EndUndoRedoHistory
Fore
SplineSet
819 1137 m 1,0,1
 665 1195 665 1195 514 1195 c 0,2,3
 233 1195 233 1195 233 972 c 0,4,5
 233 890 233 890 270 845.5 c 128,-1,6
 307 801 307 801 417 761 c 2,7,-1
 531 720 l 2,8,9
 542 716 542 716 564 708 c 0,10,11
 608 693 608 693 630.5 684.5 c 128,-1,12
 653 676 653 676 691.5 657.5 c 128,-1,13
 730 639 730 639 751 623 c 128,-1,14
 772 607 772 607 799 579.5 c 128,-1,15
 826 552 826 552 839.5 521.5 c 128,-1,16
 853 491 853 491 863 447.5 c 128,-1,17
 873 404 873 404 873 353 c 0,18,19
 873 179 873 179 767 84.5 c 128,-1,20
 661 -10 661 -10 481 -10 c 0,21,22
 250 -10 250 -10 105 68 c 1,23,-1
 133 173 l 1,24,25
 187 150 187 150 221.5 137 c 128,-1,26
 256 124 256 124 326.5 110 c 128,-1,27
 397 96 397 96 471 96 c 0,28,29
 599 96 599 96 672 160.5 c 128,-1,30
 745 225 745 225 745 355 c 0,31,32
 745 401 745 401 734 436 c 128,-1,33
 723 471 723 471 706 494 c 128,-1,34
 689 517 689 517 654 537.5 c 128,-1,35
 619 558 619 558 587 571 c 128,-1,36
 555 584 555 584 499 603 c 2,37,-1
 376 644 l 2,38,39
 242 689 242 689 173.5 764 c 128,-1,40
 105 839 105 839 105 969 c 0,41,42
 105 1058 105 1058 135.5 1123.5 c 128,-1,43
 166 1189 166 1189 221 1227 c 128,-1,44
 276 1265 276 1265 344.5 1283 c 128,-1,45
 413 1301 413 1301 497 1301 c 0,46,47
 692 1301 692 1301 842 1239 c 1,48,-1
 819 1137 l 1,0,1
EndSplineSet
EndChar

StartChar: T
Encoding: 84 84 50
Width: 891
Flags: W
LayerCount: 2
UndoRedoHistory
Layer: 1
Undoes
UndoOperation
Index: 0
Type: 1
WasModified: 0
WasOrder2: 1
Width: 891
VWidth: 2048
LBearingChange: 0
UnicodeEnc: 0
InstructionsLength: 0
SplineSet
35 1184 m 1,0,-1
 35 1284 l 1,1,-1
 856 1284 l 1,2,-1
 856 1184 l 1,3,-1
 507 1184 l 1,4,-1
 507 0 l 1,5,-1
 379 0 l 1,6,-1
 379 1184 l 1,7,-1
 35 1184 l 1,0,-1
EndSplineSet
EndUndoOperation
UndoOperation
Index: 1
Type: 1
WasModified: 0
WasOrder2: 1
Width: 891
VWidth: 2048
LBearingChange: 0
UnicodeEnc: 0
InstructionsLength: 0
SplineSet
35 1184 m 1,0,-1
 35 1284 l 1,1,-1
 856 1284 l 1,2,-1
 856 1184 l 1,3,-1
 507 1184 l 1,4,-1
 507 0 l 1,5,-1
 379 0 l 1,6,-1
 379 1184 l 1,7,-1
 35 1184 l 1,0,-1
EndSplineSet
EndUndoOperation
UndoOperation
Index: 2
Type: 1
WasModified: 0
WasOrder2: 1
Width: 891
VWidth: 2048
LBearingChange: 0
UnicodeEnc: 0
InstructionsLength: 0
SplineSet
35 1184 m 1,0,-1
 35 1284 l 1,1,-1
 856 1284 l 1,2,-1
 856 1184 l 1,3,-1
 507 1184 l 1,4,-1
 507 0 l 1,5,-1
 379 0 l 1,6,-1
 379 1184 l 1,7,-1
 35 1184 l 1,0,-1
EndSplineSet
EndUndoOperation
EndUndoes
Redoes
EndRedoes
EndUndoRedoHistory
Fore
SplineSet
35 1184 m 1,0,-1
 35 1284 l 1,1,-1
 856 1284 l 1,2,-1
 856 1184 l 1,3,-1
 507 1184 l 1,4,-1
 507 0 l 1,5,-1
 379 0 l 1,6,-1
 379 1184 l 1,7,-1
 35 1184 l 1,0,-1
EndSplineSet
EndChar

StartChar: U
Encoding: 85 85 51
Width: 1080
Flags: W
LayerCount: 2
UndoRedoHistory
Layer: 1
Undoes
UndoOperation
Index: 0
Type: 1
WasModified: 0
WasOrder2: 1
Width: 1080
VWidth: 2048
LBearingChange: 0
UnicodeEnc: 0
InstructionsLength: 0
SplineSet
540 96 m 128,-1,1
 598 96 598 96 642 107 c 128,-1,2
 686 118 686 118 716.5 135 c 128,-1,3
 747 152 747 152 768 184.5 c 128,-1,4
 789 217 789 217 800.5 248.5 c 128,-1,5
 812 280 812 280 818.5 332 c 128,-1,6
 825 384 825 384 826.5 427.5 c 128,-1,7
 828 471 828 471 828 540 c 2,8,-1
 828 1284 l 1,9,-1
 956 1284 l 1,10,-1
 956 635 l 2,11,12
 956 549 956 549 954 488.5 c 128,-1,13
 952 428 952 428 945.5 360.5 c 128,-1,14
 939 293 939 293 926 247.5 c 128,-1,15
 913 202 913 202 892.5 156 c 128,-1,16
 872 110 872 110 841 81 c 128,-1,17
 810 52 810 52 768 28.5 c 128,-1,18
 726 5 726 5 669 -5.5 c 128,-1,19
 612 -16 612 -16 540 -16 c 128,-1,20
 468 -16 468 -16 411 -5.5 c 128,-1,21
 354 5 354 5 312 28.5 c 128,-1,22
 270 52 270 52 239 81 c 128,-1,23
 208 110 208 110 187.5 156 c 128,-1,24
 167 202 167 202 154 247.5 c 128,-1,25
 141 293 141 293 134.5 360.5 c 128,-1,26
 128 428 128 428 126 488.5 c 128,-1,27
 124 549 124 549 124 635 c 2,28,-1
 124 1284 l 1,29,-1
 252 1284 l 1,30,-1
 252 540 l 2,31,32
 252 471 252 471 253.5 427.5 c 128,-1,33
 255 384 255 384 261.5 332 c 128,-1,34
 268 280 268 280 279.5 248.5 c 128,-1,35
 291 217 291 217 312 184.5 c 128,-1,36
 333 152 333 152 363.5 135 c 128,-1,37
 394 118 394 118 438 107 c 128,-1,0
 482 96 482 96 540 96 c 128,-1,1
EndSplineSet
EndUndoOperation
UndoOperation
Index: 1
Type: 1
WasModified: 0
WasOrder2: 1
Width: 1080
VWidth: 2048
LBearingChange: 0
UnicodeEnc: 0
InstructionsLength: 0
SplineSet
540 96 m 128,-1,1
 598 96 598 96 642 107 c 128,-1,2
 686 118 686 118 716.5 135 c 128,-1,3
 747 152 747 152 768 184.5 c 128,-1,4
 789 217 789 217 800.5 248.5 c 128,-1,5
 812 280 812 280 818.5 332 c 128,-1,6
 825 384 825 384 826.5 427.5 c 128,-1,7
 828 471 828 471 828 540 c 2,8,-1
 828 1284 l 1,9,-1
 956 1284 l 1,10,-1
 956 635 l 2,11,12
 956 549 956 549 954 488.5 c 128,-1,13
 952 428 952 428 945.5 360.5 c 128,-1,14
 939 293 939 293 926 247.5 c 128,-1,15
 913 202 913 202 892.5 156 c 128,-1,16
 872 110 872 110 841 81 c 128,-1,17
 810 52 810 52 768 28.5 c 128,-1,18
 726 5 726 5 669 -5.5 c 128,-1,19
 612 -16 612 -16 540 -16 c 128,-1,20
 468 -16 468 -16 411 -5.5 c 128,-1,21
 354 5 354 5 312 28.5 c 128,-1,22
 270 52 270 52 239 81 c 128,-1,23
 208 110 208 110 187.5 156 c 128,-1,24
 167 202 167 202 154 247.5 c 128,-1,25
 141 293 141 293 134.5 360.5 c 128,-1,26
 128 428 128 428 126 488.5 c 128,-1,27
 124 549 124 549 124 635 c 2,28,-1
 124 1284 l 1,29,-1
 252 1284 l 1,30,-1
 252 540 l 2,31,32
 252 471 252 471 253.5 427.5 c 128,-1,33
 255 384 255 384 261.5 332 c 128,-1,34
 268 280 268 280 279.5 248.5 c 128,-1,35
 291 217 291 217 312 184.5 c 128,-1,36
 333 152 333 152 363.5 135 c 128,-1,37
 394 118 394 118 438 107 c 128,-1,0
 482 96 482 96 540 96 c 128,-1,1
EndSplineSet
EndUndoOperation
UndoOperation
Index: 2
Type: 1
WasModified: 0
WasOrder2: 1
Width: 1080
VWidth: 2048
LBearingChange: 0
UnicodeEnc: 0
InstructionsLength: 0
SplineSet
540 96 m 128,-1,1
 598 96 598 96 642 107 c 128,-1,2
 686 118 686 118 716.5 135 c 128,-1,3
 747 152 747 152 768 184.5 c 128,-1,4
 789 217 789 217 800.5 248.5 c 128,-1,5
 812 280 812 280 818.5 332 c 128,-1,6
 825 384 825 384 826.5 427.5 c 128,-1,7
 828 471 828 471 828 540 c 2,8,-1
 828 1284 l 1,9,-1
 956 1284 l 1,10,-1
 956 635 l 2,11,12
 956 549 956 549 954 488.5 c 128,-1,13
 952 428 952 428 945.5 360.5 c 128,-1,14
 939 293 939 293 926 247.5 c 128,-1,15
 913 202 913 202 892.5 156 c 128,-1,16
 872 110 872 110 841 81 c 128,-1,17
 810 52 810 52 768 28.5 c 128,-1,18
 726 5 726 5 669 -5.5 c 128,-1,19
 612 -16 612 -16 540 -16 c 128,-1,20
 468 -16 468 -16 411 -5.5 c 128,-1,21
 354 5 354 5 312 28.5 c 128,-1,22
 270 52 270 52 239 81 c 128,-1,23
 208 110 208 110 187.5 156 c 128,-1,24
 167 202 167 202 154 247.5 c 128,-1,25
 141 293 141 293 134.5 360.5 c 128,-1,26
 128 428 128 428 126 488.5 c 128,-1,27
 124 549 124 549 124 635 c 2,28,-1
 124 1284 l 1,29,-1
 252 1284 l 1,30,-1
 252 540 l 2,31,32
 252 471 252 471 253.5 427.5 c 128,-1,33
 255 384 255 384 261.5 332 c 128,-1,34
 268 280 268 280 279.5 248.5 c 128,-1,35
 291 217 291 217 312 184.5 c 128,-1,36
 333 152 333 152 363.5 135 c 128,-1,37
 394 118 394 118 438 107 c 128,-1,0
 482 96 482 96 540 96 c 128,-1,1
EndSplineSet
EndUndoOperation
EndUndoes
Redoes
EndRedoes
EndUndoRedoHistory
Fore
SplineSet
540 96 m 128,-1,1
 598 96 598 96 642 107 c 128,-1,2
 686 118 686 118 716.5 135 c 128,-1,3
 747 152 747 152 768 184.5 c 128,-1,4
 789 217 789 217 800.5 248.5 c 128,-1,5
 812 280 812 280 818.5 332 c 128,-1,6
 825 384 825 384 826.5 427.5 c 128,-1,7
 828 471 828 471 828 540 c 2,8,-1
 828 1284 l 1,9,-1
 956 1284 l 1,10,-1
 956 635 l 2,11,12
 956 549 956 549 954 488.5 c 128,-1,13
 952 428 952 428 945.5 360.5 c 128,-1,14
 939 293 939 293 926 247.5 c 128,-1,15
 913 202 913 202 892.5 156 c 128,-1,16
 872 110 872 110 841 81 c 128,-1,17
 810 52 810 52 768 28.5 c 128,-1,18
 726 5 726 5 669 -5.5 c 128,-1,19
 612 -16 612 -16 540 -16 c 128,-1,20
 468 -16 468 -16 411 -5.5 c 128,-1,21
 354 5 354 5 312 28.5 c 128,-1,22
 270 52 270 52 239 81 c 128,-1,23
 208 110 208 110 187.5 156 c 128,-1,24
 167 202 167 202 154 247.5 c 128,-1,25
 141 293 141 293 134.5 360.5 c 128,-1,26
 128 428 128 428 126 488.5 c 128,-1,27
 124 549 124 549 124 635 c 2,28,-1
 124 1284 l 1,29,-1
 252 1284 l 1,30,-1
 252 540 l 2,31,32
 252 471 252 471 253.5 427.5 c 128,-1,33
 255 384 255 384 261.5 332 c 128,-1,34
 268 280 268 280 279.5 248.5 c 128,-1,35
 291 217 291 217 312 184.5 c 128,-1,36
 333 152 333 152 363.5 135 c 128,-1,37
 394 118 394 118 438 107 c 128,-1,0
 482 96 482 96 540 96 c 128,-1,1
EndSplineSet
EndChar

StartChar: V
Encoding: 86 86 56
Width: 1008
Flags: W
LayerCount: 2
UndoRedoHistory
Layer: 1
Undoes
UndoOperation
Index: 0
Type: 1
WasModified: 0
WasOrder2: 1
Width: 1008
VWidth: 2048
LBearingChange: 0
UnicodeEnc: 0
InstructionsLength: 0
SplineSet
188 1285 m 1,0,1
 253 1031 253 1031 362.5 641.5 c 128,-1,2
 472 252 472 252 504 134 c 1,3,4
 532 240 532 240 641.5 634 c 128,-1,5
 751 1028 751 1028 817 1285 c 1,6,-1
 952 1285 l 1,7,-1
 583 0 l 1,8,-1
 425 0 l 1,9,-1
 56 1285 l 1,10,-1
 188 1285 l 1,0,1
EndSplineSet
EndUndoOperation
UndoOperation
Index: 1
Type: 1
WasModified: 0
WasOrder2: 1
Width: 1008
VWidth: 2048
LBearingChange: 0
UnicodeEnc: 0
InstructionsLength: 0
SplineSet
188 1285 m 1,0,1
 253 1031 253 1031 362.5 641.5 c 128,-1,2
 472 252 472 252 504 134 c 1,3,4
 532 240 532 240 641.5 634 c 128,-1,5
 751 1028 751 1028 817 1285 c 1,6,-1
 952 1285 l 1,7,-1
 583 0 l 1,8,-1
 425 0 l 1,9,-1
 56 1285 l 1,10,-1
 188 1285 l 1,0,1
EndSplineSet
EndUndoOperation
UndoOperation
Index: 2
Type: 1
WasModified: 0
WasOrder2: 1
Width: 1008
VWidth: 2048
LBearingChange: 0
UnicodeEnc: 0
InstructionsLength: 0
SplineSet
188 1285 m 1,0,1
 253 1031 253 1031 362.5 641.5 c 128,-1,2
 472 252 472 252 504 134 c 1,3,4
 532 240 532 240 641.5 634 c 128,-1,5
 751 1028 751 1028 817 1285 c 1,6,-1
 952 1285 l 1,7,-1
 583 0 l 1,8,-1
 425 0 l 1,9,-1
 56 1285 l 1,10,-1
 188 1285 l 1,0,1
EndSplineSet
EndUndoOperation
EndUndoes
Redoes
EndRedoes
EndUndoRedoHistory
Fore
SplineSet
188 1285 m 1,0,1
 253 1031 253 1031 362.5 641.5 c 128,-1,2
 472 252 472 252 504 134 c 1,3,4
 532 240 532 240 641.5 634 c 128,-1,5
 751 1028 751 1028 817 1285 c 1,6,-1
 952 1285 l 1,7,-1
 583 0 l 1,8,-1
 425 0 l 1,9,-1
 56 1285 l 1,10,-1
 188 1285 l 1,0,1
EndSplineSet
EndChar

StartChar: W
Encoding: 87 87 57
Width: 1337
Flags: W
LayerCount: 2
UndoRedoHistory
Layer: 1
Undoes
UndoOperation
Index: 0
Type: 1
WasModified: 0
WasOrder2: 1
Width: 1337
VWidth: 2048
LBearingChange: 0
UnicodeEnc: 0
InstructionsLength: 0
SplineSet
390 185 m 1,0,-1
 623 846 l 1,1,-1
 738 846 l 1,2,-1
 981 183 l 1,3,-1
 1087 1284 l 1,4,-1
 1205 1284 l 1,5,-1
 1085 0 l 1,6,-1
 943 0 l 1,7,-1
 681 702 l 1,8,-1
 427 0 l 1,9,-1
 286 0 l 1,10,-1
 157 1284 l 1,11,-1
 275 1284 l 1,12,-1
 390 185 l 1,0,-1
EndSplineSet
EndUndoOperation
UndoOperation
Index: 1
Type: 1
WasModified: 0
WasOrder2: 1
Width: 1337
VWidth: 2048
LBearingChange: 0
UnicodeEnc: 0
InstructionsLength: 0
SplineSet
390 185 m 1,0,-1
 623 846 l 1,1,-1
 738 846 l 1,2,-1
 981 183 l 1,3,-1
 1087 1284 l 1,4,-1
 1205 1284 l 1,5,-1
 1085 0 l 1,6,-1
 943 0 l 1,7,-1
 681 702 l 1,8,-1
 427 0 l 1,9,-1
 286 0 l 1,10,-1
 157 1284 l 1,11,-1
 275 1284 l 1,12,-1
 390 185 l 1,0,-1
EndSplineSet
EndUndoOperation
UndoOperation
Index: 2
Type: 1
WasModified: 0
WasOrder2: 1
Width: 1337
VWidth: 2048
LBearingChange: 0
UnicodeEnc: 0
InstructionsLength: 0
SplineSet
390 185 m 1,0,-1
 623 846 l 1,1,-1
 738 846 l 1,2,-1
 981 183 l 1,3,-1
 1087 1284 l 1,4,-1
 1205 1284 l 1,5,-1
 1085 0 l 1,6,-1
 943 0 l 1,7,-1
 681 702 l 1,8,-1
 427 0 l 1,9,-1
 286 0 l 1,10,-1
 157 1284 l 1,11,-1
 275 1284 l 1,12,-1
 390 185 l 1,0,-1
EndSplineSet
EndUndoOperation
EndUndoes
Redoes
EndRedoes
EndUndoRedoHistory
Fore
SplineSet
390 185 m 1,0,-1
 623 846 l 1,1,-1
 738 846 l 1,2,-1
 981 183 l 1,3,-1
 1087 1284 l 1,4,-1
 1205 1284 l 1,5,-1
 1085 0 l 1,6,-1
 943 0 l 1,7,-1
 681 702 l 1,8,-1
 427 0 l 1,9,-1
 286 0 l 1,10,-1
 157 1284 l 1,11,-1
 275 1284 l 1,12,-1
 390 185 l 1,0,-1
EndSplineSet
EndChar

StartChar: X
Encoding: 88 88 58
Width: 899
Flags: W
LayerCount: 2
UndoRedoHistory
Layer: 1
Undoes
UndoOperation
Index: 0
Type: 1
WasModified: 0
WasOrder2: 1
Width: 899
VWidth: 2048
LBearingChange: 0
UnicodeEnc: 0
InstructionsLength: 0
SplineSet
70 1284 m 1,0,-1
 200 1284 l 1,1,-1
 452 745 l 1,2,-1
 702 1284 l 1,3,-1
 820 1284 l 1,4,-1
 535 657 l 1,5,-1
 855 0 l 1,6,-1
 727 0 l 1,7,-1
 453 569 l 1,8,-1
 182 0 l 1,9,-1
 44 0 l 1,10,-1
 362 658 l 1,11,-1
 70 1284 l 1,0,-1
EndSplineSet
EndUndoOperation
UndoOperation
Index: 1
Type: 1
WasModified: 0
WasOrder2: 1
Width: 899
VWidth: 2048
LBearingChange: 0
UnicodeEnc: 0
InstructionsLength: 0
SplineSet
70 1284 m 1,0,-1
 200 1284 l 1,1,-1
 452 745 l 1,2,-1
 702 1284 l 1,3,-1
 820 1284 l 1,4,-1
 535 657 l 1,5,-1
 855 0 l 1,6,-1
 727 0 l 1,7,-1
 453 569 l 1,8,-1
 182 0 l 1,9,-1
 44 0 l 1,10,-1
 362 658 l 1,11,-1
 70 1284 l 1,0,-1
EndSplineSet
EndUndoOperation
UndoOperation
Index: 2
Type: 1
WasModified: 0
WasOrder2: 1
Width: 899
VWidth: 2048
LBearingChange: 0
UnicodeEnc: 0
InstructionsLength: 0
SplineSet
70 1284 m 1,0,-1
 200 1284 l 1,1,-1
 452 745 l 1,2,-1
 702 1284 l 1,3,-1
 820 1284 l 1,4,-1
 535 657 l 1,5,-1
 855 0 l 1,6,-1
 727 0 l 1,7,-1
 453 569 l 1,8,-1
 182 0 l 1,9,-1
 44 0 l 1,10,-1
 362 658 l 1,11,-1
 70 1284 l 1,0,-1
EndSplineSet
EndUndoOperation
EndUndoes
Redoes
EndRedoes
EndUndoRedoHistory
Fore
SplineSet
70 1284 m 1,0,-1
 200 1284 l 1,1,-1
 452 745 l 1,2,-1
 702 1284 l 1,3,-1
 820 1284 l 1,4,-1
 535 657 l 1,5,-1
 855 0 l 1,6,-1
 727 0 l 1,7,-1
 453 569 l 1,8,-1
 182 0 l 1,9,-1
 44 0 l 1,10,-1
 362 658 l 1,11,-1
 70 1284 l 1,0,-1
EndSplineSet
EndChar

StartChar: Y
Encoding: 89 89 59
Width: 926
Flags: W
LayerCount: 2
UndoRedoHistory
Layer: 1
Undoes
UndoOperation
Index: 0
Type: 1
WasModified: 0
WasOrder2: 1
Width: 926
VWidth: 2048
LBearingChange: 0
UnicodeEnc: 0
InstructionsLength: 0
SplineSet
399 586 m 1,0,-1
 15 1284 l 1,1,-1
 157 1284 l 1,2,-1
 463 704 l 1,3,-1
 765 1284 l 1,4,-1
 911 1284 l 1,5,-1
 527 588 l 1,6,-1
 527 0 l 1,7,-1
 399 0 l 1,8,-1
 399 586 l 1,0,-1
EndSplineSet
EndUndoOperation
UndoOperation
Index: 1
Type: 1
WasModified: 0
WasOrder2: 1
Width: 926
VWidth: 2048
LBearingChange: 0
UnicodeEnc: 0
InstructionsLength: 0
SplineSet
399 586 m 1,0,-1
 15 1284 l 1,1,-1
 157 1284 l 1,2,-1
 463 704 l 1,3,-1
 765 1284 l 1,4,-1
 911 1284 l 1,5,-1
 527 588 l 1,6,-1
 527 0 l 1,7,-1
 399 0 l 1,8,-1
 399 586 l 1,0,-1
EndSplineSet
EndUndoOperation
UndoOperation
Index: 2
Type: 1
WasModified: 0
WasOrder2: 1
Width: 926
VWidth: 2048
LBearingChange: 0
UnicodeEnc: 0
InstructionsLength: 0
SplineSet
399 586 m 1,0,-1
 15 1284 l 1,1,-1
 157 1284 l 1,2,-1
 463 704 l 1,3,-1
 765 1284 l 1,4,-1
 911 1284 l 1,5,-1
 527 588 l 1,6,-1
 527 0 l 1,7,-1
 399 0 l 1,8,-1
 399 586 l 1,0,-1
EndSplineSet
EndUndoOperation
EndUndoes
Redoes
EndRedoes
EndUndoRedoHistory
Fore
SplineSet
399 586 m 1,0,-1
 15 1284 l 1,1,-1
 157 1284 l 1,2,-1
 463 704 l 1,3,-1
 765 1284 l 1,4,-1
 911 1284 l 1,5,-1
 527 588 l 1,6,-1
 527 0 l 1,7,-1
 399 0 l 1,8,-1
 399 586 l 1,0,-1
EndSplineSet
EndChar

StartChar: Z
Encoding: 90 90 61
Width: 927
Flags: W
LayerCount: 2
UndoRedoHistory
Layer: 1
Undoes
UndoOperation
Index: 0
Type: 1
WasModified: 0
WasOrder2: 1
Width: 927
VWidth: 2048
LBearingChange: 0
UnicodeEnc: 0
InstructionsLength: 0
SplineSet
841 100 m 1,0,-1
 841 0 l 1,1,-1
 125 0 l 1,2,-1
 104 98 l 1,3,-1
 673 1184 l 1,4,-1
 135 1184 l 1,5,-1
 135 1284 l 1,6,-1
 804 1284 l 1,7,-1
 820 1176 l 1,8,-1
 252 100 l 1,9,-1
 841 100 l 1,0,-1
EndSplineSet
EndUndoOperation
UndoOperation
Index: 1
Type: 1
WasModified: 0
WasOrder2: 1
Width: 927
VWidth: 2048
LBearingChange: 0
UnicodeEnc: 0
InstructionsLength: 0
SplineSet
841 100 m 1,0,-1
 841 0 l 1,1,-1
 125 0 l 1,2,-1
 104 98 l 1,3,-1
 673 1184 l 1,4,-1
 135 1184 l 1,5,-1
 135 1284 l 1,6,-1
 804 1284 l 1,7,-1
 820 1176 l 1,8,-1
 252 100 l 1,9,-1
 841 100 l 1,0,-1
EndSplineSet
EndUndoOperation
UndoOperation
Index: 2
Type: 1
WasModified: 0
WasOrder2: 1
Width: 927
VWidth: 2048
LBearingChange: 0
UnicodeEnc: 0
InstructionsLength: 0
SplineSet
841 100 m 1,0,-1
 841 0 l 1,1,-1
 125 0 l 1,2,-1
 104 98 l 1,3,-1
 673 1184 l 1,4,-1
 135 1184 l 1,5,-1
 135 1284 l 1,6,-1
 804 1284 l 1,7,-1
 820 1176 l 1,8,-1
 252 100 l 1,9,-1
 841 100 l 1,0,-1
EndSplineSet
EndUndoOperation
EndUndoes
Redoes
EndRedoes
EndUndoRedoHistory
Fore
SplineSet
841 100 m 1,0,-1
 841 0 l 1,1,-1
 125 0 l 1,2,-1
 104 98 l 1,3,-1
 673 1184 l 1,4,-1
 135 1184 l 1,5,-1
 135 1284 l 1,6,-1
 804 1284 l 1,7,-1
 820 1176 l 1,8,-1
 252 100 l 1,9,-1
 841 100 l 1,0,-1
EndSplineSet
EndChar

StartChar: a
Encoding: 97 97 62
Width: 953
Flags: W
LayerCount: 2
UndoRedoHistory
Layer: 1
Undoes
UndoOperation
Index: 0
Type: 1
WasModified: 0
WasOrder2: 1
Width: 953
VWidth: 2048
LBearingChange: 0
UnicodeEnc: 0
InstructionsLength: 0
SplineSet
229 278 m 0,0,1
 229 92 229 92 445 92 c 0,2,3
 509 92 509 92 575.5 111 c 128,-1,4
 642 130 642 130 685 158 c 1,5,-1
 685 473 l 1,6,-1
 629 473 l 2,7,8
 581 473 581 473 541 470.5 c 128,-1,9
 501 468 501 468 452 462 c 128,-1,10
 403 456 403 456 366 442 c 128,-1,11
 329 428 329 428 296.5 407.5 c 128,-1,12
 264 387 264 387 246.5 354 c 128,-1,13
 229 321 229 321 229 278 c 0,0,1
166 942 m 1,14,15
 343 1000 343 1000 474 1000 c 0,16,17
 548 1000 548 1000 607 979.5 c 128,-1,18
 666 959 666 959 712.5 915.5 c 128,-1,19
 759 872 759 872 784.5 796.5 c 128,-1,20
 810 721 810 721 810 617 c 2,21,-1
 810 0 l 1,22,-1
 718 0 l 1,23,-1
 698 66 l 1,24,25
 662 37 662 37 582 13.5 c 128,-1,26
 502 -10 502 -10 425 -10 c 0,27,28
 281 -10 281 -10 195 65 c 128,-1,29
 109 140 109 140 109 284 c 0,30,31
 109 330 109 330 123.5 369.5 c 128,-1,32
 138 409 138 409 173.5 446 c 128,-1,33
 209 483 209 483 263.5 509.5 c 128,-1,34
 318 536 318 536 403 551.5 c 128,-1,35
 488 567 488 567 597 567 c 2,36,-1
 685 567 l 1,37,-1
 685 599 l 1,38,39
 684 763 684 763 627.5 829 c 128,-1,40
 571 895 571 895 468 895 c 0,41,42
 453 895 453 895 435.5 893.5 c 128,-1,43
 418 892 418 892 405 890.5 c 128,-1,44
 392 889 392 889 369.5 884.5 c 128,-1,45
 347 880 347 880 336.5 878.5 c 128,-1,46
 326 877 326 877 299 870.5 c 128,-1,47
 272 864 272 864 265 862 c 128,-1,48
 258 860 258 860 226.5 852 c 128,-1,49
 195 844 195 844 191 843 c 1,50,-1
 166 942 l 1,14,15
EndSplineSet
EndUndoOperation
UndoOperation
Index: 1
Type: 1
WasModified: 0
WasOrder2: 1
Width: 953
VWidth: 2048
LBearingChange: 0
UnicodeEnc: 0
InstructionsLength: 0
SplineSet
166 942 m 1,0,1
 343 1000 343 1000 474 1000 c 0,2,3
 548 1000 548 1000 607 979.5 c 128,-1,4
 666 959 666 959 712.5 915.5 c 128,-1,5
 759 872 759 872 784.5 796.5 c 128,-1,6
 810 721 810 721 810 617 c 2,7,-1
 810 0 l 1,8,-1
 718 0 l 1,9,-1
 698 66 l 1,10,11
 662 37 662 37 582 13.5 c 128,-1,12
 502 -10 502 -10 425 -10 c 0,13,14
 281 -10 281 -10 195 65 c 128,-1,15
 109 140 109 140 109 284 c 0,16,17
 109 330 109 330 123.5 369.5 c 128,-1,18
 138 409 138 409 173.5 446 c 128,-1,19
 209 483 209 483 263.5 509.5 c 128,-1,20
 318 536 318 536 403 551.5 c 128,-1,21
 488 567 488 567 597 567 c 2,22,-1
 685 567 l 1,23,-1
 685 599 l 1,24,25
 684 763 684 763 627.5 829 c 128,-1,26
 571 895 571 895 468 895 c 0,27,28
 453 895 453 895 435.5 893.5 c 128,-1,29
 418 892 418 892 405 890.5 c 128,-1,30
 392 889 392 889 369.5 884.5 c 128,-1,31
 347 880 347 880 336.5 878.5 c 128,-1,32
 326 877 326 877 299 870.5 c 128,-1,33
 272 864 272 864 265 862 c 128,-1,34
 258 860 258 860 226.5 852 c 128,-1,35
 195 844 195 844 191 843 c 1,36,-1
 166 942 l 1,0,1
229 278 m 0,37,38
 229 92 229 92 445 92 c 0,39,40
 509 92 509 92 575.5 111 c 128,-1,41
 642 130 642 130 685 158 c 1,42,-1
 685 473 l 1,43,-1
 629 473 l 2,44,45
 581 473 581 473 541 470.5 c 128,-1,46
 501 468 501 468 452 462 c 128,-1,47
 403 456 403 456 366 442 c 128,-1,48
 329 428 329 428 296.5 407.5 c 128,-1,49
 264 387 264 387 246.5 354 c 128,-1,50
 229 321 229 321 229 278 c 0,37,38
EndSplineSet
EndUndoOperation
UndoOperation
Index: 2
Type: 1
WasModified: 0
WasOrder2: 1
Width: 953
VWidth: 2048
LBearingChange: 0
UnicodeEnc: 0
InstructionsLength: 0
SplineSet
166 942 m 1,0,1
 343 1000 343 1000 474 1000 c 0,2,3
 548 1000 548 1000 607 979.5 c 128,-1,4
 666 959 666 959 712.5 915.5 c 128,-1,5
 759 872 759 872 784.5 796.5 c 128,-1,6
 810 721 810 721 810 617 c 2,7,-1
 810 0 l 1,8,-1
 718 0 l 1,9,-1
 698 66 l 1,10,11
 662 37 662 37 582 13.5 c 128,-1,12
 502 -10 502 -10 425 -10 c 0,13,14
 281 -10 281 -10 195 65 c 128,-1,15
 109 140 109 140 109 284 c 0,16,17
 109 330 109 330 123.5 369.5 c 128,-1,18
 138 409 138 409 173.5 446 c 128,-1,19
 209 483 209 483 263.5 509.5 c 128,-1,20
 318 536 318 536 403 551.5 c 128,-1,21
 488 567 488 567 597 567 c 2,22,-1
 685 567 l 1,23,-1
 685 599 l 1,24,25
 684 763 684 763 627.5 829 c 128,-1,26
 571 895 571 895 468 895 c 0,27,28
 453 895 453 895 435.5 893.5 c 128,-1,29
 418 892 418 892 405 890.5 c 128,-1,30
 392 889 392 889 369.5 884.5 c 128,-1,31
 347 880 347 880 336.5 878.5 c 128,-1,32
 326 877 326 877 299 870.5 c 128,-1,33
 272 864 272 864 265 862 c 128,-1,34
 258 860 258 860 226.5 852 c 128,-1,35
 195 844 195 844 191 843 c 1,36,-1
 166 942 l 1,0,1
229 278 m 0,37,38
 229 92 229 92 445 92 c 0,39,40
 509 92 509 92 575.5 111 c 128,-1,41
 642 130 642 130 685 158 c 1,42,-1
 685 473 l 1,43,-1
 629 473 l 2,44,45
 581 473 581 473 541 470.5 c 128,-1,46
 501 468 501 468 452 462 c 128,-1,47
 403 456 403 456 366 442 c 128,-1,48
 329 428 329 428 296.5 407.5 c 128,-1,49
 264 387 264 387 246.5 354 c 128,-1,50
 229 321 229 321 229 278 c 0,37,38
EndSplineSet
EndUndoOperation
EndUndoes
Redoes
EndRedoes
EndUndoRedoHistory
Fore
SplineSet
229 278 m 0,0,1
 229 92 229 92 445 92 c 0,2,3
 509 92 509 92 575.5 111 c 128,-1,4
 642 130 642 130 685 158 c 1,5,-1
 685 473 l 1,6,-1
 629 473 l 2,7,8
 581 473 581 473 541 470.5 c 128,-1,9
 501 468 501 468 452 462 c 128,-1,10
 403 456 403 456 366 442 c 128,-1,11
 329 428 329 428 296.5 407.5 c 128,-1,12
 264 387 264 387 246.5 354 c 128,-1,13
 229 321 229 321 229 278 c 0,0,1
166 942 m 1,14,15
 343 1000 343 1000 474 1000 c 0,16,17
 548 1000 548 1000 607 979.5 c 128,-1,18
 666 959 666 959 712.5 915.5 c 128,-1,19
 759 872 759 872 784.5 796.5 c 128,-1,20
 810 721 810 721 810 617 c 2,21,-1
 810 0 l 1,22,-1
 718 0 l 1,23,-1
 698 66 l 1,24,25
 662 37 662 37 582 13.5 c 128,-1,26
 502 -10 502 -10 425 -10 c 0,27,28
 281 -10 281 -10 195 65 c 128,-1,29
 109 140 109 140 109 284 c 0,30,31
 109 330 109 330 123.5 369.5 c 128,-1,32
 138 409 138 409 173.5 446 c 128,-1,33
 209 483 209 483 263.5 509.5 c 128,-1,34
 318 536 318 536 403 551.5 c 128,-1,35
 488 567 488 567 597 567 c 2,36,-1
 685 567 l 1,37,-1
 685 599 l 1,38,39
 684 763 684 763 627.5 829 c 128,-1,40
 571 895 571 895 468 895 c 0,41,42
 453 895 453 895 435.5 893.5 c 128,-1,43
 418 892 418 892 405 890.5 c 128,-1,44
 392 889 392 889 369.5 884.5 c 128,-1,45
 347 880 347 880 336.5 878.5 c 128,-1,46
 326 877 326 877 299 870.5 c 128,-1,47
 272 864 272 864 265 862 c 128,-1,48
 258 860 258 860 226.5 852 c 128,-1,49
 195 844 195 844 191 843 c 1,50,-1
 166 942 l 1,14,15
EndSplineSet
EndChar

StartChar: acute
Encoding: 180 180 65
Width: 410
Flags: W
LayerCount: 2
UndoRedoHistory
Layer: 1
Undoes
UndoOperation
Index: 0
Type: 1
WasModified: 0
WasOrder2: 1
Width: 410
VWidth: 2048
LBearingChange: 0
UnicodeEnc: 0
InstructionsLength: 0
SplineSet
113 1022 m 1,0,-1
 358 1363 l 1,1,-1
 464 1283 l 1,2,-1
 367 1174 l 1,3,4
 346 1148 346 1148 296 1098 c 128,-1,5
 246 1048 246 1048 206 1010 c 2,6,-1
 166 973 l 1,7,-1
 113 1022 l 1,0,-1
EndSplineSet
EndUndoOperation
UndoOperation
Index: 1
Type: 1
WasModified: 0
WasOrder2: 1
Width: 410
VWidth: 2048
LBearingChange: 0
UnicodeEnc: 0
InstructionsLength: 0
SplineSet
113 1022 m 1,0,-1
 358 1363 l 1,1,-1
 464 1283 l 1,2,-1
 367 1174 l 1,3,4
 346 1148 346 1148 296 1098 c 128,-1,5
 246 1048 246 1048 206 1010 c 2,6,-1
 166 973 l 1,7,-1
 113 1022 l 1,0,-1
EndSplineSet
EndUndoOperation
UndoOperation
Index: 2
Type: 1
WasModified: 0
WasOrder2: 1
Width: 410
VWidth: 2048
LBearingChange: 0
UnicodeEnc: 0
InstructionsLength: 0
SplineSet
113 1022 m 1,0,-1
 358 1363 l 1,1,-1
 464 1283 l 1,2,-1
 367 1174 l 1,3,4
 346 1148 346 1148 296 1098 c 128,-1,5
 246 1048 246 1048 206 1010 c 2,6,-1
 166 973 l 1,7,-1
 113 1022 l 1,0,-1
EndSplineSet
EndUndoOperation
EndUndoes
Redoes
EndRedoes
EndUndoRedoHistory
Fore
SplineSet
113 1022 m 1,0,-1
 358 1363 l 1,1,-1
 464 1283 l 1,2,-1
 367 1174 l 1,3,4
 346 1148 346 1148 296 1098 c 128,-1,5
 246 1048 246 1048 206 1010 c 2,6,-1
 166 973 l 1,7,-1
 113 1022 l 1,0,-1
EndSplineSet
EndChar

StartChar: ae
Encoding: 230 230 67
Width: 1541
Flags: W
LayerCount: 2
UndoRedoHistory
Layer: 1
Undoes
UndoOperation
Index: 0
Type: 1
WasModified: 0
WasOrder2: 1
Width: 1541
VWidth: 2048
LBearingChange: 0
UnicodeEnc: 0
InstructionsLength: 0
SplineSet
813 559 m 1,0,-1
 1126 559 l 2,1,2
 1222 559 1222 559 1271.5 601.5 c 128,-1,3
 1321 644 1321 644 1321 707 c 0,4,5
 1321 780 1321 780 1259.5 838 c 128,-1,6
 1198 896 1198 896 1099 896 c 0,7,8
 966 896 966 896 895.5 808 c 128,-1,9
 825 720 825 720 813 559 c 1,0,-1
229 278 m 0,10,11
 229 92 229 92 445 92 c 0,12,13
 530 92 530 92 593.5 117.5 c 128,-1,14
 657 143 657 143 732 216 c 1,15,16
 688 319 688 319 685 472 c 1,17,-1
 685 473 l 1,18,-1
 629 473 l 2,19,20
 581 473 581 473 541 470.5 c 128,-1,21
 501 468 501 468 452 462 c 128,-1,22
 403 456 403 456 366 442 c 128,-1,23
 329 428 329 428 296.5 407.5 c 128,-1,24
 264 387 264 387 246.5 354 c 128,-1,25
 229 321 229 321 229 278 c 0,10,11
166 942 m 1,26,27
 343 1000 343 1000 474 1000 c 0,28,29
 540 1000 540 1000 596.5 980.5 c 128,-1,30
 653 961 653 961 699 912 c 128,-1,31
 745 863 745 863 762 789 c 1,32,33
 855 1000 855 1000 1087 1000 c 0,34,35
 1232 1000 1232 1000 1330.5 908 c 128,-1,36
 1429 816 1429 816 1429 707 c 0,37,38
 1429 604 1429 604 1354 536.5 c 128,-1,39
 1279 469 1279 469 1128 469 c 2,40,-1
 813 469 l 1,41,42
 814 380 814 380 831 312.5 c 128,-1,43
 848 245 848 245 874 204.5 c 128,-1,44
 900 164 900 164 938.5 139 c 128,-1,45
 977 114 977 114 1016 105 c 128,-1,46
 1055 96 1055 96 1102 96 c 0,47,48
 1256 96 1256 96 1382 176 c 1,49,-1
 1421 75 l 1,50,51
 1353 33 1353 33 1269 11.5 c 128,-1,52
 1185 -10 1185 -10 1109 -10 c 0,53,54
 874 -10 874 -10 768 149 c 1,55,56
 717 74 717 74 639.5 32 c 128,-1,57
 562 -10 562 -10 425 -10 c 0,58,59
 281 -10 281 -10 195 65 c 128,-1,60
 109 140 109 140 109 284 c 0,61,62
 109 330 109 330 123.5 369.5 c 128,-1,63
 138 409 138 409 173.5 446 c 128,-1,64
 209 483 209 483 263.5 509.5 c 128,-1,65
 318 536 318 536 403 551.5 c 128,-1,66
 488 567 488 567 597 567 c 2,67,-1
 685 567 l 1,68,-1
 685 599 l 1,69,70
 684 763 684 763 627.5 829 c 128,-1,71
 571 895 571 895 468 895 c 0,72,73
 453 895 453 895 435.5 893.5 c 128,-1,74
 418 892 418 892 405 890.5 c 128,-1,75
 392 889 392 889 369.5 884.5 c 128,-1,76
 347 880 347 880 336.5 878.5 c 128,-1,77
 326 877 326 877 299 870.5 c 128,-1,78
 272 864 272 864 265 862 c 128,-1,79
 258 860 258 860 226.5 852 c 128,-1,80
 195 844 195 844 191 843 c 1,81,-1
 166 942 l 1,26,27
EndSplineSet
EndUndoOperation
UndoOperation
Index: 1
Type: 1
WasModified: 0
WasOrder2: 1
Width: 1541
VWidth: 2048
LBearingChange: 0
UnicodeEnc: 0
InstructionsLength: 0
SplineSet
166 942 m 1,0,1
 343 1000 343 1000 474 1000 c 0,2,3
 540 1000 540 1000 596.5 980.5 c 128,-1,4
 653 961 653 961 699 912 c 128,-1,5
 745 863 745 863 762 789 c 1,6,7
 855 1000 855 1000 1087 1000 c 0,8,9
 1232 1000 1232 1000 1330.5 908 c 128,-1,10
 1429 816 1429 816 1429 707 c 0,11,12
 1429 604 1429 604 1354 536.5 c 128,-1,13
 1279 469 1279 469 1128 469 c 2,14,-1
 813 469 l 1,15,16
 814 380 814 380 831 312.5 c 128,-1,17
 848 245 848 245 874 204.5 c 128,-1,18
 900 164 900 164 938.5 139 c 128,-1,19
 977 114 977 114 1016 105 c 128,-1,20
 1055 96 1055 96 1102 96 c 0,21,22
 1256 96 1256 96 1382 176 c 1,23,-1
 1421 75 l 1,24,25
 1353 33 1353 33 1269 11.5 c 128,-1,26
 1185 -10 1185 -10 1109 -10 c 0,27,28
 874 -10 874 -10 768 149 c 1,29,30
 717 74 717 74 639.5 32 c 128,-1,31
 562 -10 562 -10 425 -10 c 0,32,33
 281 -10 281 -10 195 65 c 128,-1,34
 109 140 109 140 109 284 c 0,35,36
 109 330 109 330 123.5 369.5 c 128,-1,37
 138 409 138 409 173.5 446 c 128,-1,38
 209 483 209 483 263.5 509.5 c 128,-1,39
 318 536 318 536 403 551.5 c 128,-1,40
 488 567 488 567 597 567 c 2,41,-1
 685 567 l 1,42,-1
 685 599 l 1,43,44
 684 763 684 763 627.5 829 c 128,-1,45
 571 895 571 895 468 895 c 0,46,47
 453 895 453 895 435.5 893.5 c 128,-1,48
 418 892 418 892 405 890.5 c 128,-1,49
 392 889 392 889 369.5 884.5 c 128,-1,50
 347 880 347 880 336.5 878.5 c 128,-1,51
 326 877 326 877 299 870.5 c 128,-1,52
 272 864 272 864 265 862 c 128,-1,53
 258 860 258 860 226.5 852 c 128,-1,54
 195 844 195 844 191 843 c 1,55,-1
 166 942 l 1,0,1
229 278 m 0,56,57
 229 92 229 92 445 92 c 0,58,59
 530 92 530 92 593.5 117.5 c 128,-1,60
 657 143 657 143 732 216 c 1,61,62
 688 319 688 319 685 472 c 1,63,-1
 685 473 l 1,64,-1
 629 473 l 2,65,66
 581 473 581 473 541 470.5 c 128,-1,67
 501 468 501 468 452 462 c 128,-1,68
 403 456 403 456 366 442 c 128,-1,69
 329 428 329 428 296.5 407.5 c 128,-1,70
 264 387 264 387 246.5 354 c 128,-1,71
 229 321 229 321 229 278 c 0,56,57
813 559 m 1,72,-1
 1126 559 l 2,73,74
 1222 559 1222 559 1271.5 601.5 c 128,-1,75
 1321 644 1321 644 1321 707 c 0,76,77
 1321 780 1321 780 1259.5 838 c 128,-1,78
 1198 896 1198 896 1099 896 c 0,79,80
 966 896 966 896 895.5 808 c 128,-1,81
 825 720 825 720 813 559 c 1,72,-1
EndSplineSet
EndUndoOperation
UndoOperation
Index: 2
Type: 1
WasModified: 0
WasOrder2: 1
Width: 1541
VWidth: 2048
LBearingChange: 0
UnicodeEnc: 0
InstructionsLength: 0
SplineSet
166 942 m 1,0,1
 343 1000 343 1000 474 1000 c 0,2,3
 540 1000 540 1000 596.5 980.5 c 128,-1,4
 653 961 653 961 699 912 c 128,-1,5
 745 863 745 863 762 789 c 1,6,7
 855 1000 855 1000 1087 1000 c 0,8,9
 1232 1000 1232 1000 1330.5 908 c 128,-1,10
 1429 816 1429 816 1429 707 c 0,11,12
 1429 604 1429 604 1354 536.5 c 128,-1,13
 1279 469 1279 469 1128 469 c 2,14,-1
 813 469 l 1,15,16
 814 380 814 380 831 312.5 c 128,-1,17
 848 245 848 245 874 204.5 c 128,-1,18
 900 164 900 164 938.5 139 c 128,-1,19
 977 114 977 114 1016 105 c 128,-1,20
 1055 96 1055 96 1102 96 c 0,21,22
 1256 96 1256 96 1382 176 c 1,23,-1
 1421 75 l 1,24,25
 1353 33 1353 33 1269 11.5 c 128,-1,26
 1185 -10 1185 -10 1109 -10 c 0,27,28
 874 -10 874 -10 768 149 c 1,29,30
 717 74 717 74 639.5 32 c 128,-1,31
 562 -10 562 -10 425 -10 c 0,32,33
 281 -10 281 -10 195 65 c 128,-1,34
 109 140 109 140 109 284 c 0,35,36
 109 330 109 330 123.5 369.5 c 128,-1,37
 138 409 138 409 173.5 446 c 128,-1,38
 209 483 209 483 263.5 509.5 c 128,-1,39
 318 536 318 536 403 551.5 c 128,-1,40
 488 567 488 567 597 567 c 2,41,-1
 685 567 l 1,42,-1
 685 599 l 1,43,44
 684 763 684 763 627.5 829 c 128,-1,45
 571 895 571 895 468 895 c 0,46,47
 453 895 453 895 435.5 893.5 c 128,-1,48
 418 892 418 892 405 890.5 c 128,-1,49
 392 889 392 889 369.5 884.5 c 128,-1,50
 347 880 347 880 336.5 878.5 c 128,-1,51
 326 877 326 877 299 870.5 c 128,-1,52
 272 864 272 864 265 862 c 128,-1,53
 258 860 258 860 226.5 852 c 128,-1,54
 195 844 195 844 191 843 c 1,55,-1
 166 942 l 1,0,1
229 278 m 0,56,57
 229 92 229 92 445 92 c 0,58,59
 530 92 530 92 593.5 117.5 c 128,-1,60
 657 143 657 143 732 216 c 1,61,62
 688 319 688 319 685 472 c 1,63,-1
 685 473 l 1,64,-1
 629 473 l 2,65,66
 581 473 581 473 541 470.5 c 128,-1,67
 501 468 501 468 452 462 c 128,-1,68
 403 456 403 456 366 442 c 128,-1,69
 329 428 329 428 296.5 407.5 c 128,-1,70
 264 387 264 387 246.5 354 c 128,-1,71
 229 321 229 321 229 278 c 0,56,57
813 559 m 1,72,-1
 1126 559 l 2,73,74
 1222 559 1222 559 1271.5 601.5 c 128,-1,75
 1321 644 1321 644 1321 707 c 0,76,77
 1321 780 1321 780 1259.5 838 c 128,-1,78
 1198 896 1198 896 1099 896 c 0,79,80
 966 896 966 896 895.5 808 c 128,-1,81
 825 720 825 720 813 559 c 1,72,-1
EndSplineSet
EndUndoOperation
EndUndoes
Redoes
EndRedoes
EndUndoRedoHistory
Fore
SplineSet
813 559 m 1,0,-1
 1126 559 l 2,1,2
 1222 559 1222 559 1271.5 601.5 c 128,-1,3
 1321 644 1321 644 1321 707 c 0,4,5
 1321 780 1321 780 1259.5 838 c 128,-1,6
 1198 896 1198 896 1099 896 c 0,7,8
 966 896 966 896 895.5 808 c 128,-1,9
 825 720 825 720 813 559 c 1,0,-1
229 278 m 0,10,11
 229 92 229 92 445 92 c 0,12,13
 530 92 530 92 593.5 117.5 c 128,-1,14
 657 143 657 143 732 216 c 1,15,16
 688 319 688 319 685 472 c 1,17,-1
 685 473 l 1,18,-1
 629 473 l 2,19,20
 581 473 581 473 541 470.5 c 128,-1,21
 501 468 501 468 452 462 c 128,-1,22
 403 456 403 456 366 442 c 128,-1,23
 329 428 329 428 296.5 407.5 c 128,-1,24
 264 387 264 387 246.5 354 c 128,-1,25
 229 321 229 321 229 278 c 0,10,11
166 942 m 1,26,27
 343 1000 343 1000 474 1000 c 0,28,29
 540 1000 540 1000 596.5 980.5 c 128,-1,30
 653 961 653 961 699 912 c 128,-1,31
 745 863 745 863 762 789 c 1,32,33
 855 1000 855 1000 1087 1000 c 0,34,35
 1232 1000 1232 1000 1330.5 908 c 128,-1,36
 1429 816 1429 816 1429 707 c 0,37,38
 1429 604 1429 604 1354 536.5 c 128,-1,39
 1279 469 1279 469 1128 469 c 2,40,-1
 813 469 l 1,41,42
 814 380 814 380 831 312.5 c 128,-1,43
 848 245 848 245 874 204.5 c 128,-1,44
 900 164 900 164 938.5 139 c 128,-1,45
 977 114 977 114 1016 105 c 128,-1,46
 1055 96 1055 96 1102 96 c 0,47,48
 1256 96 1256 96 1382 176 c 1,49,-1
 1421 75 l 1,50,51
 1353 33 1353 33 1269 11.5 c 128,-1,52
 1185 -10 1185 -10 1109 -10 c 0,53,54
 874 -10 874 -10 768 149 c 1,55,56
 717 74 717 74 639.5 32 c 128,-1,57
 562 -10 562 -10 425 -10 c 0,58,59
 281 -10 281 -10 195 65 c 128,-1,60
 109 140 109 140 109 284 c 0,61,62
 109 330 109 330 123.5 369.5 c 128,-1,63
 138 409 138 409 173.5 446 c 128,-1,64
 209 483 209 483 263.5 509.5 c 128,-1,65
 318 536 318 536 403 551.5 c 128,-1,66
 488 567 488 567 597 567 c 2,67,-1
 685 567 l 1,68,-1
 685 599 l 1,69,70
 684 763 684 763 627.5 829 c 128,-1,71
 571 895 571 895 468 895 c 0,72,73
 453 895 453 895 435.5 893.5 c 128,-1,74
 418 892 418 892 405 890.5 c 128,-1,75
 392 889 392 889 369.5 884.5 c 128,-1,76
 347 880 347 880 336.5 878.5 c 128,-1,77
 326 877 326 877 299 870.5 c 128,-1,78
 272 864 272 864 265 862 c 128,-1,79
 258 860 258 860 226.5 852 c 128,-1,80
 195 844 195 844 191 843 c 1,81,-1
 166 942 l 1,26,27
EndSplineSet
EndChar

StartChar: ampersand
Encoding: 38 38 69
Width: 1100
Flags: W
LayerCount: 2
UndoRedoHistory
Layer: 1
Undoes
UndoOperation
Index: 0
Type: 1
WasModified: 0
WasOrder2: 1
Width: 1100
VWidth: 2048
LBearingChange: 0
UnicodeEnc: 0
InstructionsLength: 0
SplineSet
1024 489 m 1,0,1
 985 313 985 313 898 191 c 1,2,-1
 1002 54 l 1,3,-1
 908 -19 l 1,4,-1
 819 100 l 1,5,6
 697 -10 697 -10 505 -10 c 0,7,8
 321 -10 321 -10 222.5 67.5 c 128,-1,9
 124 145 124 145 124 291 c 0,10,11
 124 356 124 356 144 413.5 c 128,-1,12
 164 471 164 471 204.5 521.5 c 128,-1,13
 245 572 245 572 282.5 607 c 128,-1,14
 320 642 320 642 378 689 c 1,15,-1
 312 778 l 1,16,17
 209 924 209 924 209 1041 c 0,18,19
 209 1106 209 1106 233 1157.5 c 128,-1,20
 257 1209 257 1209 297 1239.5 c 128,-1,21
 337 1270 337 1270 386 1285.5 c 128,-1,22
 435 1301 435 1301 489 1301 c 0,23,24
 613 1301 613 1301 690.5 1234.5 c 128,-1,25
 768 1168 768 1168 768 1038 c 0,26,27
 768 934 768 934 706.5 846.5 c 128,-1,28
 645 759 645 759 537 667 c 1,29,-1
 824 288 l 1,30,31
 878 383 878 383 915 522 c 1,32,-1
 1024 489 l 1,0,1
465 753 m 1,33,34
 547 822 547 822 593.5 889 c 128,-1,35
 640 956 640 956 640 1033 c 0,36,37
 640 1196 640 1196 492 1196 c 0,38,39
 419 1196 419 1196 378 1157 c 128,-1,40
 337 1118 337 1118 337 1044 c 0,41,42
 337 976 337 976 362 918.5 c 128,-1,43
 387 861 387 861 436 792 c 1,44,-1
 465 753 l 1,33,34
449 606 m 1,45,46
 388 556 388 556 349 515 c 128,-1,47
 310 474 310 474 281 416 c 128,-1,48
 252 358 252 358 252 297 c 0,49,50
 252 96 252 96 519 96 c 0,51,52
 656 96 656 96 751 191 c 1,53,-1
 449 606 l 1,45,46
EndSplineSet
EndUndoOperation
UndoOperation
Index: 1
Type: 1
WasModified: 0
WasOrder2: 1
Width: 1100
VWidth: 2048
LBearingChange: 0
UnicodeEnc: 0
InstructionsLength: 0
SplineSet
449 606 m 1,0,1
 388 556 388 556 349 515 c 128,-1,2
 310 474 310 474 281 416 c 128,-1,3
 252 358 252 358 252 297 c 0,4,5
 252 96 252 96 519 96 c 0,6,7
 656 96 656 96 751 191 c 1,8,-1
 449 606 l 1,0,1
465 753 m 1,9,10
 547 822 547 822 593.5 889 c 128,-1,11
 640 956 640 956 640 1033 c 0,12,13
 640 1196 640 1196 492 1196 c 0,14,15
 419 1196 419 1196 378 1157 c 128,-1,16
 337 1118 337 1118 337 1044 c 0,17,18
 337 976 337 976 362 918.5 c 128,-1,19
 387 861 387 861 436 792 c 1,20,-1
 465 753 l 1,9,10
1024 489 m 1,21,22
 985 313 985 313 898 191 c 1,23,-1
 1002 54 l 1,24,-1
 908 -19 l 1,25,-1
 819 100 l 1,26,27
 697 -10 697 -10 505 -10 c 0,28,29
 321 -10 321 -10 222.5 67.5 c 128,-1,30
 124 145 124 145 124 291 c 0,31,32
 124 356 124 356 144 413.5 c 128,-1,33
 164 471 164 471 204.5 521.5 c 128,-1,34
 245 572 245 572 282.5 607 c 128,-1,35
 320 642 320 642 378 689 c 1,36,-1
 312 778 l 1,37,38
 209 924 209 924 209 1041 c 0,39,40
 209 1106 209 1106 233 1157.5 c 128,-1,41
 257 1209 257 1209 297 1239.5 c 128,-1,42
 337 1270 337 1270 386 1285.5 c 128,-1,43
 435 1301 435 1301 489 1301 c 0,44,45
 613 1301 613 1301 690.5 1234.5 c 128,-1,46
 768 1168 768 1168 768 1038 c 0,47,48
 768 934 768 934 706.5 846.5 c 128,-1,49
 645 759 645 759 537 667 c 1,50,-1
 824 288 l 1,51,52
 878 383 878 383 915 522 c 1,53,-1
 1024 489 l 1,21,22
EndSplineSet
EndUndoOperation
UndoOperation
Index: 2
Type: 1
WasModified: 0
WasOrder2: 1
Width: 1100
VWidth: 2048
LBearingChange: 0
UnicodeEnc: 0
InstructionsLength: 0
SplineSet
449 606 m 1,0,1
 388 556 388 556 349 515 c 128,-1,2
 310 474 310 474 281 416 c 128,-1,3
 252 358 252 358 252 297 c 0,4,5
 252 96 252 96 519 96 c 0,6,7
 656 96 656 96 751 191 c 1,8,-1
 449 606 l 1,0,1
465 753 m 1,9,10
 547 822 547 822 593.5 889 c 128,-1,11
 640 956 640 956 640 1033 c 0,12,13
 640 1196 640 1196 492 1196 c 0,14,15
 419 1196 419 1196 378 1157 c 128,-1,16
 337 1118 337 1118 337 1044 c 0,17,18
 337 976 337 976 362 918.5 c 128,-1,19
 387 861 387 861 436 792 c 1,20,-1
 465 753 l 1,9,10
1024 489 m 1,21,22
 985 313 985 313 898 191 c 1,23,-1
 1002 54 l 1,24,-1
 908 -19 l 1,25,-1
 819 100 l 1,26,27
 697 -10 697 -10 505 -10 c 0,28,29
 321 -10 321 -10 222.5 67.5 c 128,-1,30
 124 145 124 145 124 291 c 0,31,32
 124 356 124 356 144 413.5 c 128,-1,33
 164 471 164 471 204.5 521.5 c 128,-1,34
 245 572 245 572 282.5 607 c 128,-1,35
 320 642 320 642 378 689 c 1,36,-1
 312 778 l 1,37,38
 209 924 209 924 209 1041 c 0,39,40
 209 1106 209 1106 233 1157.5 c 128,-1,41
 257 1209 257 1209 297 1239.5 c 128,-1,42
 337 1270 337 1270 386 1285.5 c 128,-1,43
 435 1301 435 1301 489 1301 c 0,44,45
 613 1301 613 1301 690.5 1234.5 c 128,-1,46
 768 1168 768 1168 768 1038 c 0,47,48
 768 934 768 934 706.5 846.5 c 128,-1,49
 645 759 645 759 537 667 c 1,50,-1
 824 288 l 1,51,52
 878 383 878 383 915 522 c 1,53,-1
 1024 489 l 1,21,22
EndSplineSet
EndUndoOperation
EndUndoes
Redoes
EndRedoes
EndUndoRedoHistory
Fore
SplineSet
1024 489 m 1,0,1
 985 313 985 313 898 191 c 1,2,-1
 1002 54 l 1,3,-1
 908 -19 l 1,4,-1
 819 100 l 1,5,6
 697 -10 697 -10 505 -10 c 0,7,8
 321 -10 321 -10 222.5 67.5 c 128,-1,9
 124 145 124 145 124 291 c 0,10,11
 124 356 124 356 144 413.5 c 128,-1,12
 164 471 164 471 204.5 521.5 c 128,-1,13
 245 572 245 572 282.5 607 c 128,-1,14
 320 642 320 642 378 689 c 1,15,-1
 312 778 l 1,16,17
 209 924 209 924 209 1041 c 0,18,19
 209 1106 209 1106 233 1157.5 c 128,-1,20
 257 1209 257 1209 297 1239.5 c 128,-1,21
 337 1270 337 1270 386 1285.5 c 128,-1,22
 435 1301 435 1301 489 1301 c 0,23,24
 613 1301 613 1301 690.5 1234.5 c 128,-1,25
 768 1168 768 1168 768 1038 c 0,26,27
 768 934 768 934 706.5 846.5 c 128,-1,28
 645 759 645 759 537 667 c 1,29,-1
 824 288 l 1,30,31
 878 383 878 383 915 522 c 1,32,-1
 1024 489 l 1,0,1
465 753 m 1,33,34
 547 822 547 822 593.5 889 c 128,-1,35
 640 956 640 956 640 1033 c 0,36,37
 640 1196 640 1196 492 1196 c 0,38,39
 419 1196 419 1196 378 1157 c 128,-1,40
 337 1118 337 1118 337 1044 c 0,41,42
 337 976 337 976 362 918.5 c 128,-1,43
 387 861 387 861 436 792 c 1,44,-1
 465 753 l 1,33,34
449 606 m 1,45,46
 388 556 388 556 349 515 c 128,-1,47
 310 474 310 474 281 416 c 128,-1,48
 252 358 252 358 252 297 c 0,49,50
 252 96 252 96 519 96 c 0,51,52
 656 96 656 96 751 191 c 1,53,-1
 449 606 l 1,45,46
EndSplineSet
EndChar

StartChar: approxequal
Encoding: 8776 8776 70
Width: 1146
Flags: W
LayerCount: 2
UndoRedoHistory
Layer: 1
Undoes
UndoOperation
Index: 0
Type: 1
WasModified: 0
WasOrder2: 1
Width: 1146
VWidth: 2048
LBearingChange: 0
UnicodeEnc: 0
InstructionsLength: 0
SplineSet
940 284 m 2,0,1
 872 204 872 204 771 202 c 1,2,3
 711 202 711 202 663 226 c 2,4,-1
 621 247 l 2,5,6
 605 255 605 255 575 275 c 2,7,-1
 537 300 l 1,8,9
 490 327 490 327 471 337 c 128,-1,10
 452 347 452 347 424 357.5 c 128,-1,11
 396 368 396 368 375 368 c 0,12,13
 329 368 329 368 285 331 c 128,-1,14
 241 294 241 294 189 225 c 1,15,-1
 123 289 l 1,16,17
 246 467 246 467 377 467 c 0,18,19
 453 467 453 467 599 376 c 1,20,-1
 656 340 l 2,21,22
 677 327 677 327 714 314.5 c 128,-1,23
 751 302 751 302 778 302 c 0,24,25
 854 302 854 302 956 441 c 1,26,-1
 1020 380 l 1,27,-1
 1017 379 l 1,28,-1
 977 327 l 1,29,-1
 940 284 l 2,0,1
943 660 m 2,30,31
 874 580 874 580 773 578 c 0,32,33
 741 578 741 578 697.5 592 c 128,-1,34
 654 606 654 606 630 620 c 1,35,-1
 564 662 l 1,36,-1
 503 696 l 1,37,38
 421 746 421 746 377 746 c 128,-1,39
 333 746 333 746 290 710.5 c 128,-1,40
 247 675 247 675 192 603 c 1,41,-1
 125 667 l 1,42,43
 256 848 256 848 380 848 c 0,44,45
 418 848 418 848 458.5 830.5 c 128,-1,46
 499 813 499 813 609 752 c 0,47,48
 733 683 733 683 777 683 c 0,49,50
 857 683 857 683 956 821 c 1,51,-1
 1020 758 l 1,52,-1
 1020 755 l 1,53,-1
 980 703 l 1,54,-1
 943 660 l 2,30,31
EndSplineSet
EndUndoOperation
UndoOperation
Index: 1
Type: 1
WasModified: 0
WasOrder2: 1
Width: 1146
VWidth: 2048
LBearingChange: 0
UnicodeEnc: 0
InstructionsLength: 0
SplineSet
943 660 m 2,0,1
 874 580 874 580 773 578 c 0,2,3
 741 578 741 578 697.5 592 c 128,-1,4
 654 606 654 606 630 620 c 1,5,-1
 564 662 l 1,6,-1
 503 696 l 1,7,8
 421 746 421 746 377 746 c 128,-1,9
 333 746 333 746 290 710.5 c 128,-1,10
 247 675 247 675 192 603 c 1,11,-1
 125 667 l 1,12,13
 256 848 256 848 380 848 c 0,14,15
 418 848 418 848 458.5 830.5 c 128,-1,16
 499 813 499 813 609 752 c 0,17,18
 733 683 733 683 777 683 c 0,19,20
 857 683 857 683 956 821 c 1,21,-1
 1020 758 l 1,22,-1
 1020 755 l 1,23,-1
 980 703 l 1,24,-1
 943 660 l 2,0,1
940 284 m 2,25,26
 872 204 872 204 771 202 c 1,27,28
 711 202 711 202 663 226 c 2,29,-1
 621 247 l 2,30,31
 605 255 605 255 575 275 c 2,32,-1
 537 300 l 1,33,34
 490 327 490 327 471 337 c 128,-1,35
 452 347 452 347 424 357.5 c 128,-1,36
 396 368 396 368 375 368 c 0,37,38
 329 368 329 368 285 331 c 128,-1,39
 241 294 241 294 189 225 c 1,40,-1
 123 289 l 1,41,42
 246 467 246 467 377 467 c 0,43,44
 453 467 453 467 599 376 c 1,45,-1
 656 340 l 2,46,47
 677 327 677 327 714 314.5 c 128,-1,48
 751 302 751 302 778 302 c 0,49,50
 854 302 854 302 956 441 c 1,51,-1
 1020 380 l 1,52,-1
 1017 379 l 1,53,-1
 977 327 l 1,54,-1
 940 284 l 2,25,26
EndSplineSet
EndUndoOperation
UndoOperation
Index: 2
Type: 1
WasModified: 0
WasOrder2: 1
Width: 1146
VWidth: 2048
LBearingChange: 0
UnicodeEnc: 0
InstructionsLength: 0
SplineSet
943 660 m 2,0,1
 874 580 874 580 773 578 c 0,2,3
 741 578 741 578 697.5 592 c 128,-1,4
 654 606 654 606 630 620 c 1,5,-1
 564 662 l 1,6,-1
 503 696 l 1,7,8
 421 746 421 746 377 746 c 128,-1,9
 333 746 333 746 290 710.5 c 128,-1,10
 247 675 247 675 192 603 c 1,11,-1
 125 667 l 1,12,13
 256 848 256 848 380 848 c 0,14,15
 418 848 418 848 458.5 830.5 c 128,-1,16
 499 813 499 813 609 752 c 0,17,18
 733 683 733 683 777 683 c 0,19,20
 857 683 857 683 956 821 c 1,21,-1
 1020 758 l 1,22,-1
 1020 755 l 1,23,-1
 980 703 l 1,24,-1
 943 660 l 2,0,1
940 284 m 2,25,26
 872 204 872 204 771 202 c 1,27,28
 711 202 711 202 663 226 c 2,29,-1
 621 247 l 2,30,31
 605 255 605 255 575 275 c 2,32,-1
 537 300 l 1,33,34
 490 327 490 327 471 337 c 128,-1,35
 452 347 452 347 424 357.5 c 128,-1,36
 396 368 396 368 375 368 c 0,37,38
 329 368 329 368 285 331 c 128,-1,39
 241 294 241 294 189 225 c 1,40,-1
 123 289 l 1,41,42
 246 467 246 467 377 467 c 0,43,44
 453 467 453 467 599 376 c 1,45,-1
 656 340 l 2,46,47
 677 327 677 327 714 314.5 c 128,-1,48
 751 302 751 302 778 302 c 0,49,50
 854 302 854 302 956 441 c 1,51,-1
 1020 380 l 1,52,-1
 1017 379 l 1,53,-1
 977 327 l 1,54,-1
 940 284 l 2,25,26
EndSplineSet
EndUndoOperation
EndUndoes
Redoes
EndRedoes
EndUndoRedoHistory
Fore
SplineSet
940 284 m 2,0,1
 872 204 872 204 771 202 c 1,2,3
 711 202 711 202 663 226 c 2,4,-1
 621 247 l 2,5,6
 605 255 605 255 575 275 c 2,7,-1
 537 300 l 1,8,9
 490 327 490 327 471 337 c 128,-1,10
 452 347 452 347 424 357.5 c 128,-1,11
 396 368 396 368 375 368 c 0,12,13
 329 368 329 368 285 331 c 128,-1,14
 241 294 241 294 189 225 c 1,15,-1
 123 289 l 1,16,17
 246 467 246 467 377 467 c 0,18,19
 453 467 453 467 599 376 c 1,20,-1
 656 340 l 2,21,22
 677 327 677 327 714 314.5 c 128,-1,23
 751 302 751 302 778 302 c 0,24,25
 854 302 854 302 956 441 c 1,26,-1
 1020 380 l 1,27,-1
 1017 379 l 1,28,-1
 977 327 l 1,29,-1
 940 284 l 2,0,1
943 660 m 2,30,31
 874 580 874 580 773 578 c 0,32,33
 741 578 741 578 697.5 592 c 128,-1,34
 654 606 654 606 630 620 c 1,35,-1
 564 662 l 1,36,-1
 503 696 l 1,37,38
 421 746 421 746 377 746 c 128,-1,39
 333 746 333 746 290 710.5 c 128,-1,40
 247 675 247 675 192 603 c 1,41,-1
 125 667 l 1,42,43
 256 848 256 848 380 848 c 0,44,45
 418 848 418 848 458.5 830.5 c 128,-1,46
 499 813 499 813 609 752 c 0,47,48
 733 683 733 683 777 683 c 0,49,50
 857 683 857 683 956 821 c 1,51,-1
 1020 758 l 1,52,-1
 1020 755 l 1,53,-1
 980 703 l 1,54,-1
 943 660 l 2,30,31
EndSplineSet
EndChar

StartChar: asciicircum
Encoding: 94 94 72
Width: 943
Flags: W
LayerCount: 2
UndoRedoHistory
Layer: 1
Undoes
UndoOperation
Index: 0
Type: 1
WasModified: 0
WasOrder2: 1
Width: 943
VWidth: 2048
LBearingChange: 0
UnicodeEnc: 0
InstructionsLength: 0
SplineSet
448 1211 m 1,0,-1
 247 775 l 1,1,-1
 128 775 l 1,2,-1
 380 1308 l 1,3,-1
 517 1308 l 1,4,-1
 768 776 l 1,5,-1
 654 776 l 1,6,-1
 448 1211 l 1,0,-1
EndSplineSet
EndUndoOperation
UndoOperation
Index: 1
Type: 1
WasModified: 0
WasOrder2: 1
Width: 943
VWidth: 2048
LBearingChange: 0
UnicodeEnc: 0
InstructionsLength: 0
SplineSet
448 1211 m 1,0,-1
 247 775 l 1,1,-1
 128 775 l 1,2,-1
 380 1308 l 1,3,-1
 517 1308 l 1,4,-1
 768 776 l 1,5,-1
 654 776 l 1,6,-1
 448 1211 l 1,0,-1
EndSplineSet
EndUndoOperation
UndoOperation
Index: 2
Type: 1
WasModified: 0
WasOrder2: 1
Width: 943
VWidth: 2048
LBearingChange: 0
UnicodeEnc: 0
InstructionsLength: 0
SplineSet
448 1211 m 1,0,-1
 247 775 l 1,1,-1
 128 775 l 1,2,-1
 380 1308 l 1,3,-1
 517 1308 l 1,4,-1
 768 776 l 1,5,-1
 654 776 l 1,6,-1
 448 1211 l 1,0,-1
EndSplineSet
EndUndoOperation
EndUndoes
Redoes
EndRedoes
EndUndoRedoHistory
Fore
SplineSet
448 1211 m 1,0,-1
 247 775 l 1,1,-1
 128 775 l 1,2,-1
 380 1308 l 1,3,-1
 517 1308 l 1,4,-1
 768 776 l 1,5,-1
 654 776 l 1,6,-1
 448 1211 l 1,0,-1
EndSplineSet
EndChar

StartChar: asciitilde
Encoding: 126 126 73
Width: 1038
Flags: W
LayerCount: 2
UndoRedoHistory
Layer: 1
Undoes
UndoOperation
Index: 0
Type: 1
WasModified: 0
WasOrder2: 1
Width: 1038
VWidth: 2048
LBearingChange: 0
UnicodeEnc: 0
InstructionsLength: 0
SplineSet
108 530 m 1,0,1
 167 621 167 621 219.5 669 c 128,-1,2
 272 717 272 717 334 717 c 0,3,4
 372 717 372 717 411.5 699.5 c 128,-1,5
 451 682 451 682 555 622 c 0,6,7
 674 553 674 553 707 553 c 0,8,9
 741 553 741 553 774.5 583.5 c 128,-1,10
 808 614 808 614 854 679 c 1,11,-1
 930 620 l 1,12,13
 905 579 905 579 888 555 c 128,-1,14
 871 531 871 531 842 499.5 c 128,-1,15
 813 468 813 468 778 452.5 c 128,-1,16
 743 437 743 437 703 437 c 0,17,18
 661 437 661 437 619.5 455.5 c 128,-1,19
 578 474 578 474 483 531 c 1,20,21
 376 599 376 599 338 599 c 128,-1,22
 300 599 300 599 265.5 569 c 128,-1,23
 231 539 231 539 183 469 c 1,24,-1
 105 530 l 1,25,-1
 108 530 l 1,0,1
EndSplineSet
EndUndoOperation
UndoOperation
Index: 1
Type: 1
WasModified: 0
WasOrder2: 1
Width: 1038
VWidth: 2048
LBearingChange: 0
UnicodeEnc: 0
InstructionsLength: 0
SplineSet
108 530 m 1,0,1
 167 621 167 621 219.5 669 c 128,-1,2
 272 717 272 717 334 717 c 0,3,4
 372 717 372 717 411.5 699.5 c 128,-1,5
 451 682 451 682 555 622 c 0,6,7
 674 553 674 553 707 553 c 0,8,9
 741 553 741 553 774.5 583.5 c 128,-1,10
 808 614 808 614 854 679 c 1,11,-1
 930 620 l 1,12,13
 905 579 905 579 888 555 c 128,-1,14
 871 531 871 531 842 499.5 c 128,-1,15
 813 468 813 468 778 452.5 c 128,-1,16
 743 437 743 437 703 437 c 0,17,18
 661 437 661 437 619.5 455.5 c 128,-1,19
 578 474 578 474 483 531 c 1,20,21
 376 599 376 599 338 599 c 128,-1,22
 300 599 300 599 265.5 569 c 128,-1,23
 231 539 231 539 183 469 c 1,24,-1
 105 530 l 1,25,-1
 108 530 l 1,0,1
EndSplineSet
EndUndoOperation
UndoOperation
Index: 2
Type: 1
WasModified: 0
WasOrder2: 1
Width: 1038
VWidth: 2048
LBearingChange: 0
UnicodeEnc: 0
InstructionsLength: 0
SplineSet
108 530 m 1,0,1
 167 621 167 621 219.5 669 c 128,-1,2
 272 717 272 717 334 717 c 0,3,4
 372 717 372 717 411.5 699.5 c 128,-1,5
 451 682 451 682 555 622 c 0,6,7
 674 553 674 553 707 553 c 0,8,9
 741 553 741 553 774.5 583.5 c 128,-1,10
 808 614 808 614 854 679 c 1,11,-1
 930 620 l 1,12,13
 905 579 905 579 888 555 c 128,-1,14
 871 531 871 531 842 499.5 c 128,-1,15
 813 468 813 468 778 452.5 c 128,-1,16
 743 437 743 437 703 437 c 0,17,18
 661 437 661 437 619.5 455.5 c 128,-1,19
 578 474 578 474 483 531 c 1,20,21
 376 599 376 599 338 599 c 128,-1,22
 300 599 300 599 265.5 569 c 128,-1,23
 231 539 231 539 183 469 c 1,24,-1
 105 530 l 1,25,-1
 108 530 l 1,0,1
EndSplineSet
EndUndoOperation
EndUndoes
Redoes
EndRedoes
EndUndoRedoHistory
Fore
SplineSet
108 530 m 1,0,1
 167 621 167 621 219.5 669 c 128,-1,2
 272 717 272 717 334 717 c 0,3,4
 372 717 372 717 411.5 699.5 c 128,-1,5
 451 682 451 682 555 622 c 0,6,7
 674 553 674 553 707 553 c 0,8,9
 741 553 741 553 774.5 583.5 c 128,-1,10
 808 614 808 614 854 679 c 1,11,-1
 930 620 l 1,12,13
 905 579 905 579 888 555 c 128,-1,14
 871 531 871 531 842 499.5 c 128,-1,15
 813 468 813 468 778 452.5 c 128,-1,16
 743 437 743 437 703 437 c 0,17,18
 661 437 661 437 619.5 455.5 c 128,-1,19
 578 474 578 474 483 531 c 1,20,21
 376 599 376 599 338 599 c 128,-1,22
 300 599 300 599 265.5 569 c 128,-1,23
 231 539 231 539 183 469 c 1,24,-1
 105 530 l 1,25,-1
 108 530 l 1,0,1
EndSplineSet
EndChar

StartChar: asterisk
Encoding: 42 42 74
Width: 923
Flags: W
LayerCount: 2
UndoRedoHistory
Layer: 1
Undoes
UndoOperation
Index: 0
Type: 1
WasModified: 0
WasOrder2: 1
Width: 923
VWidth: 2048
LBearingChange: 0
UnicodeEnc: 0
InstructionsLength: 0
SplineSet
786 1223 m 1,0,-1
 812 1138 l 1,1,-1
 534 1043 l 1,2,-1
 708 807 l 1,3,-1
 635 753 l 1,4,-1
 460 989 l 1,5,-1
 286 753 l 1,6,-1
 213 807 l 1,7,-1
 386 1043 l 1,8,-1
 108 1137 l 1,9,-1
 134 1223 l 1,10,-1
 415 1130 l 1,11,-1
 415 1425 l 1,12,-1
 506 1425 l 1,13,-1
 506 1130 l 1,14,-1
 786 1223 l 1,0,-1
EndSplineSet
EndUndoOperation
UndoOperation
Index: 1
Type: 1
WasModified: 0
WasOrder2: 1
Width: 923
VWidth: 2048
LBearingChange: 0
UnicodeEnc: 0
InstructionsLength: 0
SplineSet
786 1223 m 1,0,-1
 812 1138 l 1,1,-1
 534 1043 l 1,2,-1
 708 807 l 1,3,-1
 635 753 l 1,4,-1
 460 989 l 1,5,-1
 286 753 l 1,6,-1
 213 807 l 1,7,-1
 386 1043 l 1,8,-1
 108 1137 l 1,9,-1
 134 1223 l 1,10,-1
 415 1130 l 1,11,-1
 415 1425 l 1,12,-1
 506 1425 l 1,13,-1
 506 1130 l 1,14,-1
 786 1223 l 1,0,-1
EndSplineSet
EndUndoOperation
UndoOperation
Index: 2
Type: 1
WasModified: 0
WasOrder2: 1
Width: 923
VWidth: 2048
LBearingChange: 0
UnicodeEnc: 0
InstructionsLength: 0
SplineSet
786 1223 m 1,0,-1
 812 1138 l 1,1,-1
 534 1043 l 1,2,-1
 708 807 l 1,3,-1
 635 753 l 1,4,-1
 460 989 l 1,5,-1
 286 753 l 1,6,-1
 213 807 l 1,7,-1
 386 1043 l 1,8,-1
 108 1137 l 1,9,-1
 134 1223 l 1,10,-1
 415 1130 l 1,11,-1
 415 1425 l 1,12,-1
 506 1425 l 1,13,-1
 506 1130 l 1,14,-1
 786 1223 l 1,0,-1
EndSplineSet
EndUndoOperation
EndUndoes
Redoes
EndRedoes
EndUndoRedoHistory
Fore
SplineSet
786 1223 m 1,0,-1
 812 1138 l 1,1,-1
 534 1043 l 1,2,-1
 708 807 l 1,3,-1
 635 753 l 1,4,-1
 460 989 l 1,5,-1
 286 753 l 1,6,-1
 213 807 l 1,7,-1
 386 1043 l 1,8,-1
 108 1137 l 1,9,-1
 134 1223 l 1,10,-1
 415 1130 l 1,11,-1
 415 1425 l 1,12,-1
 506 1425 l 1,13,-1
 506 1130 l 1,14,-1
 786 1223 l 1,0,-1
EndSplineSet
EndChar

StartChar: at
Encoding: 64 64 75
Width: 1512
Flags: W
LayerCount: 2
UndoRedoHistory
Layer: 1
Undoes
UndoOperation
Index: 0
Type: 1
WasModified: 0
WasOrder2: 1
Width: 1512
VWidth: 2048
LBearingChange: 0
UnicodeEnc: 0
InstructionsLength: 0
SplineSet
1100 256 m 0,0,1
 988 256 988 256 928 375 c 1,2,3
 895 317 895 317 841 279.5 c 128,-1,4
 787 242 787 242 713 242 c 0,5,6
 676 242 676 242 640 254 c 128,-1,7
 604 266 604 266 570 294 c 128,-1,8
 536 322 536 322 510.5 362.5 c 128,-1,9
 485 403 485 403 469.5 463.5 c 128,-1,10
 454 524 454 524 454 598 c 0,11,12
 454 767 454 767 533.5 877 c 128,-1,13
 613 987 613 987 753 987 c 0,14,15
 780 987 780 987 821 982 c 128,-1,16
 862 977 862 977 925 956.5 c 128,-1,17
 988 936 988 936 1024 903 c 1,18,-1
 1024 406 l 2,19,20
 1024 362 1024 362 1102 362 c 0,21,22
 1150 362 1150 362 1188.5 415 c 128,-1,23
 1227 468 1227 468 1245.5 541 c 128,-1,24
 1264 614 1264 614 1264 687 c 128,-1,25
 1264 760 1264 760 1247 830 c 128,-1,26
 1230 900 1230 900 1191 967 c 128,-1,27
 1152 1034 1152 1034 1095.5 1084 c 128,-1,28
 1039 1134 1039 1134 953 1164.5 c 128,-1,29
 867 1195 867 1195 763 1195 c 0,30,31
 664 1195 664 1195 572 1151 c 128,-1,32
 480 1107 480 1107 411.5 1030.5 c 128,-1,33
 343 954 343 954 302 843.5 c 128,-1,34
 261 733 261 733 261 607 c 0,35,36
 261 358 261 358 408.5 197 c 128,-1,37
 556 36 556 36 779 36 c 0,38,39
 898 36 898 36 1058 95 c 1,40,-1
 1084 4 l 1,41,42
 919 -63 919 -63 773 -63 c 0,43,44
 650 -63 650 -63 535.5 -15 c 128,-1,45
 421 33 421 33 333 117.5 c 128,-1,46
 245 202 245 202 192.5 328 c 128,-1,47
 140 454 140 454 140 600 c 0,48,49
 140 756 140 756 188.5 888.5 c 128,-1,50
 237 1021 237 1021 320 1110.5 c 128,-1,51
 403 1200 403 1200 515 1250.5 c 128,-1,52
 627 1301 627 1301 754 1301 c 0,53,54
 882 1301 882 1301 987.5 1265 c 128,-1,55
 1093 1229 1093 1229 1163 1169 c 128,-1,56
 1233 1109 1233 1109 1281.5 1029.5 c 128,-1,57
 1330 950 1330 950 1351 865.5 c 128,-1,58
 1372 781 1372 781 1372 692 c 0,59,60
 1372 578 1372 578 1341 480 c 128,-1,61
 1310 382 1310 382 1246.5 319 c 128,-1,62
 1183 256 1183 256 1100 256 c 0,0,1
736 326 m 0,63,64
 769 326 769 326 813 347 c 128,-1,65
 857 368 857 368 891 405 c 0,66,67
 923 439 923 439 923 648 c 2,68,-1
 923 864 l 1,69,70
 857 897 857 897 761 897 c 0,71,72
 697 897 697 897 650.5 853 c 128,-1,73
 604 809 604 809 583 743.5 c 128,-1,74
 562 678 562 678 562 602 c 0,75,76
 562 490 562 490 608 408 c 128,-1,77
 654 326 654 326 736 326 c 0,63,64
EndSplineSet
EndUndoOperation
UndoOperation
Index: 1
Type: 1
WasModified: 0
WasOrder2: 1
Width: 1512
VWidth: 2048
LBearingChange: 0
UnicodeEnc: 0
InstructionsLength: 0
SplineSet
736 326 m 0,0,1
 769 326 769 326 813 347 c 128,-1,2
 857 368 857 368 891 405 c 0,3,4
 923 439 923 439 923 648 c 2,5,-1
 923 864 l 1,6,7
 857 897 857 897 761 897 c 0,8,9
 697 897 697 897 650.5 853 c 128,-1,10
 604 809 604 809 583 743.5 c 128,-1,11
 562 678 562 678 562 602 c 0,12,13
 562 490 562 490 608 408 c 128,-1,14
 654 326 654 326 736 326 c 0,0,1
1100 256 m 0,15,16
 988 256 988 256 928 375 c 1,17,18
 895 317 895 317 841 279.5 c 128,-1,19
 787 242 787 242 713 242 c 0,20,21
 676 242 676 242 640 254 c 128,-1,22
 604 266 604 266 570 294 c 128,-1,23
 536 322 536 322 510.5 362.5 c 128,-1,24
 485 403 485 403 469.5 463.5 c 128,-1,25
 454 524 454 524 454 598 c 0,26,27
 454 767 454 767 533.5 877 c 128,-1,28
 613 987 613 987 753 987 c 0,29,30
 780 987 780 987 821 982 c 128,-1,31
 862 977 862 977 925 956.5 c 128,-1,32
 988 936 988 936 1024 903 c 1,33,-1
 1024 406 l 2,34,35
 1024 362 1024 362 1102 362 c 0,36,37
 1150 362 1150 362 1188.5 415 c 128,-1,38
 1227 468 1227 468 1245.5 541 c 128,-1,39
 1264 614 1264 614 1264 687 c 128,-1,40
 1264 760 1264 760 1247 830 c 128,-1,41
 1230 900 1230 900 1191 967 c 128,-1,42
 1152 1034 1152 1034 1095.5 1084 c 128,-1,43
 1039 1134 1039 1134 953 1164.5 c 128,-1,44
 867 1195 867 1195 763 1195 c 0,45,46
 664 1195 664 1195 572 1151 c 128,-1,47
 480 1107 480 1107 411.5 1030.5 c 128,-1,48
 343 954 343 954 302 843.5 c 128,-1,49
 261 733 261 733 261 607 c 0,50,51
 261 358 261 358 408.5 197 c 128,-1,52
 556 36 556 36 779 36 c 0,53,54
 898 36 898 36 1058 95 c 1,55,-1
 1084 4 l 1,56,57
 919 -63 919 -63 773 -63 c 0,58,59
 650 -63 650 -63 535.5 -15 c 128,-1,60
 421 33 421 33 333 117.5 c 128,-1,61
 245 202 245 202 192.5 328 c 128,-1,62
 140 454 140 454 140 600 c 0,63,64
 140 756 140 756 188.5 888.5 c 128,-1,65
 237 1021 237 1021 320 1110.5 c 128,-1,66
 403 1200 403 1200 515 1250.5 c 128,-1,67
 627 1301 627 1301 754 1301 c 0,68,69
 882 1301 882 1301 987.5 1265 c 128,-1,70
 1093 1229 1093 1229 1163 1169 c 128,-1,71
 1233 1109 1233 1109 1281.5 1029.5 c 128,-1,72
 1330 950 1330 950 1351 865.5 c 128,-1,73
 1372 781 1372 781 1372 692 c 0,74,75
 1372 578 1372 578 1341 480 c 128,-1,76
 1310 382 1310 382 1246.5 319 c 128,-1,77
 1183 256 1183 256 1100 256 c 0,15,16
EndSplineSet
EndUndoOperation
UndoOperation
Index: 2
Type: 1
WasModified: 0
WasOrder2: 1
Width: 1512
VWidth: 2048
LBearingChange: 0
UnicodeEnc: 0
InstructionsLength: 0
SplineSet
736 326 m 0,0,1
 769 326 769 326 813 347 c 128,-1,2
 857 368 857 368 891 405 c 0,3,4
 923 439 923 439 923 648 c 2,5,-1
 923 864 l 1,6,7
 857 897 857 897 761 897 c 0,8,9
 697 897 697 897 650.5 853 c 128,-1,10
 604 809 604 809 583 743.5 c 128,-1,11
 562 678 562 678 562 602 c 0,12,13
 562 490 562 490 608 408 c 128,-1,14
 654 326 654 326 736 326 c 0,0,1
1100 256 m 0,15,16
 988 256 988 256 928 375 c 1,17,18
 895 317 895 317 841 279.5 c 128,-1,19
 787 242 787 242 713 242 c 0,20,21
 676 242 676 242 640 254 c 128,-1,22
 604 266 604 266 570 294 c 128,-1,23
 536 322 536 322 510.5 362.5 c 128,-1,24
 485 403 485 403 469.5 463.5 c 128,-1,25
 454 524 454 524 454 598 c 0,26,27
 454 767 454 767 533.5 877 c 128,-1,28
 613 987 613 987 753 987 c 0,29,30
 780 987 780 987 821 982 c 128,-1,31
 862 977 862 977 925 956.5 c 128,-1,32
 988 936 988 936 1024 903 c 1,33,-1
 1024 406 l 2,34,35
 1024 362 1024 362 1102 362 c 0,36,37
 1150 362 1150 362 1188.5 415 c 128,-1,38
 1227 468 1227 468 1245.5 541 c 128,-1,39
 1264 614 1264 614 1264 687 c 128,-1,40
 1264 760 1264 760 1247 830 c 128,-1,41
 1230 900 1230 900 1191 967 c 128,-1,42
 1152 1034 1152 1034 1095.5 1084 c 128,-1,43
 1039 1134 1039 1134 953 1164.5 c 128,-1,44
 867 1195 867 1195 763 1195 c 0,45,46
 664 1195 664 1195 572 1151 c 128,-1,47
 480 1107 480 1107 411.5 1030.5 c 128,-1,48
 343 954 343 954 302 843.5 c 128,-1,49
 261 733 261 733 261 607 c 0,50,51
 261 358 261 358 408.5 197 c 128,-1,52
 556 36 556 36 779 36 c 0,53,54
 898 36 898 36 1058 95 c 1,55,-1
 1084 4 l 1,56,57
 919 -63 919 -63 773 -63 c 0,58,59
 650 -63 650 -63 535.5 -15 c 128,-1,60
 421 33 421 33 333 117.5 c 128,-1,61
 245 202 245 202 192.5 328 c 128,-1,62
 140 454 140 454 140 600 c 0,63,64
 140 756 140 756 188.5 888.5 c 128,-1,65
 237 1021 237 1021 320 1110.5 c 128,-1,66
 403 1200 403 1200 515 1250.5 c 128,-1,67
 627 1301 627 1301 754 1301 c 0,68,69
 882 1301 882 1301 987.5 1265 c 128,-1,70
 1093 1229 1093 1229 1163 1169 c 128,-1,71
 1233 1109 1233 1109 1281.5 1029.5 c 128,-1,72
 1330 950 1330 950 1351 865.5 c 128,-1,73
 1372 781 1372 781 1372 692 c 0,74,75
 1372 578 1372 578 1341 480 c 128,-1,76
 1310 382 1310 382 1246.5 319 c 128,-1,77
 1183 256 1183 256 1100 256 c 0,15,16
EndSplineSet
EndUndoOperation
EndUndoes
Redoes
EndRedoes
EndUndoRedoHistory
Fore
SplineSet
1100 256 m 0,0,1
 988 256 988 256 928 375 c 1,2,3
 895 317 895 317 841 279.5 c 128,-1,4
 787 242 787 242 713 242 c 0,5,6
 676 242 676 242 640 254 c 128,-1,7
 604 266 604 266 570 294 c 128,-1,8
 536 322 536 322 510.5 362.5 c 128,-1,9
 485 403 485 403 469.5 463.5 c 128,-1,10
 454 524 454 524 454 598 c 0,11,12
 454 767 454 767 533.5 877 c 128,-1,13
 613 987 613 987 753 987 c 0,14,15
 780 987 780 987 821 982 c 128,-1,16
 862 977 862 977 925 956.5 c 128,-1,17
 988 936 988 936 1024 903 c 1,18,-1
 1024 406 l 2,19,20
 1024 362 1024 362 1102 362 c 0,21,22
 1150 362 1150 362 1188.5 415 c 128,-1,23
 1227 468 1227 468 1245.5 541 c 128,-1,24
 1264 614 1264 614 1264 687 c 128,-1,25
 1264 760 1264 760 1247 830 c 128,-1,26
 1230 900 1230 900 1191 967 c 128,-1,27
 1152 1034 1152 1034 1095.5 1084 c 128,-1,28
 1039 1134 1039 1134 953 1164.5 c 128,-1,29
 867 1195 867 1195 763 1195 c 0,30,31
 664 1195 664 1195 572 1151 c 128,-1,32
 480 1107 480 1107 411.5 1030.5 c 128,-1,33
 343 954 343 954 302 843.5 c 128,-1,34
 261 733 261 733 261 607 c 0,35,36
 261 358 261 358 408.5 197 c 128,-1,37
 556 36 556 36 779 36 c 0,38,39
 898 36 898 36 1058 95 c 1,40,-1
 1084 4 l 1,41,42
 919 -63 919 -63 773 -63 c 0,43,44
 650 -63 650 -63 535.5 -15 c 128,-1,45
 421 33 421 33 333 117.5 c 128,-1,46
 245 202 245 202 192.5 328 c 128,-1,47
 140 454 140 454 140 600 c 0,48,49
 140 756 140 756 188.5 888.5 c 128,-1,50
 237 1021 237 1021 320 1110.5 c 128,-1,51
 403 1200 403 1200 515 1250.5 c 128,-1,52
 627 1301 627 1301 754 1301 c 0,53,54
 882 1301 882 1301 987.5 1265 c 128,-1,55
 1093 1229 1093 1229 1163 1169 c 128,-1,56
 1233 1109 1233 1109 1281.5 1029.5 c 128,-1,57
 1330 950 1330 950 1351 865.5 c 128,-1,58
 1372 781 1372 781 1372 692 c 0,59,60
 1372 578 1372 578 1341 480 c 128,-1,61
 1310 382 1310 382 1246.5 319 c 128,-1,62
 1183 256 1183 256 1100 256 c 0,0,1
736 326 m 0,63,64
 769 326 769 326 813 347 c 128,-1,65
 857 368 857 368 891 405 c 0,66,67
 923 439 923 439 923 648 c 2,68,-1
 923 864 l 1,69,70
 857 897 857 897 761 897 c 0,71,72
 697 897 697 897 650.5 853 c 128,-1,73
 604 809 604 809 583 743.5 c 128,-1,74
 562 678 562 678 562 602 c 0,75,76
 562 490 562 490 608 408 c 128,-1,77
 654 326 654 326 736 326 c 0,63,64
EndSplineSet
EndChar

StartChar: b
Encoding: 98 98 77
Width: 984
Flags: W
LayerCount: 2
UndoRedoHistory
Layer: 1
Undoes
UndoOperation
Index: 0
Type: 1
WasModified: 0
WasOrder2: 1
Width: 984
VWidth: 2048
LBearingChange: 0
UnicodeEnc: 0
InstructionsLength: 0
SplineSet
268 1358 m 1,0,-1
 268 923 l 1,1,2
 393 1000 393 1000 540 1000 c 0,3,4
 697 1000 697 1000 786.5 876 c 128,-1,5
 876 752 876 752 876 493 c 0,6,7
 876 225 876 225 785 107.5 c 128,-1,8
 694 -10 694 -10 510 -10 c 0,9,10
 366 -10 366 -10 254 50 c 1,11,-1
 244 0 l 1,12,-1
 140 0 l 1,13,-1
 140 1358 l 1,14,-1
 268 1358 l 1,0,-1
268 137 m 1,15,16
 356 96 356 96 463 96 c 2,17,-1
 492 96 l 2,18,19
 628 96 628 96 688 187.5 c 128,-1,20
 748 279 748 279 748 491 c 0,21,22
 748 699 748 699 694.5 797 c 128,-1,23
 641 895 641 895 524 895 c 0,24,25
 417 895 417 895 268 809 c 1,26,-1
 268 137 l 1,15,16
EndSplineSet
EndUndoOperation
UndoOperation
Index: 1
Type: 1
WasModified: 0
WasOrder2: 1
Width: 984
VWidth: 2048
LBearingChange: 0
UnicodeEnc: 0
InstructionsLength: 0
SplineSet
268 137 m 1,0,1
 356 96 356 96 463 96 c 2,2,3
 463 96 463 96 492 96 c 0,4,5
 628 96 628 96 688 187.5 c 128,-1,6
 748 279 748 279 748 491 c 0,7,8
 748 699 748 699 694.5 797 c 128,-1,9
 641 895 641 895 524 895 c 0,10,11
 417 895 417 895 268 809 c 1,12,-1
 268 137 l 1,0,1
268 1358 m 1,13,-1
 268 923 l 1,14,15
 393 1000 393 1000 540 1000 c 0,16,17
 697 1000 697 1000 786.5 876 c 128,-1,18
 876 752 876 752 876 493 c 0,19,20
 876 225 876 225 785 107.5 c 128,-1,21
 694 -10 694 -10 510 -10 c 0,22,23
 366 -10 366 -10 254 50 c 1,24,-1
 244 0 l 1,25,-1
 140 0 l 1,26,-1
 140 1358 l 1,27,-1
 268 1358 l 1,13,-1
EndSplineSet
EndUndoOperation
UndoOperation
Index: 2
Type: 1
WasModified: 0
WasOrder2: 1
Width: 984
VWidth: 2048
LBearingChange: 0
UnicodeEnc: 0
InstructionsLength: 0
SplineSet
268 137 m 1,0,1
 356 96 356 96 463 96 c 2,2,3
 463 96 463 96 492 96 c 0,4,5
 628 96 628 96 688 187.5 c 128,-1,6
 748 279 748 279 748 491 c 0,7,8
 748 699 748 699 694.5 797 c 128,-1,9
 641 895 641 895 524 895 c 0,10,11
 417 895 417 895 268 809 c 1,12,-1
 268 137 l 1,0,1
268 1358 m 1,13,-1
 268 923 l 1,14,15
 393 1000 393 1000 540 1000 c 0,16,17
 697 1000 697 1000 786.5 876 c 128,-1,18
 876 752 876 752 876 493 c 0,19,20
 876 225 876 225 785 107.5 c 128,-1,21
 694 -10 694 -10 510 -10 c 0,22,23
 366 -10 366 -10 254 50 c 1,24,-1
 244 0 l 1,25,-1
 140 0 l 1,26,-1
 140 1358 l 1,27,-1
 268 1358 l 1,13,-1
EndSplineSet
EndUndoOperation
EndUndoes
Redoes
EndRedoes
EndUndoRedoHistory
Fore
SplineSet
268 1358 m 1,0,-1
 268 923 l 1,1,2
 393 1000 393 1000 540 1000 c 0,3,4
 697 1000 697 1000 786.5 876 c 128,-1,5
 876 752 876 752 876 493 c 0,6,7
 876 225 876 225 785 107.5 c 128,-1,8
 694 -10 694 -10 510 -10 c 0,9,10
 366 -10 366 -10 254 50 c 1,11,-1
 244 0 l 1,12,-1
 140 0 l 1,13,-1
 140 1358 l 1,14,-1
 268 1358 l 1,0,-1
268 137 m 1,15,16
 356 96 356 96 463 96 c 2,17,-1
 492 96 l 2,18,19
 628 96 628 96 688 187.5 c 128,-1,20
 748 279 748 279 748 491 c 0,21,22
 748 699 748 699 694.5 797 c 128,-1,23
 641 895 641 895 524 895 c 0,24,25
 417 895 417 895 268 809 c 1,26,-1
 268 137 l 1,15,16
EndSplineSet
EndChar

StartChar: backslash
Encoding: 92 92 78
Width: 884
Flags: W
LayerCount: 2
UndoRedoHistory
Layer: 1
Undoes
UndoOperation
Index: 0
Type: 1
WasModified: 0
WasOrder2: 1
Width: 884
VWidth: 2048
LBearingChange: 0
UnicodeEnc: 0
InstructionsLength: 0
SplineSet
159 1473 m 1,0,-1
 784 -55 l 1,1,-1
 709 -96 l 1,2,-1
 83 1432 l 1,3,-1
 159 1473 l 1,0,-1
EndSplineSet
EndUndoOperation
UndoOperation
Index: 1
Type: 1
WasModified: 0
WasOrder2: 1
Width: 884
VWidth: 2048
LBearingChange: 0
UnicodeEnc: 0
InstructionsLength: 0
SplineSet
159 1473 m 1,0,-1
 784 -55 l 1,1,-1
 709 -96 l 1,2,-1
 83 1432 l 1,3,-1
 159 1473 l 1,0,-1
EndSplineSet
EndUndoOperation
UndoOperation
Index: 2
Type: 1
WasModified: 0
WasOrder2: 1
Width: 884
VWidth: 2048
LBearingChange: 0
UnicodeEnc: 0
InstructionsLength: 0
SplineSet
159 1473 m 1,0,-1
 784 -55 l 1,1,-1
 709 -96 l 1,2,-1
 83 1432 l 1,3,-1
 159 1473 l 1,0,-1
EndSplineSet
EndUndoOperation
EndUndoes
Redoes
EndRedoes
EndUndoRedoHistory
Fore
SplineSet
159 1473 m 1,0,-1
 784 -55 l 1,1,-1
 709 -96 l 1,2,-1
 83 1432 l 1,3,-1
 159 1473 l 1,0,-1
EndSplineSet
EndChar

StartChar: bar
Encoding: 124 124 79
Width: 423
Flags: W
LayerCount: 2
UndoRedoHistory
Layer: 1
Undoes
UndoOperation
Index: 0
Type: 1
WasModified: 0
WasOrder2: 1
Width: 423
VWidth: 2048
LBearingChange: 0
UnicodeEnc: 0
InstructionsLength: 0
SplineSet
162 -65 m 1,0,-1
 162 1331 l 1,1,-1
 269 1331 l 1,2,-1
 269 -65 l 1,3,-1
 162 -65 l 1,0,-1
EndSplineSet
EndUndoOperation
UndoOperation
Index: 1
Type: 1
WasModified: 0
WasOrder2: 1
Width: 423
VWidth: 2048
LBearingChange: 0
UnicodeEnc: 0
InstructionsLength: 0
SplineSet
162 -65 m 1,0,-1
 162 1331 l 1,1,-1
 269 1331 l 1,2,-1
 269 -65 l 1,3,-1
 162 -65 l 1,0,-1
EndSplineSet
EndUndoOperation
UndoOperation
Index: 2
Type: 1
WasModified: 0
WasOrder2: 1
Width: 423
VWidth: 2048
LBearingChange: 0
UnicodeEnc: 0
InstructionsLength: 0
SplineSet
162 -65 m 1,0,-1
 162 1331 l 1,1,-1
 269 1331 l 1,2,-1
 269 -65 l 1,3,-1
 162 -65 l 1,0,-1
EndSplineSet
EndUndoOperation
EndUndoes
Redoes
EndRedoes
EndUndoRedoHistory
Fore
SplineSet
162 -65 m 1,0,-1
 162 1331 l 1,1,-1
 269 1331 l 1,2,-1
 269 -65 l 1,3,-1
 162 -65 l 1,0,-1
EndSplineSet
EndChar

StartChar: braceleft
Encoding: 123 123 80
Width: 620
Flags: W
LayerCount: 2
UndoRedoHistory
Layer: 1
Undoes
UndoOperation
Index: 0
Type: 1
WasModified: 0
WasOrder2: 1
Width: 620
VWidth: 2048
LBearingChange: 0
UnicodeEnc: 0
InstructionsLength: 0
SplineSet
64 712 m 1,0,-1
 210 801 l 1,1,2
 216 879 216 879 216 985 c 2,3,-1
 216 1017 l 1,4,-1
 215 1146 l 2,5,6
 215 1206 215 1206 217.5 1248.5 c 128,-1,7
 220 1291 220 1291 227.5 1327.5 c 128,-1,8
 235 1364 235 1364 244.5 1387.5 c 128,-1,9
 254 1411 254 1411 274 1429.5 c 128,-1,10
 294 1448 294 1448 315.5 1458 c 128,-1,11
 337 1468 337 1468 373.5 1474 c 128,-1,12
 410 1480 410 1480 448.5 1482 c 128,-1,13
 487 1484 487 1484 544 1484 c 1,14,-1
 552 1392 l 1,15,-1
 527 1392 l 2,16,17
 474 1392 474 1392 449 1391 c 128,-1,18
 424 1390 424 1390 395 1381 c 128,-1,19
 366 1372 366 1372 355.5 1358 c 128,-1,20
 345 1344 345 1344 334.5 1313 c 128,-1,21
 324 1282 324 1282 322 1241.5 c 128,-1,22
 320 1201 320 1201 320 1135 c 2,23,-1
 320 749 l 1,24,-1
 175 664 l 1,25,-1
 320 579 l 1,26,-1
 320 193 l 2,27,28
 320 127 320 127 322 86.5 c 128,-1,29
 324 46 324 46 334.5 15 c 128,-1,30
 345 -16 345 -16 355.5 -30 c 128,-1,31
 366 -44 366 -44 395 -53 c 128,-1,32
 424 -62 424 -62 449 -63 c 128,-1,33
 474 -64 474 -64 527 -64 c 2,34,-1
 552 -64 l 1,35,-1
 544 -156 l 1,36,37
 487 -156 487 -156 448.5 -154 c 128,-1,38
 410 -152 410 -152 373.5 -146 c 128,-1,39
 337 -140 337 -140 315.5 -130 c 128,-1,40
 294 -120 294 -120 274 -101.5 c 128,-1,41
 254 -83 254 -83 244.5 -59.5 c 128,-1,42
 235 -36 235 -36 227.5 0.5 c 128,-1,43
 220 37 220 37 217.5 79.5 c 128,-1,44
 215 122 215 122 215 182 c 2,45,-1
 216 311 l 1,46,-1
 216 343 l 2,47,48
 216 449 216 449 210 527 c 1,49,-1
 64 616 l 1,50,-1
 64 712 l 1,0,-1
EndSplineSet
EndUndoOperation
UndoOperation
Index: 1
Type: 1
WasModified: 0
WasOrder2: 1
Width: 620
VWidth: 2048
LBearingChange: 0
UnicodeEnc: 0
InstructionsLength: 0
SplineSet
64 712 m 1,0,-1
 210 801 l 1,1,2
 216 879 216 879 216 985 c 2,3,4
 216 985 216 985 216 1017 c 2,5,-1
 215 1146 l 2,6,7
 215 1206 215 1206 217.5 1248.5 c 128,-1,8
 220 1291 220 1291 227.5 1327.5 c 128,-1,9
 235 1364 235 1364 244.5 1387.5 c 128,-1,10
 254 1411 254 1411 274 1429.5 c 128,-1,11
 294 1448 294 1448 315.5 1458 c 128,-1,12
 337 1468 337 1468 373.5 1474 c 128,-1,13
 410 1480 410 1480 448.5 1482 c 128,-1,14
 487 1484 487 1484 544 1484 c 1,15,-1
 552 1392 l 1,16,-1
 527 1392 l 2,17,18
 474 1392 474 1392 449 1391 c 128,-1,19
 424 1390 424 1390 395 1381 c 128,-1,20
 366 1372 366 1372 355.5 1358 c 128,-1,21
 345 1344 345 1344 334.5 1313 c 128,-1,22
 324 1282 324 1282 322 1241.5 c 128,-1,23
 320 1201 320 1201 320 1135 c 2,24,-1
 320 749 l 1,25,-1
 175 664 l 1,26,-1
 320 579 l 1,27,-1
 320 193 l 2,28,29
 320 127 320 127 322 86.5 c 128,-1,30
 324 46 324 46 334.5 15 c 128,-1,31
 345 -16 345 -16 355.5 -30 c 128,-1,32
 366 -44 366 -44 395 -53 c 128,-1,33
 424 -62 424 -62 449 -63 c 128,-1,34
 474 -64 474 -64 527 -64 c 2,35,-1
 552 -64 l 1,36,-1
 544 -156 l 1,37,38
 487 -156 487 -156 448.5 -154 c 128,-1,39
 410 -152 410 -152 373.5 -146 c 128,-1,40
 337 -140 337 -140 315.5 -130 c 128,-1,41
 294 -120 294 -120 274 -101.5 c 128,-1,42
 254 -83 254 -83 244.5 -59.5 c 128,-1,43
 235 -36 235 -36 227.5 0.5 c 128,-1,44
 220 37 220 37 217.5 79.5 c 128,-1,45
 215 122 215 122 215 182 c 2,46,-1
 216 311 l 1,47,-1
 216 343 l 2,48,49
 216 449 216 449 210 527 c 1,50,-1
 64 616 l 1,51,-1
 64 712 l 1,0,-1
EndSplineSet
EndUndoOperation
UndoOperation
Index: 2
Type: 1
WasModified: 0
WasOrder2: 1
Width: 620
VWidth: 2048
LBearingChange: 0
UnicodeEnc: 0
InstructionsLength: 0
SplineSet
64 712 m 1,0,-1
 210 801 l 1,1,2
 216 879 216 879 216 985 c 2,3,4
 216 985 216 985 216 1017 c 2,5,-1
 215 1146 l 2,6,7
 215 1206 215 1206 217.5 1248.5 c 128,-1,8
 220 1291 220 1291 227.5 1327.5 c 128,-1,9
 235 1364 235 1364 244.5 1387.5 c 128,-1,10
 254 1411 254 1411 274 1429.5 c 128,-1,11
 294 1448 294 1448 315.5 1458 c 128,-1,12
 337 1468 337 1468 373.5 1474 c 128,-1,13
 410 1480 410 1480 448.5 1482 c 128,-1,14
 487 1484 487 1484 544 1484 c 1,15,-1
 552 1392 l 1,16,-1
 527 1392 l 2,17,18
 474 1392 474 1392 449 1391 c 128,-1,19
 424 1390 424 1390 395 1381 c 128,-1,20
 366 1372 366 1372 355.5 1358 c 128,-1,21
 345 1344 345 1344 334.5 1313 c 128,-1,22
 324 1282 324 1282 322 1241.5 c 128,-1,23
 320 1201 320 1201 320 1135 c 2,24,-1
 320 749 l 1,25,-1
 175 664 l 1,26,-1
 320 579 l 1,27,-1
 320 193 l 2,28,29
 320 127 320 127 322 86.5 c 128,-1,30
 324 46 324 46 334.5 15 c 128,-1,31
 345 -16 345 -16 355.5 -30 c 128,-1,32
 366 -44 366 -44 395 -53 c 128,-1,33
 424 -62 424 -62 449 -63 c 128,-1,34
 474 -64 474 -64 527 -64 c 2,35,-1
 552 -64 l 1,36,-1
 544 -156 l 1,37,38
 487 -156 487 -156 448.5 -154 c 128,-1,39
 410 -152 410 -152 373.5 -146 c 128,-1,40
 337 -140 337 -140 315.5 -130 c 128,-1,41
 294 -120 294 -120 274 -101.5 c 128,-1,42
 254 -83 254 -83 244.5 -59.5 c 128,-1,43
 235 -36 235 -36 227.5 0.5 c 128,-1,44
 220 37 220 37 217.5 79.5 c 128,-1,45
 215 122 215 122 215 182 c 2,46,-1
 216 311 l 1,47,-1
 216 343 l 2,48,49
 216 449 216 449 210 527 c 1,50,-1
 64 616 l 1,51,-1
 64 712 l 1,0,-1
EndSplineSet
EndUndoOperation
EndUndoes
Redoes
EndRedoes
EndUndoRedoHistory
Fore
SplineSet
64 712 m 1,0,-1
 210 801 l 1,1,2
 216 879 216 879 216 985 c 2,3,-1
 216 1017 l 1,4,-1
 215 1146 l 2,5,6
 215 1206 215 1206 217.5 1248.5 c 128,-1,7
 220 1291 220 1291 227.5 1327.5 c 128,-1,8
 235 1364 235 1364 244.5 1387.5 c 128,-1,9
 254 1411 254 1411 274 1429.5 c 128,-1,10
 294 1448 294 1448 315.5 1458 c 128,-1,11
 337 1468 337 1468 373.5 1474 c 128,-1,12
 410 1480 410 1480 448.5 1482 c 128,-1,13
 487 1484 487 1484 544 1484 c 1,14,-1
 552 1392 l 1,15,-1
 527 1392 l 2,16,17
 474 1392 474 1392 449 1391 c 128,-1,18
 424 1390 424 1390 395 1381 c 128,-1,19
 366 1372 366 1372 355.5 1358 c 128,-1,20
 345 1344 345 1344 334.5 1313 c 128,-1,21
 324 1282 324 1282 322 1241.5 c 128,-1,22
 320 1201 320 1201 320 1135 c 2,23,-1
 320 749 l 1,24,-1
 175 664 l 1,25,-1
 320 579 l 1,26,-1
 320 193 l 2,27,28
 320 127 320 127 322 86.5 c 128,-1,29
 324 46 324 46 334.5 15 c 128,-1,30
 345 -16 345 -16 355.5 -30 c 128,-1,31
 366 -44 366 -44 395 -53 c 128,-1,32
 424 -62 424 -62 449 -63 c 128,-1,33
 474 -64 474 -64 527 -64 c 2,34,-1
 552 -64 l 1,35,-1
 544 -156 l 1,36,37
 487 -156 487 -156 448.5 -154 c 128,-1,38
 410 -152 410 -152 373.5 -146 c 128,-1,39
 337 -140 337 -140 315.5 -130 c 128,-1,40
 294 -120 294 -120 274 -101.5 c 128,-1,41
 254 -83 254 -83 244.5 -59.5 c 128,-1,42
 235 -36 235 -36 227.5 0.5 c 128,-1,43
 220 37 220 37 217.5 79.5 c 128,-1,44
 215 122 215 122 215 182 c 2,45,-1
 216 311 l 1,46,-1
 216 343 l 2,47,48
 216 449 216 449 210 527 c 1,49,-1
 64 616 l 1,50,-1
 64 712 l 1,0,-1
EndSplineSet
EndChar

StartChar: braceright
Encoding: 125 125 81
Width: 620
Flags: W
LayerCount: 2
UndoRedoHistory
Layer: 1
Undoes
UndoOperation
Index: 0
Type: 1
WasModified: 0
WasOrder2: 1
Width: 620
VWidth: 2048
LBearingChange: 0
UnicodeEnc: 0
InstructionsLength: 0
SplineSet
558 616 m 1,0,-1
 412 527 l 1,1,2
 406 449 406 449 406 343 c 2,3,-1
 406 311 l 1,4,-1
 407 182 l 2,5,6
 407 122 407 122 404.5 79.5 c 128,-1,7
 402 37 402 37 394.5 0.5 c 128,-1,8
 387 -36 387 -36 377.5 -59.5 c 128,-1,9
 368 -83 368 -83 348 -101.5 c 128,-1,10
 328 -120 328 -120 306.5 -130 c 128,-1,11
 285 -140 285 -140 248.5 -146 c 128,-1,12
 212 -152 212 -152 173.5 -154 c 128,-1,13
 135 -156 135 -156 78 -156 c 1,14,-1
 70 -64 l 1,15,-1
 95 -64 l 2,16,17
 148 -64 148 -64 173 -63 c 128,-1,18
 198 -62 198 -62 227 -53 c 128,-1,19
 256 -44 256 -44 266.5 -30 c 128,-1,20
 277 -16 277 -16 287.5 15 c 128,-1,21
 298 46 298 46 300 86.5 c 128,-1,22
 302 127 302 127 302 193 c 2,23,-1
 302 579 l 1,24,-1
 447 664 l 1,25,-1
 302 749 l 1,26,-1
 302 1135 l 2,27,28
 302 1201 302 1201 300 1241.5 c 128,-1,29
 298 1282 298 1282 287.5 1313 c 128,-1,30
 277 1344 277 1344 266.5 1358 c 128,-1,31
 256 1372 256 1372 227 1381 c 128,-1,32
 198 1390 198 1390 173 1391 c 128,-1,33
 148 1392 148 1392 95 1392 c 2,34,-1
 70 1392 l 1,35,-1
 78 1484 l 1,36,37
 135 1484 135 1484 173.5 1482 c 128,-1,38
 212 1480 212 1480 248.5 1474 c 128,-1,39
 285 1468 285 1468 306.5 1458 c 128,-1,40
 328 1448 328 1448 348 1429.5 c 128,-1,41
 368 1411 368 1411 377.5 1387.5 c 128,-1,42
 387 1364 387 1364 394.5 1327.5 c 128,-1,43
 402 1291 402 1291 404.5 1248.5 c 128,-1,44
 407 1206 407 1206 407 1146 c 2,45,-1
 406 1017 l 1,46,-1
 406 985 l 2,47,48
 406 879 406 879 412 801 c 1,49,-1
 558 712 l 1,50,-1
 558 616 l 1,0,-1
EndSplineSet
EndUndoOperation
UndoOperation
Index: 1
Type: 1
WasModified: 0
WasOrder2: 1
Width: 620
VWidth: 2048
LBearingChange: 0
UnicodeEnc: 0
InstructionsLength: 0
SplineSet
558 616 m 1,0,-1
 412 527 l 1,1,2
 406 449 406 449 406 343 c 2,3,4
 406 343 406 343 406 311 c 2,5,-1
 407 182 l 2,6,7
 407 122 407 122 404.5 79.5 c 128,-1,8
 402 37 402 37 394.5 0.5 c 128,-1,9
 387 -36 387 -36 377.5 -59.5 c 128,-1,10
 368 -83 368 -83 348 -101.5 c 128,-1,11
 328 -120 328 -120 306.5 -130 c 128,-1,12
 285 -140 285 -140 248.5 -146 c 128,-1,13
 212 -152 212 -152 173.5 -154 c 128,-1,14
 135 -156 135 -156 78 -156 c 1,15,-1
 70 -64 l 1,16,-1
 95 -64 l 2,17,18
 148 -64 148 -64 173 -63 c 128,-1,19
 198 -62 198 -62 227 -53 c 128,-1,20
 256 -44 256 -44 266.5 -30 c 128,-1,21
 277 -16 277 -16 287.5 15 c 128,-1,22
 298 46 298 46 300 86.5 c 128,-1,23
 302 127 302 127 302 193 c 2,24,-1
 302 579 l 1,25,-1
 447 664 l 1,26,-1
 302 749 l 1,27,-1
 302 1135 l 2,28,29
 302 1201 302 1201 300 1241.5 c 128,-1,30
 298 1282 298 1282 287.5 1313 c 128,-1,31
 277 1344 277 1344 266.5 1358 c 128,-1,32
 256 1372 256 1372 227 1381 c 128,-1,33
 198 1390 198 1390 173 1391 c 128,-1,34
 148 1392 148 1392 95 1392 c 2,35,-1
 70 1392 l 1,36,-1
 78 1484 l 1,37,38
 135 1484 135 1484 173.5 1482 c 128,-1,39
 212 1480 212 1480 248.5 1474 c 128,-1,40
 285 1468 285 1468 306.5 1458 c 128,-1,41
 328 1448 328 1448 348 1429.5 c 128,-1,42
 368 1411 368 1411 377.5 1387.5 c 128,-1,43
 387 1364 387 1364 394.5 1327.5 c 128,-1,44
 402 1291 402 1291 404.5 1248.5 c 128,-1,45
 407 1206 407 1206 407 1146 c 2,46,-1
 406 1017 l 1,47,-1
 406 985 l 2,48,49
 406 879 406 879 412 801 c 1,50,-1
 558 712 l 1,51,-1
 558 616 l 1,0,-1
EndSplineSet
EndUndoOperation
UndoOperation
Index: 2
Type: 1
WasModified: 0
WasOrder2: 1
Width: 620
VWidth: 2048
LBearingChange: 0
UnicodeEnc: 0
InstructionsLength: 0
SplineSet
558 616 m 1,0,-1
 412 527 l 1,1,2
 406 449 406 449 406 343 c 2,3,4
 406 343 406 343 406 311 c 2,5,-1
 407 182 l 2,6,7
 407 122 407 122 404.5 79.5 c 128,-1,8
 402 37 402 37 394.5 0.5 c 128,-1,9
 387 -36 387 -36 377.5 -59.5 c 128,-1,10
 368 -83 368 -83 348 -101.5 c 128,-1,11
 328 -120 328 -120 306.5 -130 c 128,-1,12
 285 -140 285 -140 248.5 -146 c 128,-1,13
 212 -152 212 -152 173.5 -154 c 128,-1,14
 135 -156 135 -156 78 -156 c 1,15,-1
 70 -64 l 1,16,-1
 95 -64 l 2,17,18
 148 -64 148 -64 173 -63 c 128,-1,19
 198 -62 198 -62 227 -53 c 128,-1,20
 256 -44 256 -44 266.5 -30 c 128,-1,21
 277 -16 277 -16 287.5 15 c 128,-1,22
 298 46 298 46 300 86.5 c 128,-1,23
 302 127 302 127 302 193 c 2,24,-1
 302 579 l 1,25,-1
 447 664 l 1,26,-1
 302 749 l 1,27,-1
 302 1135 l 2,28,29
 302 1201 302 1201 300 1241.5 c 128,-1,30
 298 1282 298 1282 287.5 1313 c 128,-1,31
 277 1344 277 1344 266.5 1358 c 128,-1,32
 256 1372 256 1372 227 1381 c 128,-1,33
 198 1390 198 1390 173 1391 c 128,-1,34
 148 1392 148 1392 95 1392 c 2,35,-1
 70 1392 l 1,36,-1
 78 1484 l 1,37,38
 135 1484 135 1484 173.5 1482 c 128,-1,39
 212 1480 212 1480 248.5 1474 c 128,-1,40
 285 1468 285 1468 306.5 1458 c 128,-1,41
 328 1448 328 1448 348 1429.5 c 128,-1,42
 368 1411 368 1411 377.5 1387.5 c 128,-1,43
 387 1364 387 1364 394.5 1327.5 c 128,-1,44
 402 1291 402 1291 404.5 1248.5 c 128,-1,45
 407 1206 407 1206 407 1146 c 2,46,-1
 406 1017 l 1,47,-1
 406 985 l 2,48,49
 406 879 406 879 412 801 c 1,50,-1
 558 712 l 1,51,-1
 558 616 l 1,0,-1
EndSplineSet
EndUndoOperation
EndUndoes
Redoes
EndRedoes
EndUndoRedoHistory
Fore
SplineSet
558 616 m 1,0,-1
 412 527 l 1,1,2
 406 449 406 449 406 343 c 2,3,-1
 406 311 l 1,4,-1
 407 182 l 2,5,6
 407 122 407 122 404.5 79.5 c 128,-1,7
 402 37 402 37 394.5 0.5 c 128,-1,8
 387 -36 387 -36 377.5 -59.5 c 128,-1,9
 368 -83 368 -83 348 -101.5 c 128,-1,10
 328 -120 328 -120 306.5 -130 c 128,-1,11
 285 -140 285 -140 248.5 -146 c 128,-1,12
 212 -152 212 -152 173.5 -154 c 128,-1,13
 135 -156 135 -156 78 -156 c 1,14,-1
 70 -64 l 1,15,-1
 95 -64 l 2,16,17
 148 -64 148 -64 173 -63 c 128,-1,18
 198 -62 198 -62 227 -53 c 128,-1,19
 256 -44 256 -44 266.5 -30 c 128,-1,20
 277 -16 277 -16 287.5 15 c 128,-1,21
 298 46 298 46 300 86.5 c 128,-1,22
 302 127 302 127 302 193 c 2,23,-1
 302 579 l 1,24,-1
 447 664 l 1,25,-1
 302 749 l 1,26,-1
 302 1135 l 2,27,28
 302 1201 302 1201 300 1241.5 c 128,-1,29
 298 1282 298 1282 287.5 1313 c 128,-1,30
 277 1344 277 1344 266.5 1358 c 128,-1,31
 256 1372 256 1372 227 1381 c 128,-1,32
 198 1390 198 1390 173 1391 c 128,-1,33
 148 1392 148 1392 95 1392 c 2,34,-1
 70 1392 l 1,35,-1
 78 1484 l 1,36,37
 135 1484 135 1484 173.5 1482 c 128,-1,38
 212 1480 212 1480 248.5 1474 c 128,-1,39
 285 1468 285 1468 306.5 1458 c 128,-1,40
 328 1448 328 1448 348 1429.5 c 128,-1,41
 368 1411 368 1411 377.5 1387.5 c 128,-1,42
 387 1364 387 1364 394.5 1327.5 c 128,-1,43
 402 1291 402 1291 404.5 1248.5 c 128,-1,44
 407 1206 407 1206 407 1146 c 2,45,-1
 406 1017 l 1,46,-1
 406 985 l 2,47,48
 406 879 406 879 412 801 c 1,49,-1
 558 712 l 1,50,-1
 558 616 l 1,0,-1
EndSplineSet
EndChar

StartChar: bracketleft
Encoding: 91 91 82
Width: 604
Flags: W
LayerCount: 2
UndoRedoHistory
Layer: 1
Undoes
UndoOperation
Index: 0
Type: 1
WasModified: 0
WasOrder2: 1
Width: 604
VWidth: 2048
LBearingChange: 0
UnicodeEnc: 0
InstructionsLength: 0
SplineSet
288 0 m 1,0,-1
 544 0 l 1,1,-1
 544 -103 l 1,2,-1
 160 -103 l 1,3,-1
 160 1358 l 1,4,-1
 544 1358 l 1,5,-1
 544 1254 l 1,6,-1
 288 1254 l 1,7,-1
 288 0 l 1,0,-1
EndSplineSet
EndUndoOperation
UndoOperation
Index: 1
Type: 1
WasModified: 0
WasOrder2: 1
Width: 604
VWidth: 2048
LBearingChange: 0
UnicodeEnc: 0
InstructionsLength: 0
SplineSet
288 0 m 1,0,-1
 544 0 l 1,1,-1
 544 -103 l 1,2,-1
 160 -103 l 1,3,-1
 160 1358 l 1,4,-1
 544 1358 l 1,5,-1
 544 1254 l 1,6,-1
 288 1254 l 1,7,-1
 288 0 l 1,0,-1
EndSplineSet
EndUndoOperation
UndoOperation
Index: 2
Type: 1
WasModified: 0
WasOrder2: 1
Width: 604
VWidth: 2048
LBearingChange: 0
UnicodeEnc: 0
InstructionsLength: 0
SplineSet
288 0 m 1,0,-1
 544 0 l 1,1,-1
 544 -103 l 1,2,-1
 160 -103 l 1,3,-1
 160 1358 l 1,4,-1
 544 1358 l 1,5,-1
 544 1254 l 1,6,-1
 288 1254 l 1,7,-1
 288 0 l 1,0,-1
EndSplineSet
EndUndoOperation
EndUndoes
Redoes
EndRedoes
EndUndoRedoHistory
Fore
SplineSet
288 0 m 1,0,-1
 544 0 l 1,1,-1
 544 -103 l 1,2,-1
 160 -103 l 1,3,-1
 160 1358 l 1,4,-1
 544 1358 l 1,5,-1
 544 1254 l 1,6,-1
 288 1254 l 1,7,-1
 288 0 l 1,0,-1
EndSplineSet
EndChar

StartChar: bracketright
Encoding: 93 93 83
Width: 604
Flags: W
LayerCount: 2
UndoRedoHistory
Layer: 1
Undoes
UndoOperation
Index: 0
Type: 1
WasModified: 0
WasOrder2: 1
Width: 604
VWidth: 2048
LBearingChange: 0
UnicodeEnc: 0
InstructionsLength: 0
SplineSet
416 1255 m 1,0,-1
 160 1255 l 1,1,-1
 160 1358 l 1,2,-1
 544 1358 l 1,3,-1
 544 -103 l 1,4,-1
 160 -103 l 1,5,-1
 160 1 l 1,6,-1
 416 1 l 1,7,-1
 416 1255 l 1,0,-1
EndSplineSet
EndUndoOperation
UndoOperation
Index: 1
Type: 1
WasModified: 0
WasOrder2: 1
Width: 604
VWidth: 2048
LBearingChange: 0
UnicodeEnc: 0
InstructionsLength: 0
SplineSet
416 1255 m 1,0,-1
 160 1255 l 1,1,-1
 160 1358 l 1,2,-1
 544 1358 l 1,3,-1
 544 -103 l 1,4,-1
 160 -103 l 1,5,-1
 160 1 l 1,6,-1
 416 1 l 1,7,-1
 416 1255 l 1,0,-1
EndSplineSet
EndUndoOperation
UndoOperation
Index: 2
Type: 1
WasModified: 0
WasOrder2: 1
Width: 604
VWidth: 2048
LBearingChange: 0
UnicodeEnc: 0
InstructionsLength: 0
SplineSet
416 1255 m 1,0,-1
 160 1255 l 1,1,-1
 160 1358 l 1,2,-1
 544 1358 l 1,3,-1
 544 -103 l 1,4,-1
 160 -103 l 1,5,-1
 160 1 l 1,6,-1
 416 1 l 1,7,-1
 416 1255 l 1,0,-1
EndSplineSet
EndUndoOperation
EndUndoes
Redoes
EndRedoes
EndUndoRedoHistory
Fore
SplineSet
416 1255 m 1,0,-1
 160 1255 l 1,1,-1
 160 1358 l 1,2,-1
 544 1358 l 1,3,-1
 544 -103 l 1,4,-1
 160 -103 l 1,5,-1
 160 1 l 1,6,-1
 416 1 l 1,7,-1
 416 1255 l 1,0,-1
EndSplineSet
EndChar

StartChar: bullet
Encoding: 8226 8226 84
Width: 707
Flags: W
LayerCount: 2
UndoRedoHistory
Layer: 1
Undoes
UndoOperation
Index: 0
Type: 1
WasModified: 0
WasOrder2: 1
Width: 707
VWidth: 2048
LBearingChange: 0
UnicodeEnc: 0
InstructionsLength: 0
SplineSet
145 582 m 128,-1,1
 145 668 145 668 206 729 c 128,-1,2
 267 790 267 790 353 790 c 128,-1,3
 439 790 439 790 500 729 c 128,-1,4
 561 668 561 668 561 582 c 128,-1,5
 561 496 561 496 500 435 c 128,-1,6
 439 374 439 374 353 374 c 128,-1,7
 267 374 267 374 206 435 c 128,-1,0
 145 496 145 496 145 582 c 128,-1,1
EndSplineSet
EndUndoOperation
UndoOperation
Index: 1
Type: 1
WasModified: 0
WasOrder2: 1
Width: 707
VWidth: 2048
LBearingChange: 0
UnicodeEnc: 0
InstructionsLength: 0
SplineSet
145 582 m 128,-1,1
 145 668 145 668 206 729 c 128,-1,2
 267 790 267 790 353 790 c 128,-1,3
 439 790 439 790 500 729 c 128,-1,4
 561 668 561 668 561 582 c 128,-1,5
 561 496 561 496 500 435 c 128,-1,6
 439 374 439 374 353 374 c 128,-1,7
 267 374 267 374 206 435 c 128,-1,0
 145 496 145 496 145 582 c 128,-1,1
EndSplineSet
EndUndoOperation
UndoOperation
Index: 2
Type: 1
WasModified: 0
WasOrder2: 1
Width: 707
VWidth: 2048
LBearingChange: 0
UnicodeEnc: 0
InstructionsLength: 0
SplineSet
145 582 m 128,-1,1
 145 668 145 668 206 729 c 128,-1,2
 267 790 267 790 353 790 c 128,-1,3
 439 790 439 790 500 729 c 128,-1,4
 561 668 561 668 561 582 c 128,-1,5
 561 496 561 496 500 435 c 128,-1,6
 439 374 439 374 353 374 c 128,-1,7
 267 374 267 374 206 435 c 128,-1,0
 145 496 145 496 145 582 c 128,-1,1
EndSplineSet
EndUndoOperation
EndUndoes
Redoes
EndRedoes
EndUndoRedoHistory
Fore
SplineSet
145 582 m 128,-1,1
 145 668 145 668 206 729 c 128,-1,2
 267 790 267 790 353 790 c 128,-1,3
 439 790 439 790 500 729 c 128,-1,4
 561 668 561 668 561 582 c 128,-1,5
 561 496 561 496 500 435 c 128,-1,6
 439 374 439 374 353 374 c 128,-1,7
 267 374 267 374 206 435 c 128,-1,0
 145 496 145 496 145 582 c 128,-1,1
EndSplineSet
EndChar

StartChar: c
Encoding: 99 99 85
Width: 864
Flags: W
LayerCount: 2
UndoRedoHistory
Layer: 1
Undoes
UndoOperation
Index: 0
Type: 1
WasModified: 0
WasOrder2: 1
Width: 864
VWidth: 2048
LBearingChange: 0
UnicodeEnc: 0
InstructionsLength: 0
SplineSet
750 170 m 1,0,-1
 798 79 l 1,1,2
 676 -10 676 -10 507 -10 c 0,3,4
 332 -10 332 -10 220 121 c 128,-1,5
 108 252 108 252 108 495 c 0,6,7
 108 1000 108 1000 496 1000 c 0,8,9
 632 1000 632 1000 759 940 c 1,10,-1
 759 682 l 1,11,-1
 657 672 l 1,12,-1
 657 872 l 1,13,14
 591 898 591 898 494 898 c 0,15,16
 420 898 420 898 368.5 869 c 128,-1,17
 317 840 317 840 288.5 784 c 128,-1,18
 260 728 260 728 248 657.5 c 128,-1,19
 236 587 236 587 236 493 c 0,20,21
 236 302 236 302 313.5 198 c 128,-1,22
 391 94 391 94 521 94 c 0,23,24
 638 94 638 94 750 170 c 1,0,-1
EndSplineSet
EndUndoOperation
UndoOperation
Index: 1
Type: 1
WasModified: 0
WasOrder2: 1
Width: 864
VWidth: 2048
LBearingChange: 0
UnicodeEnc: 0
InstructionsLength: 0
SplineSet
750 170 m 1,0,-1
 798 79 l 1,1,2
 676 -10 676 -10 507 -10 c 0,3,4
 332 -10 332 -10 220 121 c 128,-1,5
 108 252 108 252 108 495 c 0,6,7
 108 1000 108 1000 496 1000 c 0,8,9
 632 1000 632 1000 759 940 c 1,10,-1
 759 682 l 1,11,-1
 657 672 l 1,12,-1
 657 872 l 1,13,14
 591 898 591 898 494 898 c 0,15,16
 420 898 420 898 368.5 869 c 128,-1,17
 317 840 317 840 288.5 784 c 128,-1,18
 260 728 260 728 248 657.5 c 128,-1,19
 236 587 236 587 236 493 c 0,20,21
 236 302 236 302 313.5 198 c 128,-1,22
 391 94 391 94 521 94 c 0,23,24
 638 94 638 94 750 170 c 1,0,-1
EndSplineSet
EndUndoOperation
UndoOperation
Index: 2
Type: 1
WasModified: 0
WasOrder2: 1
Width: 864
VWidth: 2048
LBearingChange: 0
UnicodeEnc: 0
InstructionsLength: 0
SplineSet
750 170 m 1,0,-1
 798 79 l 1,1,2
 676 -10 676 -10 507 -10 c 0,3,4
 332 -10 332 -10 220 121 c 128,-1,5
 108 252 108 252 108 495 c 0,6,7
 108 1000 108 1000 496 1000 c 0,8,9
 632 1000 632 1000 759 940 c 1,10,-1
 759 682 l 1,11,-1
 657 672 l 1,12,-1
 657 872 l 1,13,14
 591 898 591 898 494 898 c 0,15,16
 420 898 420 898 368.5 869 c 128,-1,17
 317 840 317 840 288.5 784 c 128,-1,18
 260 728 260 728 248 657.5 c 128,-1,19
 236 587 236 587 236 493 c 0,20,21
 236 302 236 302 313.5 198 c 128,-1,22
 391 94 391 94 521 94 c 0,23,24
 638 94 638 94 750 170 c 1,0,-1
EndSplineSet
EndUndoOperation
EndUndoes
Redoes
EndRedoes
EndUndoRedoHistory
Fore
SplineSet
750 170 m 1,0,-1
 798 79 l 1,1,2
 676 -10 676 -10 507 -10 c 0,3,4
 332 -10 332 -10 220 121 c 128,-1,5
 108 252 108 252 108 495 c 0,6,7
 108 1000 108 1000 496 1000 c 0,8,9
 632 1000 632 1000 759 940 c 1,10,-1
 759 682 l 1,11,-1
 657 672 l 1,12,-1
 657 872 l 1,13,14
 591 898 591 898 494 898 c 0,15,16
 420 898 420 898 368.5 869 c 128,-1,17
 317 840 317 840 288.5 784 c 128,-1,18
 260 728 260 728 248 657.5 c 128,-1,19
 236 587 236 587 236 493 c 0,20,21
 236 302 236 302 313.5 198 c 128,-1,22
 391 94 391 94 521 94 c 0,23,24
 638 94 638 94 750 170 c 1,0,-1
EndSplineSet
EndChar

StartChar: caron
Encoding: 711 711 86
Width: 410
Flags: W
LayerCount: 2
UndoRedoHistory
Layer: 1
Undoes
UndoOperation
Index: 0
Type: 1
WasModified: 0
WasOrder2: 1
Width: 410
VWidth: 2048
LBearingChange: 0
UnicodeEnc: 0
InstructionsLength: 0
SplineSet
164 1106 m 1,0,-1
 356 1363 l 1,1,-1
 444 1303 l 1,2,3
 356 1184 356 1184 216 1022 c 0,4,5
 192 993 192 993 164 993 c 0,6,7
 137 993 137 993 113 1022 c 0,8,9
 -27 1184 -27 1184 -115 1303 c 1,10,-1
 -27 1363 l 1,11,-1
 164 1106 l 1,0,-1
EndSplineSet
EndUndoOperation
UndoOperation
Index: 1
Type: 1
WasModified: 0
WasOrder2: 1
Width: 410
VWidth: 2048
LBearingChange: 0
UnicodeEnc: 0
InstructionsLength: 0
SplineSet
164 1106 m 1,0,-1
 356 1363 l 1,1,-1
 444 1303 l 1,2,3
 356 1184 356 1184 216 1022 c 0,4,5
 192 993 192 993 164 993 c 0,6,7
 137 993 137 993 113 1022 c 0,8,9
 -27 1184 -27 1184 -115 1303 c 1,10,-1
 -27 1363 l 1,11,-1
 164 1106 l 1,0,-1
EndSplineSet
EndUndoOperation
UndoOperation
Index: 2
Type: 1
WasModified: 0
WasOrder2: 1
Width: 410
VWidth: 2048
LBearingChange: 0
UnicodeEnc: 0
InstructionsLength: 0
SplineSet
164 1106 m 1,0,-1
 356 1363 l 1,1,-1
 444 1303 l 1,2,3
 356 1184 356 1184 216 1022 c 0,4,5
 192 993 192 993 164 993 c 0,6,7
 137 993 137 993 113 1022 c 0,8,9
 -27 1184 -27 1184 -115 1303 c 1,10,-1
 -27 1363 l 1,11,-1
 164 1106 l 1,0,-1
EndSplineSet
EndUndoOperation
EndUndoes
Redoes
EndRedoes
EndUndoRedoHistory
Fore
SplineSet
164 1106 m 1,0,-1
 356 1363 l 1,1,-1
 444 1303 l 1,2,3
 356 1184 356 1184 216 1022 c 0,4,5
 192 993 192 993 164 993 c 0,6,7
 137 993 137 993 113 1022 c 0,8,9
 -27 1184 -27 1184 -115 1303 c 1,10,-1
 -27 1363 l 1,11,-1
 164 1106 l 1,0,-1
EndSplineSet
EndChar

StartChar: cedilla
Encoding: 184 184 88
Width: 936
Flags: W
LayerCount: 2
UndoRedoHistory
Layer: 1
Undoes
UndoOperation
Index: 0
Type: 1
WasModified: 0
WasOrder2: 1
Width: 936
VWidth: 2048
LBearingChange: 0
UnicodeEnc: 0
InstructionsLength: 0
SplineSet
481 -137 m 1,0,1
 568 -138 568 -138 617.5 -174.5 c 128,-1,2
 667 -211 667 -211 667 -279 c 0,3,4
 667 -368 667 -368 615.5 -414.5 c 128,-1,5
 564 -461 564 -461 483 -461 c 0,6,7
 417 -461 417 -461 351 -431 c 1,8,-1
 366 -351 l 1,9,10
 419 -375 419 -375 463 -375 c 0,11,12
 505 -375 505 -375 530 -352.5 c 128,-1,13
 555 -330 555 -330 555 -284 c 0,14,15
 555 -269 555 -269 552.5 -257 c 128,-1,16
 550 -245 550 -245 543 -236 c 128,-1,17
 536 -227 536 -227 530 -220.5 c 128,-1,18
 524 -214 524 -214 511.5 -209 c 128,-1,19
 499 -204 499 -204 491 -201 c 128,-1,20
 483 -198 483 -198 466 -195.5 c 128,-1,21
 449 -193 449 -193 441 -192 c 128,-1,22
 433 -191 433 -191 413 -189 c 128,-1,23
 393 -187 393 -187 386 -186 c 1,24,-1
 387 -70 l 1,25,-1
 491 -70 l 1,26,-1
 481 -137 l 1,0,1
EndSplineSet
EndUndoOperation
UndoOperation
Index: 1
Type: 1
WasModified: 0
WasOrder2: 1
Width: 936
VWidth: 2048
LBearingChange: 0
UnicodeEnc: 0
InstructionsLength: 0
SplineSet
481 -137 m 1,0,1
 568 -138 568 -138 617.5 -174.5 c 128,-1,2
 667 -211 667 -211 667 -279 c 0,3,4
 667 -368 667 -368 615.5 -414.5 c 128,-1,5
 564 -461 564 -461 483 -461 c 0,6,7
 417 -461 417 -461 351 -431 c 1,8,-1
 366 -351 l 1,9,10
 419 -375 419 -375 463 -375 c 0,11,12
 505 -375 505 -375 530 -352.5 c 128,-1,13
 555 -330 555 -330 555 -284 c 0,14,15
 555 -269 555 -269 552.5 -257 c 128,-1,16
 550 -245 550 -245 543 -236 c 128,-1,17
 536 -227 536 -227 530 -220.5 c 128,-1,18
 524 -214 524 -214 511.5 -209 c 128,-1,19
 499 -204 499 -204 491 -201 c 128,-1,20
 483 -198 483 -198 466 -195.5 c 128,-1,21
 449 -193 449 -193 441 -192 c 128,-1,22
 433 -191 433 -191 413 -189 c 128,-1,23
 393 -187 393 -187 386 -186 c 1,24,-1
 387 -70 l 1,25,-1
 491 -70 l 1,26,-1
 481 -137 l 1,0,1
EndSplineSet
EndUndoOperation
UndoOperation
Index: 2
Type: 1
WasModified: 0
WasOrder2: 1
Width: 936
VWidth: 2048
LBearingChange: 0
UnicodeEnc: 0
InstructionsLength: 0
SplineSet
481 -137 m 1,0,1
 568 -138 568 -138 617.5 -174.5 c 128,-1,2
 667 -211 667 -211 667 -279 c 0,3,4
 667 -368 667 -368 615.5 -414.5 c 128,-1,5
 564 -461 564 -461 483 -461 c 0,6,7
 417 -461 417 -461 351 -431 c 1,8,-1
 366 -351 l 1,9,10
 419 -375 419 -375 463 -375 c 0,11,12
 505 -375 505 -375 530 -352.5 c 128,-1,13
 555 -330 555 -330 555 -284 c 0,14,15
 555 -269 555 -269 552.5 -257 c 128,-1,16
 550 -245 550 -245 543 -236 c 128,-1,17
 536 -227 536 -227 530 -220.5 c 128,-1,18
 524 -214 524 -214 511.5 -209 c 128,-1,19
 499 -204 499 -204 491 -201 c 128,-1,20
 483 -198 483 -198 466 -195.5 c 128,-1,21
 449 -193 449 -193 441 -192 c 128,-1,22
 433 -191 433 -191 413 -189 c 128,-1,23
 393 -187 393 -187 386 -186 c 1,24,-1
 387 -70 l 1,25,-1
 491 -70 l 1,26,-1
 481 -137 l 1,0,1
EndSplineSet
EndUndoOperation
EndUndoes
Redoes
EndRedoes
EndUndoRedoHistory
Fore
SplineSet
481 -137 m 1,0,1
 568 -138 568 -138 617.5 -174.5 c 128,-1,2
 667 -211 667 -211 667 -279 c 0,3,4
 667 -368 667 -368 615.5 -414.5 c 128,-1,5
 564 -461 564 -461 483 -461 c 0,6,7
 417 -461 417 -461 351 -431 c 1,8,-1
 366 -351 l 1,9,10
 419 -375 419 -375 463 -375 c 0,11,12
 505 -375 505 -375 530 -352.5 c 128,-1,13
 555 -330 555 -330 555 -284 c 0,14,15
 555 -269 555 -269 552.5 -257 c 128,-1,16
 550 -245 550 -245 543 -236 c 128,-1,17
 536 -227 536 -227 530 -220.5 c 128,-1,18
 524 -214 524 -214 511.5 -209 c 128,-1,19
 499 -204 499 -204 491 -201 c 128,-1,20
 483 -198 483 -198 466 -195.5 c 128,-1,21
 449 -193 449 -193 441 -192 c 128,-1,22
 433 -191 433 -191 413 -189 c 128,-1,23
 393 -187 393 -187 386 -186 c 1,24,-1
 387 -70 l 1,25,-1
 491 -70 l 1,26,-1
 481 -137 l 1,0,1
EndSplineSet
EndChar

StartChar: cent
Encoding: 162 162 89
Width: 878
Flags: W
LayerCount: 2
UndoRedoHistory
Layer: 1
Undoes
UndoOperation
Index: 0
Type: 1
WasModified: 0
WasOrder2: 1
Width: 878
VWidth: 2048
LBearingChange: 0
UnicodeEnc: 0
InstructionsLength: 0
SplineSet
445 -15 m 1,0,1
 284 4 284 4 204 134.5 c 128,-1,2
 124 265 124 265 124 486 c 0,3,4
 124 944 124 944 441 982 c 1,5,-1
 441 1125 l 1,6,-1
 539 1125 l 1,7,-1
 539 984 l 1,8,9
 641 974 641 974 719 946 c 1,10,-1
 696 844 l 1,11,12
 594 881 594 881 492 881 c 0,13,14
 420 881 420 881 368 850.5 c 128,-1,15
 316 820 316 820 286.5 765 c 128,-1,16
 257 710 257 710 243 641 c 128,-1,17
 229 572 229 572 229 487 c 0,18,19
 229 296 229 296 295.5 191 c 128,-1,20
 362 86 362 86 492 86 c 0,21,22
 579 86 579 86 723 143 c 1,23,-1
 751 41 l 1,24,25
 644 -4 644 -4 543 -16 c 1,26,-1
 543 -147 l 1,27,-1
 445 -147 l 1,28,-1
 445 -15 l 1,0,1
EndSplineSet
EndUndoOperation
UndoOperation
Index: 1
Type: 1
WasModified: 0
WasOrder2: 1
Width: 878
VWidth: 2048
LBearingChange: 0
UnicodeEnc: 0
InstructionsLength: 0
SplineSet
445 -15 m 1,0,1
 284 4 284 4 204 134.5 c 128,-1,2
 124 265 124 265 124 486 c 0,3,4
 124 944 124 944 441 982 c 1,5,-1
 441 1125 l 1,6,-1
 539 1125 l 1,7,-1
 539 984 l 1,8,9
 641 974 641 974 719 946 c 1,10,-1
 696 844 l 1,11,12
 594 881 594 881 492 881 c 0,13,14
 420 881 420 881 368 850.5 c 128,-1,15
 316 820 316 820 286.5 765 c 128,-1,16
 257 710 257 710 243 641 c 128,-1,17
 229 572 229 572 229 487 c 0,18,19
 229 296 229 296 295.5 191 c 128,-1,20
 362 86 362 86 492 86 c 0,21,22
 579 86 579 86 723 143 c 1,23,-1
 751 41 l 1,24,25
 644 -4 644 -4 543 -16 c 1,26,-1
 543 -147 l 1,27,-1
 445 -147 l 1,28,-1
 445 -15 l 1,0,1
EndSplineSet
EndUndoOperation
UndoOperation
Index: 2
Type: 1
WasModified: 0
WasOrder2: 1
Width: 878
VWidth: 2048
LBearingChange: 0
UnicodeEnc: 0
InstructionsLength: 0
SplineSet
445 -15 m 1,0,1
 284 4 284 4 204 134.5 c 128,-1,2
 124 265 124 265 124 486 c 0,3,4
 124 944 124 944 441 982 c 1,5,-1
 441 1125 l 1,6,-1
 539 1125 l 1,7,-1
 539 984 l 1,8,9
 641 974 641 974 719 946 c 1,10,-1
 696 844 l 1,11,12
 594 881 594 881 492 881 c 0,13,14
 420 881 420 881 368 850.5 c 128,-1,15
 316 820 316 820 286.5 765 c 128,-1,16
 257 710 257 710 243 641 c 128,-1,17
 229 572 229 572 229 487 c 0,18,19
 229 296 229 296 295.5 191 c 128,-1,20
 362 86 362 86 492 86 c 0,21,22
 579 86 579 86 723 143 c 1,23,-1
 751 41 l 1,24,25
 644 -4 644 -4 543 -16 c 1,26,-1
 543 -147 l 1,27,-1
 445 -147 l 1,28,-1
 445 -15 l 1,0,1
EndSplineSet
EndUndoOperation
EndUndoes
Redoes
EndRedoes
EndUndoRedoHistory
Fore
SplineSet
445 -15 m 1,0,1
 284 4 284 4 204 134.5 c 128,-1,2
 124 265 124 265 124 486 c 0,3,4
 124 944 124 944 441 982 c 1,5,-1
 441 1125 l 1,6,-1
 539 1125 l 1,7,-1
 539 984 l 1,8,9
 641 974 641 974 719 946 c 1,10,-1
 696 844 l 1,11,12
 594 881 594 881 492 881 c 0,13,14
 420 881 420 881 368 850.5 c 128,-1,15
 316 820 316 820 286.5 765 c 128,-1,16
 257 710 257 710 243 641 c 128,-1,17
 229 572 229 572 229 487 c 0,18,19
 229 296 229 296 295.5 191 c 128,-1,20
 362 86 362 86 492 86 c 0,21,22
 579 86 579 86 723 143 c 1,23,-1
 751 41 l 1,24,25
 644 -4 644 -4 543 -16 c 1,26,-1
 543 -147 l 1,27,-1
 445 -147 l 1,28,-1
 445 -15 l 1,0,1
EndSplineSet
EndChar

StartChar: circumflex
Encoding: 710 710 90
Width: 869
Flags: W
LayerCount: 2
UndoRedoHistory
Layer: 1
Undoes
UndoOperation
Index: 0
Type: 1
WasModified: 0
WasOrder2: 1
Width: 869
VWidth: 2048
LBearingChange: 0
UnicodeEnc: 0
InstructionsLength: 0
SplineSet
435 1260 m 1,0,-1
 222 1022 l 1,1,-1
 136 1102 l 1,2,3
 291 1275 291 1275 382 1363 c 1,4,-1
 487 1363 l 1,5,6
 578 1275 578 1275 733 1102 c 1,7,-1
 647 1022 l 1,8,-1
 435 1260 l 1,0,-1
EndSplineSet
EndUndoOperation
UndoOperation
Index: 1
Type: 1
WasModified: 0
WasOrder2: 1
Width: 869
VWidth: 2048
LBearingChange: 0
UnicodeEnc: 0
InstructionsLength: 0
SplineSet
435 1260 m 1,0,-1
 222 1022 l 1,1,-1
 136 1102 l 1,2,3
 291 1275 291 1275 382 1363 c 1,4,-1
 487 1363 l 1,5,6
 578 1275 578 1275 733 1102 c 1,7,-1
 647 1022 l 1,8,-1
 435 1260 l 1,0,-1
EndSplineSet
EndUndoOperation
UndoOperation
Index: 2
Type: 1
WasModified: 0
WasOrder2: 1
Width: 869
VWidth: 2048
LBearingChange: 0
UnicodeEnc: 0
InstructionsLength: 0
SplineSet
435 1260 m 1,0,-1
 222 1022 l 1,1,-1
 136 1102 l 1,2,3
 291 1275 291 1275 382 1363 c 1,4,-1
 487 1363 l 1,5,6
 578 1275 578 1275 733 1102 c 1,7,-1
 647 1022 l 1,8,-1
 435 1260 l 1,0,-1
EndSplineSet
EndUndoOperation
EndUndoes
Redoes
EndRedoes
EndUndoRedoHistory
Fore
SplineSet
435 1260 m 1,0,-1
 222 1022 l 1,1,-1
 136 1102 l 1,2,3
 291 1275 291 1275 382 1363 c 1,4,-1
 487 1363 l 1,5,6
 578 1275 578 1275 733 1102 c 1,7,-1
 647 1022 l 1,8,-1
 435 1260 l 1,0,-1
EndSplineSet
EndChar

StartChar: colon
Encoding: 58 58 91
Width: 481
Flags: W
LayerCount: 2
UndoRedoHistory
Layer: 1
Undoes
UndoOperation
Index: 0
Type: 1
WasModified: 0
WasOrder2: 1
Width: 481
VWidth: 2048
LBearingChange: 0
UnicodeEnc: 0
InstructionsLength: 0
SplineSet
308 841 m 1,0,-1
 308 639 l 1,1,-1
 145 639 l 1,2,-1
 145 841 l 1,3,-1
 308 841 l 1,0,-1
308 243 m 1,4,-1
 308 47 l 1,5,-1
 145 47 l 1,6,-1
 145 243 l 1,7,-1
 308 243 l 1,4,-1
EndSplineSet
EndUndoOperation
UndoOperation
Index: 1
Type: 1
WasModified: 0
WasOrder2: 1
Width: 481
VWidth: 2048
LBearingChange: 0
UnicodeEnc: 0
InstructionsLength: 0
SplineSet
308 243 m 1,0,-1
 308 47 l 1,1,-1
 145 47 l 1,2,-1
 145 243 l 1,3,-1
 308 243 l 1,0,-1
308 841 m 1,4,-1
 308 639 l 1,5,-1
 145 639 l 1,6,-1
 145 841 l 1,7,-1
 308 841 l 1,4,-1
EndSplineSet
EndUndoOperation
UndoOperation
Index: 2
Type: 1
WasModified: 0
WasOrder2: 1
Width: 481
VWidth: 2048
LBearingChange: 0
UnicodeEnc: 0
InstructionsLength: 0
SplineSet
308 243 m 1,0,-1
 308 47 l 1,1,-1
 145 47 l 1,2,-1
 145 243 l 1,3,-1
 308 243 l 1,0,-1
308 841 m 1,4,-1
 308 639 l 1,5,-1
 145 639 l 1,6,-1
 145 841 l 1,7,-1
 308 841 l 1,4,-1
EndSplineSet
EndUndoOperation
EndUndoes
Redoes
EndRedoes
EndUndoRedoHistory
Fore
SplineSet
308 841 m 1,0,-1
 308 639 l 1,1,-1
 145 639 l 1,2,-1
 145 841 l 1,3,-1
 308 841 l 1,0,-1
308 243 m 1,4,-1
 308 47 l 1,5,-1
 145 47 l 1,6,-1
 145 243 l 1,7,-1
 308 243 l 1,4,-1
EndSplineSet
EndChar

StartChar: comma
Encoding: 44 44 92
Width: 491
Flags: W
LayerCount: 2
UndoRedoHistory
Layer: 1
Undoes
UndoOperation
Index: 0
Type: 1
WasModified: 0
WasOrder2: 1
Width: 491
VWidth: 2048
LBearingChange: 0
UnicodeEnc: 0
InstructionsLength: 0
SplineSet
341 39 m 2,0,1
 341 -51 341 -51 307 -123 c 128,-1,2
 273 -195 273 -195 205 -274 c 1,3,-1
 158 -221 l 1,4,5
 239 -96 239 -96 244 0 c 1,6,-1
 149 0 l 1,7,-1
 149 210 l 1,8,-1
 341 210 l 1,9,-1
 341 39 l 2,0,1
EndSplineSet
EndUndoOperation
UndoOperation
Index: 1
Type: 1
WasModified: 0
WasOrder2: 1
Width: 491
VWidth: 2048
LBearingChange: 0
UnicodeEnc: 0
InstructionsLength: 0
SplineSet
341 39 m 2,0,1
 341 -51 341 -51 307 -123 c 128,-1,2
 273 -195 273 -195 205 -274 c 1,3,-1
 158 -221 l 1,4,5
 239 -96 239 -96 244 0 c 1,6,-1
 149 0 l 1,7,-1
 149 210 l 1,8,-1
 341 210 l 1,9,-1
 341 39 l 2,0,1
EndSplineSet
EndUndoOperation
UndoOperation
Index: 2
Type: 1
WasModified: 0
WasOrder2: 1
Width: 491
VWidth: 2048
LBearingChange: 0
UnicodeEnc: 0
InstructionsLength: 0
SplineSet
341 39 m 2,0,1
 341 -51 341 -51 307 -123 c 128,-1,2
 273 -195 273 -195 205 -274 c 1,3,-1
 158 -221 l 1,4,5
 239 -96 239 -96 244 0 c 1,6,-1
 149 0 l 1,7,-1
 149 210 l 1,8,-1
 341 210 l 1,9,-1
 341 39 l 2,0,1
EndSplineSet
EndUndoOperation
EndUndoes
Redoes
EndRedoes
EndUndoRedoHistory
Fore
SplineSet
341 39 m 2,0,1
 341 -51 341 -51 307 -123 c 128,-1,2
 273 -195 273 -195 205 -274 c 1,3,-1
 158 -221 l 1,4,5
 239 -96 239 -96 244 0 c 1,6,-1
 149 0 l 1,7,-1
 149 210 l 1,8,-1
 341 210 l 1,9,-1
 341 39 l 2,0,1
EndSplineSet
EndChar

StartChar: copyright
Encoding: 169 169 93
Width: 1583
Flags: W
LayerCount: 2
UndoRedoHistory
Layer: 1
Undoes
UndoOperation
Index: 0
Type: 1
WasModified: 0
WasOrder2: 1
Width: 1583
VWidth: 2048
LBearingChange: 0
UnicodeEnc: 0
InstructionsLength: 0
SplineSet
237 646 m 128,-1,1
 237 493 237 493 311 364 c 128,-1,2
 385 235 385 235 512.5 159.5 c 128,-1,3
 640 84 640 84 790 84 c 0,4,5
 941 84 941 84 1068.5 159.5 c 128,-1,6
 1196 235 1196 235 1270.5 364.5 c 128,-1,7
 1345 494 1345 494 1345 646 c 128,-1,8
 1345 798 1345 798 1270.5 927.5 c 128,-1,9
 1196 1057 1196 1057 1068.5 1132.5 c 128,-1,10
 941 1208 941 1208 790 1208 c 0,11,12
 640 1208 640 1208 512.5 1132.5 c 128,-1,13
 385 1057 385 1057 311 928 c 128,-1,0
 237 799 237 799 237 646 c 128,-1,1
140 646 m 128,-1,15
 140 778 140 778 191.5 898.5 c 128,-1,16
 243 1019 243 1019 330 1106.5 c 128,-1,17
 417 1194 417 1194 537.5 1245.5 c 128,-1,18
 658 1297 658 1297 790 1297 c 128,-1,19
 922 1297 922 1297 1043 1245.5 c 128,-1,20
 1164 1194 1164 1194 1251 1106.5 c 128,-1,21
 1338 1019 1338 1019 1390 898.5 c 128,-1,22
 1442 778 1442 778 1442 646 c 128,-1,23
 1442 514 1442 514 1390 393.5 c 128,-1,24
 1338 273 1338 273 1251 185.5 c 128,-1,25
 1164 98 1164 98 1043 46.5 c 128,-1,26
 922 -5 922 -5 790 -5 c 128,-1,27
 658 -5 658 -5 537.5 46.5 c 128,-1,28
 417 98 417 98 330 185.5 c 128,-1,29
 243 273 243 273 191.5 393.5 c 128,-1,14
 140 514 140 514 140 646 c 128,-1,15
814 292 m 0,30,31
 920 292 920 292 1021 346 c 1,32,-1
 1054 273 l 1,33,34
 937 211 937 211 807 211 c 0,35,36
 616 211 616 211 507.5 332 c 128,-1,37
 399 453 399 453 399 640 c 0,38,39
 399 727 399 727 423.5 805 c 128,-1,40
 448 883 448 883 495 946.5 c 128,-1,41
 542 1010 542 1010 620.5 1047.5 c 128,-1,42
 699 1085 699 1085 798 1085 c 0,43,44
 915 1085 915 1085 1032 1023 c 1,45,-1
 1032 825 l 1,46,-1
 943 825 l 1,47,-1
 943 978 l 1,48,49
 876 1004 876 1004 795 1004 c 0,50,51
 701 1004 701 1004 633 950 c 128,-1,52
 565 896 565 896 534.5 815 c 128,-1,53
 504 734 504 734 504 638 c 0,54,55
 504 482 504 482 585 387 c 128,-1,56
 666 292 666 292 814 292 c 0,30,31
EndSplineSet
EndUndoOperation
UndoOperation
Index: 1
Type: 1
WasModified: 0
WasOrder2: 1
Width: 1583
VWidth: 2048
LBearingChange: 0
UnicodeEnc: 0
InstructionsLength: 0
SplineSet
814 292 m 0,0,1
 920 292 920 292 1021 346 c 1,2,-1
 1054 273 l 1,3,4
 937 211 937 211 807 211 c 0,5,6
 616 211 616 211 507.5 332 c 128,-1,7
 399 453 399 453 399 640 c 0,8,9
 399 727 399 727 423.5 805 c 128,-1,10
 448 883 448 883 495 946.5 c 128,-1,11
 542 1010 542 1010 620.5 1047.5 c 128,-1,12
 699 1085 699 1085 798 1085 c 0,13,14
 915 1085 915 1085 1032 1023 c 1,15,-1
 1032 825 l 1,16,-1
 943 825 l 1,17,-1
 943 978 l 1,18,19
 876 1004 876 1004 795 1004 c 0,20,21
 701 1004 701 1004 633 950 c 128,-1,22
 565 896 565 896 534.5 815 c 128,-1,23
 504 734 504 734 504 638 c 0,24,25
 504 482 504 482 585 387 c 128,-1,26
 666 292 666 292 814 292 c 0,0,1
140 646 m 128,-1,28
 140 778 140 778 191.5 898.5 c 128,-1,29
 243 1019 243 1019 330 1106.5 c 128,-1,30
 417 1194 417 1194 537.5 1245.5 c 128,-1,31
 658 1297 658 1297 790 1297 c 128,-1,32
 922 1297 922 1297 1043 1245.5 c 128,-1,33
 1164 1194 1164 1194 1251 1106.5 c 128,-1,34
 1338 1019 1338 1019 1390 898.5 c 128,-1,35
 1442 778 1442 778 1442 646 c 128,-1,36
 1442 514 1442 514 1390 393.5 c 128,-1,37
 1338 273 1338 273 1251 185.5 c 128,-1,38
 1164 98 1164 98 1043 46.5 c 128,-1,39
 922 -5 922 -5 790 -5 c 128,-1,40
 658 -5 658 -5 537.5 46.5 c 128,-1,41
 417 98 417 98 330 185.5 c 128,-1,42
 243 273 243 273 191.5 393.5 c 128,-1,27
 140 514 140 514 140 646 c 128,-1,28
237 646 m 128,-1,44
 237 493 237 493 311 364 c 128,-1,45
 385 235 385 235 512.5 159.5 c 128,-1,46
 640 84 640 84 790 84 c 0,47,48
 941 84 941 84 1068.5 159.5 c 128,-1,49
 1196 235 1196 235 1270.5 364.5 c 128,-1,50
 1345 494 1345 494 1345 646 c 128,-1,51
 1345 798 1345 798 1270.5 927.5 c 128,-1,52
 1196 1057 1196 1057 1068.5 1132.5 c 128,-1,53
 941 1208 941 1208 790 1208 c 0,54,55
 640 1208 640 1208 512.5 1132.5 c 128,-1,56
 385 1057 385 1057 311 928 c 128,-1,43
 237 799 237 799 237 646 c 128,-1,44
EndSplineSet
EndUndoOperation
UndoOperation
Index: 2
Type: 1
WasModified: 0
WasOrder2: 1
Width: 1583
VWidth: 2048
LBearingChange: 0
UnicodeEnc: 0
InstructionsLength: 0
SplineSet
814 292 m 0,0,1
 920 292 920 292 1021 346 c 1,2,-1
 1054 273 l 1,3,4
 937 211 937 211 807 211 c 0,5,6
 616 211 616 211 507.5 332 c 128,-1,7
 399 453 399 453 399 640 c 0,8,9
 399 727 399 727 423.5 805 c 128,-1,10
 448 883 448 883 495 946.5 c 128,-1,11
 542 1010 542 1010 620.5 1047.5 c 128,-1,12
 699 1085 699 1085 798 1085 c 0,13,14
 915 1085 915 1085 1032 1023 c 1,15,-1
 1032 825 l 1,16,-1
 943 825 l 1,17,-1
 943 978 l 1,18,19
 876 1004 876 1004 795 1004 c 0,20,21
 701 1004 701 1004 633 950 c 128,-1,22
 565 896 565 896 534.5 815 c 128,-1,23
 504 734 504 734 504 638 c 0,24,25
 504 482 504 482 585 387 c 128,-1,26
 666 292 666 292 814 292 c 0,0,1
140 646 m 128,-1,28
 140 778 140 778 191.5 898.5 c 128,-1,29
 243 1019 243 1019 330 1106.5 c 128,-1,30
 417 1194 417 1194 537.5 1245.5 c 128,-1,31
 658 1297 658 1297 790 1297 c 128,-1,32
 922 1297 922 1297 1043 1245.5 c 128,-1,33
 1164 1194 1164 1194 1251 1106.5 c 128,-1,34
 1338 1019 1338 1019 1390 898.5 c 128,-1,35
 1442 778 1442 778 1442 646 c 128,-1,36
 1442 514 1442 514 1390 393.5 c 128,-1,37
 1338 273 1338 273 1251 185.5 c 128,-1,38
 1164 98 1164 98 1043 46.5 c 128,-1,39
 922 -5 922 -5 790 -5 c 128,-1,40
 658 -5 658 -5 537.5 46.5 c 128,-1,41
 417 98 417 98 330 185.5 c 128,-1,42
 243 273 243 273 191.5 393.5 c 128,-1,27
 140 514 140 514 140 646 c 128,-1,28
237 646 m 128,-1,44
 237 493 237 493 311 364 c 128,-1,45
 385 235 385 235 512.5 159.5 c 128,-1,46
 640 84 640 84 790 84 c 0,47,48
 941 84 941 84 1068.5 159.5 c 128,-1,49
 1196 235 1196 235 1270.5 364.5 c 128,-1,50
 1345 494 1345 494 1345 646 c 128,-1,51
 1345 798 1345 798 1270.5 927.5 c 128,-1,52
 1196 1057 1196 1057 1068.5 1132.5 c 128,-1,53
 941 1208 941 1208 790 1208 c 0,54,55
 640 1208 640 1208 512.5 1132.5 c 128,-1,56
 385 1057 385 1057 311 928 c 128,-1,43
 237 799 237 799 237 646 c 128,-1,44
EndSplineSet
EndUndoOperation
EndUndoes
Redoes
EndRedoes
EndUndoRedoHistory
Fore
SplineSet
237 646 m 128,-1,1
 237 493 237 493 311 364 c 128,-1,2
 385 235 385 235 512.5 159.5 c 128,-1,3
 640 84 640 84 790 84 c 0,4,5
 941 84 941 84 1068.5 159.5 c 128,-1,6
 1196 235 1196 235 1270.5 364.5 c 128,-1,7
 1345 494 1345 494 1345 646 c 128,-1,8
 1345 798 1345 798 1270.5 927.5 c 128,-1,9
 1196 1057 1196 1057 1068.5 1132.5 c 128,-1,10
 941 1208 941 1208 790 1208 c 0,11,12
 640 1208 640 1208 512.5 1132.5 c 128,-1,13
 385 1057 385 1057 311 928 c 128,-1,0
 237 799 237 799 237 646 c 128,-1,1
140 646 m 128,-1,15
 140 778 140 778 191.5 898.5 c 128,-1,16
 243 1019 243 1019 330 1106.5 c 128,-1,17
 417 1194 417 1194 537.5 1245.5 c 128,-1,18
 658 1297 658 1297 790 1297 c 128,-1,19
 922 1297 922 1297 1043 1245.5 c 128,-1,20
 1164 1194 1164 1194 1251 1106.5 c 128,-1,21
 1338 1019 1338 1019 1390 898.5 c 128,-1,22
 1442 778 1442 778 1442 646 c 128,-1,23
 1442 514 1442 514 1390 393.5 c 128,-1,24
 1338 273 1338 273 1251 185.5 c 128,-1,25
 1164 98 1164 98 1043 46.5 c 128,-1,26
 922 -5 922 -5 790 -5 c 128,-1,27
 658 -5 658 -5 537.5 46.5 c 128,-1,28
 417 98 417 98 330 185.5 c 128,-1,29
 243 273 243 273 191.5 393.5 c 128,-1,14
 140 514 140 514 140 646 c 128,-1,15
814 292 m 0,30,31
 920 292 920 292 1021 346 c 1,32,-1
 1054 273 l 1,33,34
 937 211 937 211 807 211 c 0,35,36
 616 211 616 211 507.5 332 c 128,-1,37
 399 453 399 453 399 640 c 0,38,39
 399 727 399 727 423.5 805 c 128,-1,40
 448 883 448 883 495 946.5 c 128,-1,41
 542 1010 542 1010 620.5 1047.5 c 128,-1,42
 699 1085 699 1085 798 1085 c 0,43,44
 915 1085 915 1085 1032 1023 c 1,45,-1
 1032 825 l 1,46,-1
 943 825 l 1,47,-1
 943 978 l 1,48,49
 876 1004 876 1004 795 1004 c 0,50,51
 701 1004 701 1004 633 950 c 128,-1,52
 565 896 565 896 534.5 815 c 128,-1,53
 504 734 504 734 504 638 c 0,54,55
 504 482 504 482 585 387 c 128,-1,56
 666 292 666 292 814 292 c 0,30,31
EndSplineSet
EndChar

StartChar: d
Encoding: 100 100 94
Width: 1010
Flags: W
LayerCount: 2
UndoRedoHistory
Layer: 1
Undoes
UndoOperation
Index: 0
Type: 1
WasModified: 0
WasOrder2: 1
Width: 1010
VWidth: 2048
LBearingChange: 0
UnicodeEnc: 0
InstructionsLength: 0
SplineSet
742 1358 m 1,0,-1
 870 1358 l 1,1,-1
 870 0 l 1,2,-1
 766 0 l 1,3,-1
 756 50 l 1,4,5
 644 -10 644 -10 514 -10 c 0,6,7
 422 -10 422 -10 350 17.5 c 128,-1,8
 278 45 278 45 222.5 103.5 c 128,-1,9
 167 162 167 162 137.5 260.5 c 128,-1,10
 108 359 108 359 108 493 c 0,11,12
 108 598 108 598 128 683.5 c 128,-1,13
 148 769 148 769 182.5 827 c 128,-1,14
 217 885 217 885 265 924.5 c 128,-1,15
 313 964 313 964 368 982 c 128,-1,16
 423 1000 423 1000 484 1000 c 0,17,18
 552 1000 552 1000 611 984 c 128,-1,19
 670 968 670 968 742 923 c 1,20,-1
 742 1358 l 1,0,-1
742 137 m 1,21,-1
 742 809 l 1,22,23
 660 856 660 856 605.5 875.5 c 128,-1,24
 551 895 551 895 500 895 c 0,25,26
 378 895 378 895 307 793.5 c 128,-1,27
 236 692 236 692 236 491 c 0,28,29
 236 96 236 96 532 96 c 2,30,-1
 560 96 l 2,31,32
 654 96 654 96 742 137 c 1,21,-1
EndSplineSet
EndUndoOperation
UndoOperation
Index: 1
Type: 1
WasModified: 0
WasOrder2: 1
Width: 1010
VWidth: 2048
LBearingChange: 0
UnicodeEnc: 0
InstructionsLength: 0
SplineSet
742 137 m 1,0,-1
 742 809 l 1,1,2
 660 856 660 856 605.5 875.5 c 128,-1,3
 551 895 551 895 500 895 c 0,4,5
 378 895 378 895 307 793.5 c 128,-1,6
 236 692 236 692 236 491 c 0,7,8
 236 96 236 96 532 96 c 2,9,-1
 560 96 l 2,10,11
 654 96 654 96 742 137 c 1,0,-1
742 1358 m 1,12,-1
 870 1358 l 1,13,-1
 870 0 l 1,14,-1
 766 0 l 1,15,-1
 756 50 l 1,16,17
 644 -10 644 -10 514 -10 c 0,18,19
 422 -10 422 -10 350 17.5 c 128,-1,20
 278 45 278 45 222.5 103.5 c 128,-1,21
 167 162 167 162 137.5 260.5 c 128,-1,22
 108 359 108 359 108 493 c 0,23,24
 108 598 108 598 128 683.5 c 128,-1,25
 148 769 148 769 182.5 827 c 128,-1,26
 217 885 217 885 265 924.5 c 128,-1,27
 313 964 313 964 368 982 c 128,-1,28
 423 1000 423 1000 484 1000 c 0,29,30
 552 1000 552 1000 611 984 c 128,-1,31
 670 968 670 968 742 923 c 1,32,-1
 742 1358 l 1,12,-1
EndSplineSet
EndUndoOperation
UndoOperation
Index: 2
Type: 1
WasModified: 0
WasOrder2: 1
Width: 1010
VWidth: 2048
LBearingChange: 0
UnicodeEnc: 0
InstructionsLength: 0
SplineSet
742 137 m 1,0,-1
 742 809 l 1,1,2
 660 856 660 856 605.5 875.5 c 128,-1,3
 551 895 551 895 500 895 c 0,4,5
 378 895 378 895 307 793.5 c 128,-1,6
 236 692 236 692 236 491 c 0,7,8
 236 96 236 96 532 96 c 2,9,-1
 560 96 l 2,10,11
 654 96 654 96 742 137 c 1,0,-1
742 1358 m 1,12,-1
 870 1358 l 1,13,-1
 870 0 l 1,14,-1
 766 0 l 1,15,-1
 756 50 l 1,16,17
 644 -10 644 -10 514 -10 c 0,18,19
 422 -10 422 -10 350 17.5 c 128,-1,20
 278 45 278 45 222.5 103.5 c 128,-1,21
 167 162 167 162 137.5 260.5 c 128,-1,22
 108 359 108 359 108 493 c 0,23,24
 108 598 108 598 128 683.5 c 128,-1,25
 148 769 148 769 182.5 827 c 128,-1,26
 217 885 217 885 265 924.5 c 128,-1,27
 313 964 313 964 368 982 c 128,-1,28
 423 1000 423 1000 484 1000 c 0,29,30
 552 1000 552 1000 611 984 c 128,-1,31
 670 968 670 968 742 923 c 1,32,-1
 742 1358 l 1,12,-1
EndSplineSet
EndUndoOperation
EndUndoes
Redoes
EndRedoes
EndUndoRedoHistory
Fore
SplineSet
742 1358 m 1,0,-1
 870 1358 l 1,1,-1
 870 0 l 1,2,-1
 766 0 l 1,3,-1
 756 50 l 1,4,5
 644 -10 644 -10 514 -10 c 0,6,7
 422 -10 422 -10 350 17.5 c 128,-1,8
 278 45 278 45 222.5 103.5 c 128,-1,9
 167 162 167 162 137.5 260.5 c 128,-1,10
 108 359 108 359 108 493 c 0,11,12
 108 598 108 598 128 683.5 c 128,-1,13
 148 769 148 769 182.5 827 c 128,-1,14
 217 885 217 885 265 924.5 c 128,-1,15
 313 964 313 964 368 982 c 128,-1,16
 423 1000 423 1000 484 1000 c 0,17,18
 552 1000 552 1000 611 984 c 128,-1,19
 670 968 670 968 742 923 c 1,20,-1
 742 1358 l 1,0,-1
742 137 m 1,21,-1
 742 809 l 1,22,23
 660 856 660 856 605.5 875.5 c 128,-1,24
 551 895 551 895 500 895 c 0,25,26
 378 895 378 895 307 793.5 c 128,-1,27
 236 692 236 692 236 491 c 0,28,29
 236 96 236 96 532 96 c 2,30,-1
 560 96 l 2,31,32
 654 96 654 96 742 137 c 1,21,-1
EndSplineSet
EndChar

StartChar: dagger
Encoding: 8224 8224 95
Width: 1013
Flags: W
LayerCount: 2
UndoRedoHistory
Layer: 1
Undoes
UndoOperation
Index: 0
Type: 1
WasModified: 0
WasOrder2: 1
Width: 1013
VWidth: 2048
LBearingChange: 0
UnicodeEnc: 0
InstructionsLength: 0
SplineSet
560 0 m 1,0,-1
 450 0 l 1,1,-1
 450 888 l 1,2,-1
 142 888 l 1,3,-1
 142 985 l 1,4,-1
 450 985 l 1,5,-1
 450 1301 l 1,6,-1
 560 1301 l 1,7,-1
 560 985 l 1,8,-1
 870 985 l 1,9,-1
 870 888 l 1,10,-1
 560 888 l 1,11,-1
 560 0 l 1,0,-1
EndSplineSet
EndUndoOperation
UndoOperation
Index: 1
Type: 1
WasModified: 0
WasOrder2: 1
Width: 1013
VWidth: 2048
LBearingChange: 0
UnicodeEnc: 0
InstructionsLength: 0
SplineSet
560 0 m 1,0,-1
 450 0 l 1,1,-1
 450 888 l 1,2,-1
 142 888 l 1,3,-1
 142 985 l 1,4,-1
 450 985 l 1,5,-1
 450 1301 l 1,6,-1
 560 1301 l 1,7,-1
 560 985 l 1,8,-1
 870 985 l 1,9,-1
 870 888 l 1,10,-1
 560 888 l 1,11,-1
 560 0 l 1,0,-1
EndSplineSet
EndUndoOperation
UndoOperation
Index: 2
Type: 1
WasModified: 0
WasOrder2: 1
Width: 1013
VWidth: 2048
LBearingChange: 0
UnicodeEnc: 0
InstructionsLength: 0
SplineSet
560 0 m 1,0,-1
 450 0 l 1,1,-1
 450 888 l 1,2,-1
 142 888 l 1,3,-1
 142 985 l 1,4,-1
 450 985 l 1,5,-1
 450 1301 l 1,6,-1
 560 1301 l 1,7,-1
 560 985 l 1,8,-1
 870 985 l 1,9,-1
 870 888 l 1,10,-1
 560 888 l 1,11,-1
 560 0 l 1,0,-1
EndSplineSet
EndUndoOperation
EndUndoes
Redoes
EndRedoes
EndUndoRedoHistory
Fore
SplineSet
560 0 m 1,0,-1
 450 0 l 1,1,-1
 450 888 l 1,2,-1
 142 888 l 1,3,-1
 142 985 l 1,4,-1
 450 985 l 1,5,-1
 450 1301 l 1,6,-1
 560 1301 l 1,7,-1
 560 985 l 1,8,-1
 870 985 l 1,9,-1
 870 888 l 1,10,-1
 560 888 l 1,11,-1
 560 0 l 1,0,-1
EndSplineSet
EndChar

StartChar: daggerdbl
Encoding: 8225 8225 96
Width: 1025
Flags: W
LayerCount: 2
UndoRedoHistory
Layer: 1
Undoes
UndoOperation
Index: 0
Type: 1
WasModified: 0
WasOrder2: 1
Width: 1025
VWidth: 2048
LBearingChange: 0
UnicodeEnc: 0
InstructionsLength: 0
SplineSet
566 226 m 1,0,-1
 566 0 l 1,1,-1
 456 0 l 1,2,-1
 456 226 l 1,3,-1
 148 226 l 1,4,-1
 148 322 l 1,5,-1
 456 322 l 1,6,-1
 456 980 l 1,7,-1
 148 980 l 1,8,-1
 148 1077 l 1,9,-1
 456 1077 l 1,10,-1
 456 1301 l 1,11,-1
 566 1301 l 1,12,-1
 566 1077 l 1,13,-1
 876 1077 l 1,14,-1
 876 980 l 1,15,-1
 566 980 l 1,16,-1
 566 322 l 1,17,-1
 876 322 l 1,18,-1
 876 226 l 1,19,-1
 566 226 l 1,0,-1
EndSplineSet
EndUndoOperation
UndoOperation
Index: 1
Type: 1
WasModified: 0
WasOrder2: 1
Width: 1025
VWidth: 2048
LBearingChange: 0
UnicodeEnc: 0
InstructionsLength: 0
SplineSet
566 226 m 1,0,-1
 566 0 l 1,1,-1
 456 0 l 1,2,-1
 456 226 l 1,3,-1
 148 226 l 1,4,-1
 148 322 l 1,5,-1
 456 322 l 1,6,-1
 456 980 l 1,7,-1
 148 980 l 1,8,-1
 148 1077 l 1,9,-1
 456 1077 l 1,10,-1
 456 1301 l 1,11,-1
 566 1301 l 1,12,-1
 566 1077 l 1,13,-1
 876 1077 l 1,14,-1
 876 980 l 1,15,-1
 566 980 l 1,16,-1
 566 322 l 1,17,-1
 876 322 l 1,18,-1
 876 226 l 1,19,-1
 566 226 l 1,0,-1
EndSplineSet
EndUndoOperation
UndoOperation
Index: 2
Type: 1
WasModified: 0
WasOrder2: 1
Width: 1025
VWidth: 2048
LBearingChange: 0
UnicodeEnc: 0
InstructionsLength: 0
SplineSet
566 226 m 1,0,-1
 566 0 l 1,1,-1
 456 0 l 1,2,-1
 456 226 l 1,3,-1
 148 226 l 1,4,-1
 148 322 l 1,5,-1
 456 322 l 1,6,-1
 456 980 l 1,7,-1
 148 980 l 1,8,-1
 148 1077 l 1,9,-1
 456 1077 l 1,10,-1
 456 1301 l 1,11,-1
 566 1301 l 1,12,-1
 566 1077 l 1,13,-1
 876 1077 l 1,14,-1
 876 980 l 1,15,-1
 566 980 l 1,16,-1
 566 322 l 1,17,-1
 876 322 l 1,18,-1
 876 226 l 1,19,-1
 566 226 l 1,0,-1
EndSplineSet
EndUndoOperation
EndUndoes
Redoes
EndRedoes
EndUndoRedoHistory
Fore
SplineSet
566 226 m 1,0,-1
 566 0 l 1,1,-1
 456 0 l 1,2,-1
 456 226 l 1,3,-1
 148 226 l 1,4,-1
 148 322 l 1,5,-1
 456 322 l 1,6,-1
 456 980 l 1,7,-1
 148 980 l 1,8,-1
 148 1077 l 1,9,-1
 456 1077 l 1,10,-1
 456 1301 l 1,11,-1
 566 1301 l 1,12,-1
 566 1077 l 1,13,-1
 876 1077 l 1,14,-1
 876 980 l 1,15,-1
 566 980 l 1,16,-1
 566 322 l 1,17,-1
 876 322 l 1,18,-1
 876 226 l 1,19,-1
 566 226 l 1,0,-1
EndSplineSet
EndChar

StartChar: degree
Encoding: 176 176 97
Width: 699
Flags: W
LayerCount: 2
UndoRedoHistory
Layer: 1
Undoes
UndoOperation
Index: 0
Type: 1
WasModified: 0
WasOrder2: 1
Width: 699
VWidth: 2048
LBearingChange: 0
UnicodeEnc: 0
InstructionsLength: 0
SplineSet
486 1168 m 0,0,1
 486 1241 486 1241 449 1284.5 c 128,-1,2
 412 1328 412 1328 347 1328 c 0,3,4
 284 1328 284 1328 248.5 1285.5 c 128,-1,5
 213 1243 213 1243 213 1170 c 128,-1,6
 213 1097 213 1097 248.5 1054 c 128,-1,7
 284 1011 284 1011 347 1011 c 128,-1,8
 410 1011 410 1011 448 1054.5 c 128,-1,9
 486 1098 486 1098 486 1168 c 0,0,1
350 917 m 1,10,11
 244 917 244 917 178 986.5 c 128,-1,12
 112 1056 112 1056 112 1169 c 0,13,14
 112 1284 112 1284 179.5 1352.5 c 128,-1,15
 247 1421 247 1421 352 1421 c 0,16,17
 456 1421 456 1421 521 1351 c 128,-1,18
 586 1281 586 1281 586 1169 c 0,19,20
 586 1056 586 1056 520 987 c 128,-1,21
 454 918 454 918 351 918 c 1,22,-1
 350 917 l 1,10,11
EndSplineSet
EndUndoOperation
UndoOperation
Index: 1
Type: 1
WasModified: 0
WasOrder2: 1
Width: 699
VWidth: 2048
LBearingChange: 0
UnicodeEnc: 0
InstructionsLength: 0
SplineSet
350 917 m 1,0,1
 244 917 244 917 178 986.5 c 128,-1,2
 112 1056 112 1056 112 1169 c 0,3,4
 112 1284 112 1284 179.5 1352.5 c 128,-1,5
 247 1421 247 1421 352 1421 c 0,6,7
 456 1421 456 1421 521 1351 c 128,-1,8
 586 1281 586 1281 586 1169 c 0,9,10
 586 1056 586 1056 520 987 c 128,-1,11
 454 918 454 918 351 918 c 1,12,-1
 350 917 l 1,0,1
486 1168 m 0,13,14
 486 1241 486 1241 449 1284.5 c 128,-1,15
 412 1328 412 1328 347 1328 c 0,16,17
 284 1328 284 1328 248.5 1285.5 c 128,-1,18
 213 1243 213 1243 213 1170 c 128,-1,19
 213 1097 213 1097 248.5 1054 c 128,-1,20
 284 1011 284 1011 347 1011 c 128,-1,21
 410 1011 410 1011 448 1054.5 c 128,-1,22
 486 1098 486 1098 486 1168 c 0,13,14
EndSplineSet
EndUndoOperation
UndoOperation
Index: 2
Type: 1
WasModified: 0
WasOrder2: 1
Width: 699
VWidth: 2048
LBearingChange: 0
UnicodeEnc: 0
InstructionsLength: 0
SplineSet
350 917 m 1,0,1
 244 917 244 917 178 986.5 c 128,-1,2
 112 1056 112 1056 112 1169 c 0,3,4
 112 1284 112 1284 179.5 1352.5 c 128,-1,5
 247 1421 247 1421 352 1421 c 0,6,7
 456 1421 456 1421 521 1351 c 128,-1,8
 586 1281 586 1281 586 1169 c 0,9,10
 586 1056 586 1056 520 987 c 128,-1,11
 454 918 454 918 351 918 c 1,12,-1
 350 917 l 1,0,1
486 1168 m 0,13,14
 486 1241 486 1241 449 1284.5 c 128,-1,15
 412 1328 412 1328 347 1328 c 0,16,17
 284 1328 284 1328 248.5 1285.5 c 128,-1,18
 213 1243 213 1243 213 1170 c 128,-1,19
 213 1097 213 1097 248.5 1054 c 128,-1,20
 284 1011 284 1011 347 1011 c 128,-1,21
 410 1011 410 1011 448 1054.5 c 128,-1,22
 486 1098 486 1098 486 1168 c 0,13,14
EndSplineSet
EndUndoOperation
EndUndoes
Redoes
EndRedoes
EndUndoRedoHistory
Fore
SplineSet
486 1168 m 0,0,1
 486 1241 486 1241 449 1284.5 c 128,-1,2
 412 1328 412 1328 347 1328 c 0,3,4
 284 1328 284 1328 248.5 1285.5 c 128,-1,5
 213 1243 213 1243 213 1170 c 128,-1,6
 213 1097 213 1097 248.5 1054 c 128,-1,7
 284 1011 284 1011 347 1011 c 128,-1,8
 410 1011 410 1011 448 1054.5 c 128,-1,9
 486 1098 486 1098 486 1168 c 0,0,1
350 917 m 1,10,11
 244 917 244 917 178 986.5 c 128,-1,12
 112 1056 112 1056 112 1169 c 0,13,14
 112 1284 112 1284 179.5 1352.5 c 128,-1,15
 247 1421 247 1421 352 1421 c 0,16,17
 456 1421 456 1421 521 1351 c 128,-1,18
 586 1281 586 1281 586 1169 c 0,19,20
 586 1056 586 1056 520 987 c 128,-1,21
 454 918 454 918 351 918 c 1,22,-1
 350 917 l 1,10,11
EndSplineSet
EndChar

